<svg xmlns="http://www.w3.org/2000/svg" width="1030" height="531" viewBox="0 0 1030 531">
  <g id="Grupo_1113437" data-name="Grupo 1113437" transform="translate(-285.051 -1072)">
    <path id="Trazado_900793" data-name="Trazado 900793" d="M0,0H1030V531H0Z" transform="translate(285.051 1072)" fill="#fff"/>
    <path id="Trazado_900695" data-name="Trazado 900695" d="M0,0V25.893H67.295v-.505H.593V0Z" transform="translate(457.478 1100.967)" fill="#161615" stroke="#161615" stroke-width="1"/>
    <path id="Trazado_900696" data-name="Trazado 900696" d="M404.927,176.568H337.632V150.675h.593v25.388h66.7Z" transform="translate(186.548 975.68)" fill="#161615" stroke="#161615" stroke-width="1"/>
    <path id="Trazado_900697" data-name="Trazado 900697" d="M742.563,327.246H675.268V301.353h.593v25.388h66.7Z" transform="translate(-84.384 850.391)" fill="#161615" stroke="#161615" stroke-width="1"/>
    <path id="Trazado_900698" data-name="Trazado 900698" d="M1080.183,477.925h-67.3V452.032h.593V477.42h66.7Z" transform="translate(-355.304 725.1)" fill="#161615" stroke="#161615" stroke-width="1"/>
    <path id="Trazado_900699" data-name="Trazado 900699" d="M1417.814,628.6h-67.3V602.707h.593v25.388h66.7Z" transform="translate(-626.233 599.813)" fill="#161615" stroke="#161615" stroke-width="1"/>
    <path id="Trazado_900700" data-name="Trazado 900700" d="M1755.444,779.276h-67.295V753.383h.593v25.388h66.7Z" transform="translate(-897.161 474.525)" fill="#161615" stroke="#161615" stroke-width="1"/>
    <path id="Trazado_900701" data-name="Trazado 900701" d="M2093.078,929.951h-67.295V904.058h.593v25.388h66.7Z" transform="translate(-1168.092 349.238)" fill="#161615" stroke="#161615" stroke-width="1"/>
    <path id="Trazado_900702" data-name="Trazado 900702" d="M2430.7,1080.624h-67.294V1054.73H2364v25.388h66.7Z" transform="translate(-1439.018 223.953)" fill="#161615" stroke="#161615" stroke-width="1"/>
    <path id="Trazado_900703" data-name="Trazado 900703" d="M2768.334,1231.3h-67.294V1205.4h.593v25.388h66.7Z" transform="translate(-1709.945 98.667)" fill="#161615" stroke="#161615" stroke-width="1"/>
    <path id="Trazado_900704" data-name="Trazado 900704" d="M3038.678,1356.076v25.893h67.3v-.506h-66.7v-25.387Z" transform="translate(-1980.879 -26.617)" fill="#161615" stroke="#161615" stroke-width="1"/>
    <path id="Trazado_900705" data-name="Trazado 900705" d="M3038.678,1356.076v25.893h67.3v-.506h-66.7v-25.387Z" transform="translate(-1913.584 -0.725)" fill="#161615" stroke="#161615" stroke-width="1"/>
    <path id="Trazado_900794" data-name="Trazado 900794" d="M13.847-7.315A9.675,9.675,0,0,1,13.073-3.3,5.858,5.858,0,0,1,10.882-.687a6.029,6.029,0,0,1-3.309.9A5.978,5.978,0,0,1,4.3-.693,6,6,0,0,1,2.079-3.282a9.283,9.283,0,0,1-.811-3.894V-8.3a9.56,9.56,0,0,1,.784-3.985A5.977,5.977,0,0,1,4.27-14.937a5.952,5.952,0,0,1,3.282-.918,6.063,6.063,0,0,1,3.314.908,5.848,5.848,0,0,1,2.208,2.632A9.722,9.722,0,0,1,13.847-8.3Zm-2.052-1.01a7.013,7.013,0,0,0-1.117-4.27,3.685,3.685,0,0,0-3.126-1.488A3.645,3.645,0,0,0,4.474-12.6a6.869,6.869,0,0,0-1.155,4.13v1.149A7.023,7.023,0,0,0,4.453-3.078,3.661,3.661,0,0,0,7.573-1.536a3.646,3.646,0,0,0,3.094-1.456,6.983,6.983,0,0,0,1.128-4.173ZM22.247-9.84a5.955,5.955,0,0,0-.978-.075A2.619,2.619,0,0,0,18.616-8.25V0H16.629V-11.623h1.934l.032,1.343a3.094,3.094,0,0,1,2.771-1.558,2.03,2.03,0,0,1,.881.15Zm1.139,3.932a6.809,6.809,0,0,1,1.268-4.3,4.008,4.008,0,0,1,3.319-1.627,4.031,4.031,0,0,1,3.233,1.4V-16.5h1.987V0H31.367l-.1-1.246A4.047,4.047,0,0,1,27.951.215a3.97,3.97,0,0,1-3.292-1.654,6.886,6.886,0,0,1-1.273-4.318Zm1.987.226a5.155,5.155,0,0,0,.816,3.094,2.639,2.639,0,0,0,2.256,1.117,2.9,2.9,0,0,0,2.761-1.7V-8.508a2.921,2.921,0,0,0-2.739-1.644,2.652,2.652,0,0,0-2.277,1.128A5.676,5.676,0,0,0,25.373-5.683ZM41.1.215a5.078,5.078,0,0,1-3.846-1.552,5.761,5.761,0,0,1-1.482-4.152v-.365a6.975,6.975,0,0,1,.661-3.088A5.154,5.154,0,0,1,38.28-11.07a4.645,4.645,0,0,1,2.573-.768,4.353,4.353,0,0,1,3.523,1.493,6.465,6.465,0,0,1,1.257,4.275v.827H37.759a4.132,4.132,0,0,0,1,2.777,3.157,3.157,0,0,0,2.444,1.058,3.461,3.461,0,0,0,1.783-.43,4.48,4.48,0,0,0,1.278-1.139l1.214.945A4.881,4.881,0,0,1,41.1.215Zm-.247-10.42a2.651,2.651,0,0,0-2.02.875,4.255,4.255,0,0,0-1.01,2.455h5.822v-.15a3.785,3.785,0,0,0-.816-2.347A2.5,2.5,0,0,0,40.853-10.205Zm8.959-1.418.064,1.461a4.236,4.236,0,0,1,3.48-1.676q3.685,0,3.717,4.157V0H55.086V-7.691a2.676,2.676,0,0,0-.575-1.858,2.3,2.3,0,0,0-1.756-.6,2.868,2.868,0,0,0-1.7.516,3.5,3.5,0,0,0-1.139,1.354V0H47.932V-11.623ZM65.033-5.908a6.809,6.809,0,0,1,1.268-4.3,4.008,4.008,0,0,1,3.319-1.627,4.031,4.031,0,0,1,3.233,1.4V-16.5h1.987V0H73.015l-.1-1.246A4.047,4.047,0,0,1,69.6.215a3.97,3.97,0,0,1-3.292-1.654,6.886,6.886,0,0,1-1.273-4.318Zm1.987.226a5.155,5.155,0,0,0,.816,3.094,2.639,2.639,0,0,0,2.256,1.117,2.9,2.9,0,0,0,2.761-1.7V-8.508a2.921,2.921,0,0,0-2.739-1.644,2.652,2.652,0,0,0-2.277,1.128A5.676,5.676,0,0,0,67.021-5.683ZM82.747.215A5.078,5.078,0,0,1,78.9-1.337a5.761,5.761,0,0,1-1.482-4.152v-.365a6.975,6.975,0,0,1,.661-3.088,5.154,5.154,0,0,1,1.848-2.127,4.645,4.645,0,0,1,2.573-.768,4.353,4.353,0,0,1,3.523,1.493A6.465,6.465,0,0,1,87.28-6.069v.827H79.406a4.132,4.132,0,0,0,1,2.777,3.157,3.157,0,0,0,2.444,1.058,3.461,3.461,0,0,0,1.783-.43,4.481,4.481,0,0,0,1.278-1.139l1.214.945A4.881,4.881,0,0,1,82.747.215ZM82.5-10.205a2.651,2.651,0,0,0-2.02.875,4.255,4.255,0,0,0-1.01,2.455h5.822v-.15a3.785,3.785,0,0,0-.816-2.347A2.5,2.5,0,0,0,82.5-10.205ZM91.738,0H89.751V-16.5h1.987Zm13.288-1.407a2.863,2.863,0,0,0,1.858-.645,2.268,2.268,0,0,0,.881-1.611h1.88a3.6,3.6,0,0,1-.687,1.9,4.528,4.528,0,0,1-1.692,1.439,4.882,4.882,0,0,1-2.24.537A4.788,4.788,0,0,1,101.25-1.37a6.311,6.311,0,0,1-1.4-4.334v-.333a7,7,0,0,1,.623-3.019,4.745,4.745,0,0,1,1.789-2.052,5.081,5.081,0,0,1,2.755-.73,4.662,4.662,0,0,1,3.25,1.171,4.185,4.185,0,0,1,1.38,3.04h-1.88a2.739,2.739,0,0,0-.854-1.853,2.657,2.657,0,0,0-1.9-.725,2.781,2.781,0,0,0-2.347,1.09,5.121,5.121,0,0,0-.833,3.153v.376a5.019,5.019,0,0,0,.827,3.094A2.8,2.8,0,0,0,105.026-1.407Zm6.327-4.512a6.865,6.865,0,0,1,.671-3.072,5.009,5.009,0,0,1,1.869-2.105,5.088,5.088,0,0,1,2.734-.741,4.9,4.9,0,0,1,3.84,1.644,6.323,6.323,0,0,1,1.466,4.372v.14a6.925,6.925,0,0,1-.65,3.045,4.935,4.935,0,0,1-1.858,2.1,5.147,5.147,0,0,1-2.777.752,4.889,4.889,0,0,1-3.83-1.644,6.291,6.291,0,0,1-1.466-4.351Zm2,.236a4.972,4.972,0,0,0,.9,3.1,2.871,2.871,0,0,0,2.4,1.171,2.853,2.853,0,0,0,2.406-1.187,5.437,5.437,0,0,0,.892-3.325,4.964,4.964,0,0,0-.908-3.1,2.886,2.886,0,0,0-2.412-1.187,2.854,2.854,0,0,0-2.374,1.171A5.4,5.4,0,0,0,113.352-5.683ZM117.53-16.5h2.406l-2.879,3.158h-1.6Zm6.413,10.592a6.809,6.809,0,0,1,1.268-4.3,4.008,4.008,0,0,1,3.319-1.627,4.031,4.031,0,0,1,3.233,1.4V-16.5h1.987V0h-1.826l-.1-1.246A4.047,4.047,0,0,1,128.509.215a3.97,3.97,0,0,1-3.292-1.654,6.886,6.886,0,0,1-1.273-4.318Zm1.987.226a5.155,5.155,0,0,0,.816,3.094A2.639,2.639,0,0,0,129-1.472a2.9,2.9,0,0,0,2.761-1.7V-8.508a2.921,2.921,0,0,0-2.739-1.644,2.652,2.652,0,0,0-2.277,1.128A5.676,5.676,0,0,0,125.931-5.683ZM138.993,0h-1.987V-11.623h1.987Zm-2.148-14.706a1.186,1.186,0,0,1,.3-.816,1.109,1.109,0,0,1,.875-.333,1.126,1.126,0,0,1,.881.333,1.174,1.174,0,0,1,.3.816,1.135,1.135,0,0,1-.3.806,1.147,1.147,0,0,1-.881.322,1.129,1.129,0,0,1-.875-.322A1.147,1.147,0,0,1,136.845-14.706Zm4.855,8.8a6.831,6.831,0,0,1,1.257-4.324,4.019,4.019,0,0,1,3.33-1.606,4,4,0,0,1,3.319,1.5l.1-1.289h1.815V-.279a4.728,4.728,0,0,1-1.337,3.556,4.935,4.935,0,0,1-3.593,1.3,5.978,5.978,0,0,1-2.46-.537,4.235,4.235,0,0,1-1.837-1.472l1.031-1.192a3.886,3.886,0,0,0,3.126,1.579,3.045,3.045,0,0,0,2.261-.816,3.12,3.12,0,0,0,.811-2.3v-1A4.085,4.085,0,0,1,146.266.215a3.97,3.97,0,0,1-3.3-1.644A7.182,7.182,0,0,1,141.7-5.908Zm2,.226a5.211,5.211,0,0,0,.806,3.088,2.618,2.618,0,0,0,2.256,1.123,2.911,2.911,0,0,0,2.761-1.708V-8.486a2.945,2.945,0,0,0-2.739-1.665,2.641,2.641,0,0,0-2.267,1.128A5.676,5.676,0,0,0,143.7-5.683Zm10.291-.236a6.865,6.865,0,0,1,.671-3.072A5.008,5.008,0,0,1,156.53-11.1a5.088,5.088,0,0,1,2.734-.741,4.9,4.9,0,0,1,3.84,1.644,6.323,6.323,0,0,1,1.466,4.372v.14a6.925,6.925,0,0,1-.65,3.045,4.935,4.935,0,0,1-1.858,2.1,5.146,5.146,0,0,1-2.777.752,4.889,4.889,0,0,1-3.83-1.644,6.291,6.291,0,0,1-1.466-4.351Zm2,.236a4.972,4.972,0,0,0,.9,3.1,2.871,2.871,0,0,0,2.4,1.171,2.853,2.853,0,0,0,2.406-1.187,5.437,5.437,0,0,0,.892-3.325,4.964,4.964,0,0,0-.908-3.1,2.886,2.886,0,0,0-2.412-1.187,2.854,2.854,0,0,0-2.374,1.171A5.4,5.4,0,0,0,155.987-5.683Z" transform="matrix(0.927, 0.375, -0.375, 0.927, 652.099, 1275.035)" fill="#12263f"/>
    <path id="Trazado_900795" data-name="Trazado 900795" d="M9.448,0H1.063V-1.169l4.43-4.922A10.524,10.524,0,0,0,6.851-7.906a3.029,3.029,0,0,0,.374-1.446A2.3,2.3,0,0,0,6.618-11,2.12,2.12,0,0,0,5-11.637a2.511,2.511,0,0,0-1.885.69,2.635,2.635,0,0,0-.672,1.92H.817a3.774,3.774,0,0,1,1.138-2.856A4.219,4.219,0,0,1,5-12.973a4.054,4.054,0,0,1,2.821.936A3.193,3.193,0,0,1,8.859-9.545q0,1.89-2.408,4.5L3.023-1.327H9.448Zm7.066,0H14.88V-10.837L11.6-9.633v-1.477l4.658-1.749h.255Zm5.511-6.416.65-6.381h6.557v1.5H24.056L23.669-7.8A4.13,4.13,0,0,1,25.8-8.358,3.531,3.531,0,0,1,28.582-7.2,4.53,4.53,0,0,1,29.61-4.078,4.372,4.372,0,0,1,28.542-.962,3.892,3.892,0,0,1,25.559.176a4.045,4.045,0,0,1-2.769-.94,3.754,3.754,0,0,1-1.222-2.6h1.538a2.582,2.582,0,0,0,.782,1.657,2.432,2.432,0,0,0,1.67.558,2.194,2.194,0,0,0,1.78-.773,3.233,3.233,0,0,0,.646-2.136,2.968,2.968,0,0,0-.7-2.061A2.377,2.377,0,0,0,25.427-6.9a2.681,2.681,0,0,0-1.67.466l-.431.352ZM39.146-9.457a2.972,2.972,0,0,1-.505,1.705,3.439,3.439,0,0,1-1.367,1.169,3.668,3.668,0,0,1,1.586,1.257,3.163,3.163,0,0,1,.584,1.872A3.344,3.344,0,0,1,38.325-.809a4.305,4.305,0,0,1-2.949.984,4.286,4.286,0,0,1-2.958-.989,3.36,3.36,0,0,1-1.112-2.641,3.257,3.257,0,0,1,.567-1.872,3.528,3.528,0,0,1,1.569-1.266A3.354,3.354,0,0,1,32.1-7.761a3.014,3.014,0,0,1-.492-1.7,3.308,3.308,0,0,1,1.037-2.566,3.89,3.89,0,0,1,2.733-.949,3.894,3.894,0,0,1,2.729.949A3.3,3.3,0,0,1,39.146-9.457ZM37.819-3.489a2.359,2.359,0,0,0-.681-1.749,2.416,2.416,0,0,0-1.78-.677,2.373,2.373,0,0,0-1.762.668,2.385,2.385,0,0,0-.664,1.758,2.271,2.271,0,0,0,.646,1.714,2.48,2.48,0,0,0,1.8.624,2.472,2.472,0,0,0,1.793-.628A2.266,2.266,0,0,0,37.819-3.489Zm-2.443-8.147a2.1,2.1,0,0,0-1.551.593,2.179,2.179,0,0,0-.593,1.613,2.169,2.169,0,0,0,.584,1.578,2.074,2.074,0,0,0,1.56.6,2.074,2.074,0,0,0,1.56-.6,2.169,2.169,0,0,0,.584-1.578,2.17,2.17,0,0,0-.606-1.591A2.068,2.068,0,0,0,35.376-11.637Z" transform="translate(403.722 1118.33)" fill="#12263f"/>
    <path id="Trazado_900796" data-name="Trazado 900796" d="M6.407,0H4.772V-10.837l-3.278,1.2v-1.477l4.658-1.749h.255ZM19.2-5.458a7.436,7.436,0,0,1-.976,4.245A3.47,3.47,0,0,1,15.17.176a3.5,3.5,0,0,1-3.032-1.358,7.058,7.058,0,0,1-1.02-4.056V-7.409a7.271,7.271,0,0,1,.976-4.192,3.5,3.5,0,0,1,3.059-1.371,3.528,3.528,0,0,1,3.041,1.323,7.017,7.017,0,0,1,1,4.083ZM17.569-7.682a5.958,5.958,0,0,0-.58-3.01,2,2,0,0,0-1.837-.945,1.97,1.97,0,0,0-1.819.94A5.817,5.817,0,0,0,12.744-7.8v2.6a6.053,6.053,0,0,0,.6,3.063,1.993,1.993,0,0,0,1.824.989,1.966,1.966,0,0,0,1.789-.932,5.834,5.834,0,0,0,.611-2.936Zm11.971-4.2L24.24,0H22.535l5.282-11.461H20.892V-12.8H29.54Zm8.077,6.258a3.978,3.978,0,0,1-1.217.976,3.3,3.3,0,0,1-1.551.369,3.41,3.41,0,0,1-1.929-.545,3.543,3.543,0,0,1-1.27-1.534A5.229,5.229,0,0,1,31.2-8.543a5.327,5.327,0,0,1,.488-2.312,3.583,3.583,0,0,1,1.384-1.573,3.947,3.947,0,0,1,2.092-.545,3.574,3.574,0,0,1,2.993,1.419,6.191,6.191,0,0,1,1.094,3.872v.475q0,3.735-1.477,5.454A5.673,5.673,0,0,1,33.319.009H33V-1.362h.343a4.471,4.471,0,0,0,3.094-1.05A4.512,4.512,0,0,0,37.617-5.625Zm-2.5,0a2.511,2.511,0,0,0,1.507-.5,2.953,2.953,0,0,0,1.006-1.239v-.65a4.474,4.474,0,0,0-.694-2.6,2.072,2.072,0,0,0-1.758-1,2.088,2.088,0,0,0-1.723.822,3.39,3.39,0,0,0-.65,2.167,3.528,3.528,0,0,0,.628,2.158A1.99,1.99,0,0,0,35.112-5.625Z" transform="translate(473.492 1148.231)" fill="#12263f"/>
    <path id="Trazado_900797" data-name="Trazado 900797" d="M1.811-6.416l.65-6.381H9.018v1.5H3.841L3.454-7.8A4.13,4.13,0,0,1,5.59-8.358,3.531,3.531,0,0,1,8.367-7.2,4.53,4.53,0,0,1,9.4-4.078,4.372,4.372,0,0,1,8.328-.962,3.892,3.892,0,0,1,5.344.176a4.045,4.045,0,0,1-2.769-.94,3.754,3.754,0,0,1-1.222-2.6H2.892a2.582,2.582,0,0,0,.782,1.657,2.432,2.432,0,0,0,1.67.558,2.194,2.194,0,0,0,1.78-.773A3.233,3.233,0,0,0,7.77-4.061a2.968,2.968,0,0,0-.7-2.061A2.377,2.377,0,0,0,5.212-6.9a2.681,2.681,0,0,0-1.67.466l-.431.352Zm11.725-.773h1.222A2.685,2.685,0,0,0,16.567-7.8a2.026,2.026,0,0,0,.659-1.591,1.985,1.985,0,0,0-2.241-2.25,2.331,2.331,0,0,0-1.683.6,2.107,2.107,0,0,0-.628,1.6H11.048a3.264,3.264,0,0,1,1.112-2.527,4.05,4.05,0,0,1,2.826-1.006,4,4,0,0,1,2.839.958,3.461,3.461,0,0,1,1.028,2.663,2.809,2.809,0,0,1-.541,1.617A3.264,3.264,0,0,1,16.84-6.565a3.145,3.145,0,0,1,1.63,1.107,3.076,3.076,0,0,1,.576,1.89A3.491,3.491,0,0,1,17.921-.835,4.213,4.213,0,0,1,14.994.176,4.324,4.324,0,0,1,12.063-.8a3.236,3.236,0,0,1-1.129-2.575h1.635a2.092,2.092,0,0,0,.659,1.617,2.507,2.507,0,0,0,1.767.606,2.46,2.46,0,0,0,1.8-.615,2.371,2.371,0,0,0,.624-1.767,2.151,2.151,0,0,0-.686-1.714,2.987,2.987,0,0,0-1.978-.615H13.535ZM27.51-5.625a3.978,3.978,0,0,1-1.217.976,3.3,3.3,0,0,1-1.551.369,3.41,3.41,0,0,1-1.929-.545,3.543,3.543,0,0,1-1.27-1.534,5.229,5.229,0,0,1-.448-2.184,5.327,5.327,0,0,1,.488-2.312,3.583,3.583,0,0,1,1.384-1.573,3.947,3.947,0,0,1,2.092-.545,3.574,3.574,0,0,1,2.993,1.419,6.191,6.191,0,0,1,1.094,3.872v.475q0,3.735-1.477,5.454A5.673,5.673,0,0,1,23.212.009H22.9V-1.362h.343a4.471,4.471,0,0,0,3.094-1.05A4.512,4.512,0,0,0,27.51-5.625Zm-2.5,0a2.511,2.511,0,0,0,1.507-.5,2.953,2.953,0,0,0,1.006-1.239v-.65a4.474,4.474,0,0,0-.694-2.6,2.072,2.072,0,0,0-1.758-1,2.088,2.088,0,0,0-1.723.822,3.39,3.39,0,0,0-.65,2.167,3.528,3.528,0,0,0,.628,2.158A1.99,1.99,0,0,0,25-5.625Z" transform="translate(551.568 1173.149)" fill="#12263f"/>
    <path id="Trazado_900798" data-name="Trazado 900798" d="M9.448,0H1.063V-1.169l4.43-4.922A10.524,10.524,0,0,0,6.851-7.906a3.029,3.029,0,0,0,.374-1.446A2.3,2.3,0,0,0,6.618-11,2.12,2.12,0,0,0,5-11.637a2.511,2.511,0,0,0-1.885.69,2.635,2.635,0,0,0-.672,1.92H.817a3.774,3.774,0,0,1,1.138-2.856A4.219,4.219,0,0,1,5-12.973a4.054,4.054,0,0,1,2.821.936A3.193,3.193,0,0,1,8.859-9.545q0,1.89-2.408,4.5L3.023-1.327H9.448Zm8.1-12.806v1.38h-.3A4.281,4.281,0,0,0,14.229-10.3a4.681,4.681,0,0,0-1.3,3.067,3.471,3.471,0,0,1,2.76-1.16,3.319,3.319,0,0,1,2.667,1.178,4.543,4.543,0,0,1,1,3.041,4.528,4.528,0,0,1-1.077,3.164A3.707,3.707,0,0,1,15.39.176,3.653,3.653,0,0,1,12.41-1.235a5.591,5.591,0,0,1-1.143-3.634v-.624a8.424,8.424,0,0,1,1.507-5.4,5.536,5.536,0,0,1,4.487-1.912ZM15.416-7.04a2.594,2.594,0,0,0-1.538.5A2.61,2.61,0,0,0,12.9-5.282v.6a4.2,4.2,0,0,0,.712,2.549,2.133,2.133,0,0,0,1.775.967,2.067,2.067,0,0,0,1.727-.809A3.355,3.355,0,0,0,17.745-4.1a3.356,3.356,0,0,0-.637-2.131A2.042,2.042,0,0,0,15.416-7.04ZM27.51-5.625a3.978,3.978,0,0,1-1.217.976,3.3,3.3,0,0,1-1.551.369,3.41,3.41,0,0,1-1.929-.545,3.543,3.543,0,0,1-1.27-1.534,5.229,5.229,0,0,1-.448-2.184,5.327,5.327,0,0,1,.488-2.312,3.583,3.583,0,0,1,1.384-1.573,3.947,3.947,0,0,1,2.092-.545,3.574,3.574,0,0,1,2.993,1.419,6.191,6.191,0,0,1,1.094,3.872v.475q0,3.735-1.477,5.454A5.673,5.673,0,0,1,23.212.009H22.9V-1.362h.343a4.471,4.471,0,0,0,3.094-1.05A4.512,4.512,0,0,0,27.51-5.625Zm-2.5,0a2.511,2.511,0,0,0,1.507-.5,2.953,2.953,0,0,0,1.006-1.239v-.65a4.474,4.474,0,0,0-.694-2.6,2.072,2.072,0,0,0-1.758-1,2.088,2.088,0,0,0-1.723.822,3.39,3.39,0,0,0-.65,2.167,3.528,3.528,0,0,0,.628,2.158A1.99,1.99,0,0,0,25-5.625Z" transform="translate(614.694 1198.067)" fill="#12263f"/>
    <path id="Trazado_900799" data-name="Trazado 900799" d="M6.407,0H4.772V-10.837l-3.278,1.2v-1.477l4.658-1.749h.255Zm7.128-7.189h1.222A2.685,2.685,0,0,0,16.567-7.8a2.026,2.026,0,0,0,.659-1.591,1.985,1.985,0,0,0-2.241-2.25,2.331,2.331,0,0,0-1.683.6,2.107,2.107,0,0,0-.628,1.6H11.048a3.264,3.264,0,0,1,1.112-2.527,4.05,4.05,0,0,1,2.826-1.006,4,4,0,0,1,2.839.958,3.461,3.461,0,0,1,1.028,2.663,2.809,2.809,0,0,1-.541,1.617A3.264,3.264,0,0,1,16.84-6.565a3.145,3.145,0,0,1,1.63,1.107,3.076,3.076,0,0,1,.576,1.89A3.491,3.491,0,0,1,17.921-.835,4.213,4.213,0,0,1,14.994.176,4.324,4.324,0,0,1,12.063-.8a3.236,3.236,0,0,1-1.129-2.575h1.635a2.092,2.092,0,0,0,.659,1.617,2.507,2.507,0,0,0,1.767.606,2.46,2.46,0,0,0,1.8-.615,2.371,2.371,0,0,0,.624-1.767,2.151,2.151,0,0,0-.686-1.714,2.987,2.987,0,0,0-1.978-.615H13.535ZM28.143-4.3h1.775v1.327H28.143V0H26.508V-2.971H20.681v-.958l5.73-8.868h1.731Zm-5.616,0h3.981v-6.275l-.193.352Z" transform="translate(682.803 1222.985)" fill="#12263f"/>
    <path id="Trazado_900800" data-name="Trazado 900800" d="M7.444-12.806v1.38h-.3A4.281,4.281,0,0,0,4.122-10.3a4.681,4.681,0,0,0-1.3,3.067,3.471,3.471,0,0,1,2.76-1.16A3.319,3.319,0,0,1,8.249-7.216a4.543,4.543,0,0,1,1,3.041A4.528,4.528,0,0,1,8.169-1.011,3.707,3.707,0,0,1,5.282.176,3.653,3.653,0,0,1,2.3-1.235,5.591,5.591,0,0,1,1.16-4.869v-.624a8.424,8.424,0,0,1,1.507-5.4,5.536,5.536,0,0,1,4.487-1.912ZM5.309-7.04a2.594,2.594,0,0,0-1.538.5,2.61,2.61,0,0,0-.976,1.257v.6a4.2,4.2,0,0,0,.712,2.549,2.133,2.133,0,0,0,1.775.967,2.067,2.067,0,0,0,1.727-.809A3.355,3.355,0,0,0,7.638-4.1,3.356,3.356,0,0,0,7-6.227,2.042,2.042,0,0,0,5.309-7.04Zm14.124-4.843L14.133,0H12.428L17.71-11.461H10.784V-12.8h8.648Z" transform="translate(762.54 1249.564)" fill="#12263f"/>
    <path id="Trazado_900801" data-name="Trazado 900801" d="M3.428-7.189H4.649A2.685,2.685,0,0,0,6.46-7.8a2.026,2.026,0,0,0,.659-1.591,1.985,1.985,0,0,0-2.241-2.25,2.331,2.331,0,0,0-1.683.6,2.107,2.107,0,0,0-.628,1.6H.94a3.264,3.264,0,0,1,1.112-2.527,4.05,4.05,0,0,1,2.826-1.006,4,4,0,0,1,2.839.958A3.461,3.461,0,0,1,8.745-9.352,2.809,2.809,0,0,1,8.2-7.734,3.264,3.264,0,0,1,6.732-6.565a3.145,3.145,0,0,1,1.63,1.107,3.076,3.076,0,0,1,.576,1.89A3.491,3.491,0,0,1,7.813-.835,4.213,4.213,0,0,1,4.887.176,4.324,4.324,0,0,1,1.956-.8,3.236,3.236,0,0,1,.826-3.375H2.461A2.092,2.092,0,0,0,3.12-1.758a2.507,2.507,0,0,0,1.767.606,2.46,2.46,0,0,0,1.8-.615,2.371,2.371,0,0,0,.624-1.767,2.151,2.151,0,0,0-.686-1.714,2.987,2.987,0,0,0-1.978-.615H3.428Zm10.107,0h1.222A2.685,2.685,0,0,0,16.567-7.8a2.026,2.026,0,0,0,.659-1.591,1.985,1.985,0,0,0-2.241-2.25,2.331,2.331,0,0,0-1.683.6,2.107,2.107,0,0,0-.628,1.6H11.048a3.264,3.264,0,0,1,1.112-2.527,4.05,4.05,0,0,1,2.826-1.006,4,4,0,0,1,2.839.958,3.461,3.461,0,0,1,1.028,2.663,2.809,2.809,0,0,1-.541,1.617A3.264,3.264,0,0,1,16.84-6.565a3.145,3.145,0,0,1,1.63,1.107,3.076,3.076,0,0,1,.576,1.89A3.491,3.491,0,0,1,17.921-.835,4.213,4.213,0,0,1,14.994.176,4.324,4.324,0,0,1,12.063-.8a3.236,3.236,0,0,1-1.129-2.575h1.635a2.092,2.092,0,0,0,.659,1.617,2.507,2.507,0,0,0,1.767.606,2.46,2.46,0,0,0,1.8-.615,2.371,2.371,0,0,0,.624-1.767,2.151,2.151,0,0,0-.686-1.714,2.987,2.987,0,0,0-1.978-.615H13.535Z" transform="translate(828.988 1276.144)" fill="#12263f"/>
    <path id="Trazado_900802" data-name="Trazado 900802" d="M6.407,0H4.772V-10.837l-3.278,1.2v-1.477l4.658-1.749h.255ZM17.552-12.806v1.38h-.3A4.281,4.281,0,0,0,14.229-10.3a4.681,4.681,0,0,0-1.3,3.067,3.471,3.471,0,0,1,2.76-1.16,3.319,3.319,0,0,1,2.667,1.178,4.543,4.543,0,0,1,1,3.041,4.528,4.528,0,0,1-1.077,3.164A3.707,3.707,0,0,1,15.39.176,3.653,3.653,0,0,1,12.41-1.235a5.591,5.591,0,0,1-1.143-3.634v-.624a8.424,8.424,0,0,1,1.507-5.4,5.536,5.536,0,0,1,4.487-1.912ZM15.416-7.04a2.594,2.594,0,0,0-1.538.5A2.61,2.61,0,0,0,12.9-5.282v.6a4.2,4.2,0,0,0,.712,2.549,2.133,2.133,0,0,0,1.775.967,2.067,2.067,0,0,0,1.727-.809A3.355,3.355,0,0,0,17.745-4.1a3.356,3.356,0,0,0-.637-2.131A2.042,2.042,0,0,0,15.416-7.04Z" transform="translate(895.436 1299.4)" fill="#12263f"/>
    <path id="Trazado_900803" data-name="Trazado 900803" d="M8.824-9.457a2.972,2.972,0,0,1-.505,1.705A3.439,3.439,0,0,1,6.952-6.583,3.668,3.668,0,0,1,8.539-5.326a3.163,3.163,0,0,1,.584,1.872A3.344,3.344,0,0,1,8-.809,4.305,4.305,0,0,1,5.054.176,4.286,4.286,0,0,1,2.1-.813,3.36,3.36,0,0,1,.984-3.454a3.257,3.257,0,0,1,.567-1.872A3.528,3.528,0,0,1,3.12-6.592,3.354,3.354,0,0,1,1.775-7.761a3.014,3.014,0,0,1-.492-1.7A3.308,3.308,0,0,1,2.32-12.023a3.89,3.89,0,0,1,2.733-.949,3.894,3.894,0,0,1,2.729.949A3.3,3.3,0,0,1,8.824-9.457ZM7.5-3.489a2.359,2.359,0,0,0-.681-1.749,2.416,2.416,0,0,0-1.78-.677,2.373,2.373,0,0,0-1.762.668A2.385,2.385,0,0,0,2.61-3.489a2.271,2.271,0,0,0,.646,1.714,2.48,2.48,0,0,0,1.8.624A2.472,2.472,0,0,0,6.847-1.78,2.266,2.266,0,0,0,7.5-3.489ZM5.054-11.637a2.1,2.1,0,0,0-1.551.593,2.179,2.179,0,0,0-.593,1.613,2.169,2.169,0,0,0,.584,1.578,2.074,2.074,0,0,0,1.56.6,2.074,2.074,0,0,0,1.56-.6A2.169,2.169,0,0,0,7.2-9.431a2.17,2.17,0,0,0-.606-1.591A2.068,2.068,0,0,0,5.054-11.637Z" transform="translate(971.851 1324.318)" fill="#12263f"/>
    <path id="Trazado_900804" data-name="Trazado 900804" d="M7.928-4.3H9.7v1.327H7.928V0H6.293V-2.971H.466v-.958L6.2-12.8H7.928Zm-5.616,0H6.293v-6.275l-.193.352Z" transform="translate(1041.621 1349.236)" fill="#12263f"/>
    <path id="Trazado_900805" data-name="Trazado 900805" d="M9.448,0H1.063V-1.169l4.43-4.922A10.524,10.524,0,0,0,6.851-7.906a3.029,3.029,0,0,0,.374-1.446A2.3,2.3,0,0,0,6.618-11,2.12,2.12,0,0,0,5-11.637a2.511,2.511,0,0,0-1.885.69,2.635,2.635,0,0,0-.672,1.92H.817a3.774,3.774,0,0,1,1.138-2.856A4.219,4.219,0,0,1,5-12.973a4.054,4.054,0,0,1,2.821.936A3.193,3.193,0,0,1,8.859-9.545q0,1.89-2.408,4.5L3.023-1.327H9.448Z" transform="translate(510.039 1118.33)" fill="#12263f"/>
    <path id="Trazado_900806" data-name="Trazado 900806" d="M9.448,0H1.063V-1.169l4.43-4.922A10.524,10.524,0,0,0,6.851-7.906a3.029,3.029,0,0,0,.374-1.446A2.3,2.3,0,0,0,6.618-11,2.12,2.12,0,0,0,5-11.637a2.511,2.511,0,0,0-1.885.69,2.635,2.635,0,0,0-.672,1.92H.817a3.774,3.774,0,0,1,1.138-2.856A4.219,4.219,0,0,1,5-12.973a4.054,4.054,0,0,1,2.821.936A3.193,3.193,0,0,1,8.859-9.545q0,1.89-2.408,4.5L3.023-1.327H9.448Z" transform="translate(578.147 1146.57)" fill="#12263f"/>
    <path id="Trazado_900807" data-name="Trazado 900807" d="M9.448,0H1.063V-1.169l4.43-4.922A10.524,10.524,0,0,0,6.851-7.906a3.029,3.029,0,0,0,.374-1.446A2.3,2.3,0,0,0,6.618-11,2.12,2.12,0,0,0,5-11.637a2.511,2.511,0,0,0-1.885.69,2.635,2.635,0,0,0-.672,1.92H.817a3.774,3.774,0,0,1,1.138-2.856A4.219,4.219,0,0,1,5-12.973a4.054,4.054,0,0,1,2.821.936A3.193,3.193,0,0,1,8.859-9.545q0,1.89-2.408,4.5L3.023-1.327H9.448Z" transform="translate(644.596 1171.488)" fill="#12263f"/>
    <path id="Trazado_900808" data-name="Trazado 900808" d="M9.448,0H1.063V-1.169l4.43-4.922A10.524,10.524,0,0,0,6.851-7.906a3.029,3.029,0,0,0,.374-1.446A2.3,2.3,0,0,0,6.618-11,2.12,2.12,0,0,0,5-11.637a2.511,2.511,0,0,0-1.885.69,2.635,2.635,0,0,0-.672,1.92H.817a3.774,3.774,0,0,1,1.138-2.856A4.219,4.219,0,0,1,5-12.973a4.054,4.054,0,0,1,2.821.936A3.193,3.193,0,0,1,8.859-9.545q0,1.89-2.408,4.5L3.023-1.327H9.448Z" transform="translate(712.705 1196.406)" fill="#12263f"/>
    <path id="Trazado_900809" data-name="Trazado 900809" d="M9.448,0H1.063V-1.169l4.43-4.922A10.524,10.524,0,0,0,6.851-7.906a3.029,3.029,0,0,0,.374-1.446A2.3,2.3,0,0,0,6.618-11,2.12,2.12,0,0,0,5-11.637a2.511,2.511,0,0,0-1.885.69,2.635,2.635,0,0,0-.672,1.92H.817a3.774,3.774,0,0,1,1.138-2.856A4.219,4.219,0,0,1,5-12.973a4.054,4.054,0,0,1,2.821.936A3.193,3.193,0,0,1,8.859-9.545q0,1.89-2.408,4.5L3.023-1.327H9.448Z" transform="translate(779.152 1222.985)" fill="#12263f"/>
    <path id="Trazado_900810" data-name="Trazado 900810" d="M9.448,0H1.063V-1.169l4.43-4.922A10.524,10.524,0,0,0,6.851-7.906a3.029,3.029,0,0,0,.374-1.446A2.3,2.3,0,0,0,6.618-11,2.12,2.12,0,0,0,5-11.637a2.511,2.511,0,0,0-1.885.69,2.635,2.635,0,0,0-.672,1.92H.817a3.774,3.774,0,0,1,1.138-2.856A4.219,4.219,0,0,1,5-12.973a4.054,4.054,0,0,1,2.821.936A3.193,3.193,0,0,1,8.859-9.545q0,1.89-2.408,4.5L3.023-1.327H9.448Z" transform="translate(845.6 1247.903)" fill="#12263f"/>
    <path id="Trazado_900811" data-name="Trazado 900811" d="M9.448,0H1.063V-1.169l4.43-4.922A10.524,10.524,0,0,0,6.851-7.906a3.029,3.029,0,0,0,.374-1.446A2.3,2.3,0,0,0,6.618-11,2.12,2.12,0,0,0,5-11.637a2.511,2.511,0,0,0-1.885.69,2.635,2.635,0,0,0-.672,1.92H.817a3.774,3.774,0,0,1,1.138-2.856A4.219,4.219,0,0,1,5-12.973a4.054,4.054,0,0,1,2.821.936A3.193,3.193,0,0,1,8.859-9.545q0,1.89-2.408,4.5L3.023-1.327H9.448Z" transform="translate(912.048 1271.16)" fill="#12263f"/>
    <path id="Trazado_900812" data-name="Trazado 900812" d="M9.448,0H1.063V-1.169l4.43-4.922A10.524,10.524,0,0,0,6.851-7.906a3.029,3.029,0,0,0,.374-1.446A2.3,2.3,0,0,0,6.618-11,2.12,2.12,0,0,0,5-11.637a2.511,2.511,0,0,0-1.885.69,2.635,2.635,0,0,0-.672,1.92H.817a3.774,3.774,0,0,1,1.138-2.856A4.219,4.219,0,0,1,5-12.973a4.054,4.054,0,0,1,2.821.936A3.193,3.193,0,0,1,8.859-9.545q0,1.89-2.408,4.5L3.023-1.327H9.448Z" transform="translate(980.157 1297.739)" fill="#12263f"/>
    <path id="Trazado_900813" data-name="Trazado 900813" d="M9.448,0H1.063V-1.169l4.43-4.922A10.524,10.524,0,0,0,6.851-7.906a3.029,3.029,0,0,0,.374-1.446A2.3,2.3,0,0,0,6.618-11,2.12,2.12,0,0,0,5-11.637a2.511,2.511,0,0,0-1.885.69,2.635,2.635,0,0,0-.672,1.92H.817a3.774,3.774,0,0,1,1.138-2.856A4.219,4.219,0,0,1,5-12.973a4.054,4.054,0,0,1,2.821.936A3.193,3.193,0,0,1,8.859-9.545q0,1.89-2.408,4.5L3.023-1.327H9.448Z" transform="translate(1046.604 1322.657)" fill="#12263f"/>
    <path id="Trazado_900814" data-name="Trazado 900814" d="M9.448,0H1.063V-1.169l4.43-4.922A10.524,10.524,0,0,0,6.851-7.906a3.029,3.029,0,0,0,.374-1.446A2.3,2.3,0,0,0,6.618-11,2.12,2.12,0,0,0,5-11.637a2.511,2.511,0,0,0-1.885.69,2.635,2.635,0,0,0-.672,1.92H.817a3.774,3.774,0,0,1,1.138-2.856A4.219,4.219,0,0,1,5-12.973a4.054,4.054,0,0,1,2.821.936A3.193,3.193,0,0,1,8.859-9.545q0,1.89-2.408,4.5L3.023-1.327H9.448Z" transform="translate(1103.085 1347.575)" fill="#12263f"/>
    <path id="Trazado_900815" data-name="Trazado 900815" d="M9.448,0H1.063V-1.169l4.43-4.922A10.524,10.524,0,0,0,6.851-7.906a3.029,3.029,0,0,0,.374-1.446A2.3,2.3,0,0,0,6.618-11,2.12,2.12,0,0,0,5-11.637a2.511,2.511,0,0,0-1.885.69,2.635,2.635,0,0,0-.672,1.92H.817a3.774,3.774,0,0,1,1.138-2.856A4.219,4.219,0,0,1,5-12.973a4.054,4.054,0,0,1,2.821.936A3.193,3.193,0,0,1,8.859-9.545q0,1.89-2.408,4.5L3.023-1.327H9.448Z" transform="translate(1103.085 1375.815)" fill="#12263f"/>
    <path id="Trazado_900816" data-name="Trazado 900816" d="M9.448,0H1.063V-1.169l4.43-4.922A10.524,10.524,0,0,0,6.851-7.906a3.029,3.029,0,0,0,.374-1.446A2.3,2.3,0,0,0,6.618-11,2.12,2.12,0,0,0,5-11.637a2.511,2.511,0,0,0-1.885.69,2.635,2.635,0,0,0-.672,1.92H.817a3.774,3.774,0,0,1,1.138-2.856A4.219,4.219,0,0,1,5-12.973a4.054,4.054,0,0,1,2.821.936A3.193,3.193,0,0,1,8.859-9.545q0,1.89-2.408,4.5L3.023-1.327H9.448Z" transform="translate(1174.517 1372.493)" fill="#12263f"/>
    <path id="Trazado_900817" data-name="Trazado 900817" d="M6.407,0H4.772V-10.837l-3.278,1.2v-1.477l4.658-1.749h.255Z" transform="translate(1176.178 1400.733)" fill="#12263f"/>
    <path id="Trazado_900818" data-name="Trazado 900818" d="M0,0H477.549V9.967H0Z" transform="translate(521.415 1181.802) rotate(22)" fill="#fd96ca"/>
    <path id="Trazado_900819" data-name="Trazado 900819" d="M13.29,0l13.29,23.257H0Z" transform="translate(493.613 1189.709) rotate(-67)" fill="#fd96ca"/>
    <path id="Trazado_900820" data-name="Trazado 900820" d="M0,0H905.352V36.546H0Z" transform="translate(314.018 1418.999)" fill="#faf1fe"/>
    <path id="Trazado_900821" data-name="Trazado 900821" d="M0,0H905.352V36.546H0Z" transform="translate(314.018 1458)" fill="#faf1fe"/>
    <path id="Trazado_900822" data-name="Trazado 900822" d="M0,0H905.352V36.546H0Z" transform="translate(314.018 1538)" fill="#faf1fe"/>
    <path id="Trazado_900823" data-name="Trazado 900823" d="M0,0H905.352V36.546H0Z" transform="translate(314.018 1497.999)" fill="#f5e5fe"/>
    <path id="Trazado_900824" data-name="Trazado 900824" d="M1.485,0V-12.8H5.669a4.856,4.856,0,0,1,3.133.861,3.1,3.1,0,0,1,1.05,2.549A2.6,2.6,0,0,1,9.343-7.8,3.3,3.3,0,0,1,7.954-6.732a2.968,2.968,0,0,1,1.639,1.1,3.166,3.166,0,0,1,.6,1.938A3.423,3.423,0,0,1,9.079-.984,4.616,4.616,0,0,1,5.924,0ZM3.173-5.985V-1.38H5.959a2.683,2.683,0,0,0,1.859-.611A2.145,2.145,0,0,0,8.5-3.674q0-2.312-2.514-2.312Zm0-1.354H5.722a2.675,2.675,0,0,0,1.771-.554,1.855,1.855,0,0,0,.664-1.5,1.824,1.824,0,0,0-.615-1.534,3.026,3.026,0,0,0-1.872-.479h-2.5ZM18.308,0a3.416,3.416,0,0,1-.229-1A3.628,3.628,0,0,1,15.372.176a3.357,3.357,0,0,1-2.307-.8,2.573,2.573,0,0,1-.9-2.017,2.688,2.688,0,0,1,1.129-2.307,5.325,5.325,0,0,1,3.177-.822h1.582v-.747a1.826,1.826,0,0,0-.51-1.358,2.049,2.049,0,0,0-1.5-.505,2.371,2.371,0,0,0-1.459.439,1.3,1.3,0,0,0-.589,1.063H12.357a2.244,2.244,0,0,1,.505-1.375A3.449,3.449,0,0,1,14.234-9.3a4.613,4.613,0,0,1,1.9-.387,3.759,3.759,0,0,1,2.575.822A2.964,2.964,0,0,1,19.679-6.6v4.377a5.351,5.351,0,0,0,.334,2.083V0Zm-2.7-1.239a2.858,2.858,0,0,0,1.45-.4,2.392,2.392,0,0,0,.993-1.028V-4.614H16.778q-2.988,0-2.988,1.749a1.48,1.48,0,0,0,.51,1.2A1.959,1.959,0,0,0,15.609-1.239ZM27.765-2.522a1.2,1.2,0,0,0-.5-1.024,4.78,4.78,0,0,0-1.731-.628,8.186,8.186,0,0,1-1.96-.633A2.788,2.788,0,0,1,22.5-5.687,2.1,2.1,0,0,1,22.157-6.9a2.467,2.467,0,0,1,.989-1.978,3.861,3.861,0,0,1,2.527-.809,3.974,3.974,0,0,1,2.624.835A2.652,2.652,0,0,1,29.3-6.715H27.668A1.468,1.468,0,0,0,27.1-7.866a2.124,2.124,0,0,0-1.428-.483,2.223,2.223,0,0,0-1.389.387,1.217,1.217,0,0,0-.5,1.011.986.986,0,0,0,.466.888,5.731,5.731,0,0,0,1.683.571,8.77,8.77,0,0,1,1.973.65,2.878,2.878,0,0,1,1.121.91,2.237,2.237,0,0,1,.365,1.3,2.434,2.434,0,0,1-1.02,2.043,4.277,4.277,0,0,1-2.646.769,4.789,4.789,0,0,1-2.021-.4,3.288,3.288,0,0,1-1.375-1.129,2.722,2.722,0,0,1-.5-1.569h1.626a1.683,1.683,0,0,0,.655,1.3,2.54,2.54,0,0,0,1.613.479,2.622,2.622,0,0,0,1.481-.374A1.148,1.148,0,0,0,27.765-2.522Zm7.69,2.7a4.155,4.155,0,0,1-3.146-1.27,4.714,4.714,0,0,1-1.213-3.4v-.3a5.707,5.707,0,0,1,.541-2.527,4.217,4.217,0,0,1,1.512-1.74,3.8,3.8,0,0,1,2.1-.628,3.562,3.562,0,0,1,2.883,1.222,5.289,5.289,0,0,1,1.028,3.5v.677H32.722a3.38,3.38,0,0,0,.822,2.272,2.583,2.583,0,0,0,2,.866A2.832,2.832,0,0,0,37-1.5a3.666,3.666,0,0,0,1.046-.932l.993.773A3.993,3.993,0,0,1,35.455.176Zm-.2-8.525a2.169,2.169,0,0,0-1.652.716,3.482,3.482,0,0,0-.826,2.008h4.764v-.123a3.1,3.1,0,0,0-.668-1.92A2.042,2.042,0,0,0,35.253-8.35Z" transform="translate(327.307 1442.999)" fill="#12263f"/>
    <path id="Trazado_900825" data-name="Trazado 900825" d="M9.448,0H1.063V-1.169l4.43-4.922A10.524,10.524,0,0,0,6.851-7.906a3.029,3.029,0,0,0,.374-1.446A2.3,2.3,0,0,0,6.618-11,2.12,2.12,0,0,0,5-11.637a2.511,2.511,0,0,0-1.885.69,2.635,2.635,0,0,0-.672,1.92H.817a3.774,3.774,0,0,1,1.138-2.856A4.219,4.219,0,0,1,5-12.973a4.054,4.054,0,0,1,2.821.936A3.193,3.193,0,0,1,8.859-9.545q0,1.89-2.408,4.5L3.023-1.327H9.448Zm4.4-6h-.954v-6.321l-1.912.7v-.861L13.7-13.5h.149Zm5.9,0h-.954v-6.321l-1.912.7v-.861l2.717-1.02h.149Z" transform="translate(463.05 1442.998)" fill="#12263f"/>
    <path id="Trazado_900826" data-name="Trazado 900826" d="M16.626,13H10.1v-.909L13.55,8.263a8.185,8.185,0,0,0,1.056-1.412A2.356,2.356,0,0,0,14.9,5.727a1.786,1.786,0,0,0-.472-1.278,1.649,1.649,0,0,0-1.258-.5,1.953,1.953,0,0,0-1.466.537,2.05,2.05,0,0,0-.523,1.494H9.913A2.936,2.936,0,0,1,10.8,3.758a3.282,3.282,0,0,1,2.369-.848,3.153,3.153,0,0,1,2.194.728,2.483,2.483,0,0,1,.807,1.938q0,1.47-1.873,3.5l-2.666,2.892h5Zm7.581-4.245a5.784,5.784,0,0,1-.759,3.3,2.7,2.7,0,0,1-2.372,1.08,2.718,2.718,0,0,1-2.358-1.056,5.49,5.49,0,0,1-.793-3.155V7.237a5.655,5.655,0,0,1,.759-3.261A2.719,2.719,0,0,1,21.063,2.91a2.744,2.744,0,0,1,2.365,1.029,5.458,5.458,0,0,1,.779,3.175ZM22.942,7.025a4.634,4.634,0,0,0-.451-2.341,1.553,1.553,0,0,0-1.429-.735,1.532,1.532,0,0,0-1.415.731,4.525,4.525,0,0,0-.458,2.249V8.953a4.708,4.708,0,0,0,.468,2.382,1.55,1.55,0,0,0,1.418.769,1.529,1.529,0,0,0,1.391-.725A4.538,4.538,0,0,0,22.942,9.1Zm8.224,2.632h1.381v1.032H31.166V13H29.895V10.689H25.362V9.944l4.457-6.9h1.347Zm-4.368,0h3.1V4.776l-.15.273ZM39.725,5.645a2.311,2.311,0,0,1-.393,1.326,2.674,2.674,0,0,1-1.063.909,2.853,2.853,0,0,1,1.234.978,2.46,2.46,0,0,1,.455,1.456,2.6,2.6,0,0,1-.872,2.058,3.821,3.821,0,0,1-4.594,0,2.613,2.613,0,0,1-.865-2.054,2.533,2.533,0,0,1,.441-1.456,2.744,2.744,0,0,1,1.22-.984,2.608,2.608,0,0,1-1.046-.909,2.344,2.344,0,0,1-.383-1.319,2.573,2.573,0,0,1,.807-2,3.425,3.425,0,0,1,4.249,0A2.567,2.567,0,0,1,39.725,5.645Zm-1.032,4.642a1.834,1.834,0,0,0-.53-1.36A1.879,1.879,0,0,0,36.778,8.4a1.78,1.78,0,0,0-1.887,1.887,1.767,1.767,0,0,0,.5,1.333,2.245,2.245,0,0,0,2.792,0A1.763,1.763,0,0,0,38.692,10.286Zm-1.9-6.337a1.632,1.632,0,0,0-1.207.461,1.7,1.7,0,0,0-.461,1.254,1.687,1.687,0,0,0,.455,1.227,1.806,1.806,0,0,0,2.427,0,1.687,1.687,0,0,0,.455-1.227,1.687,1.687,0,0,0-.472-1.237A1.609,1.609,0,0,0,36.792,3.949Z" transform="translate(449.05 1468)" fill="#12263f"/>
    <path id="Trazado_900827" data-name="Trazado 900827" d="M16.626,13H10.1v-.909L13.55,8.263a8.185,8.185,0,0,0,1.056-1.412A2.356,2.356,0,0,0,14.9,5.727a1.786,1.786,0,0,0-.472-1.278,1.649,1.649,0,0,0-1.258-.5,1.953,1.953,0,0,0-1.466.537,2.05,2.05,0,0,0-.523,1.494H9.913A2.936,2.936,0,0,1,10.8,3.758a3.282,3.282,0,0,1,2.369-.848,3.153,3.153,0,0,1,2.194.728,2.483,2.483,0,0,1,.807,1.938q0,1.47-1.873,3.5l-2.666,2.892h5Zm7.581-4.245a5.784,5.784,0,0,1-.759,3.3,2.7,2.7,0,0,1-2.372,1.08,2.718,2.718,0,0,1-2.358-1.056,5.49,5.49,0,0,1-.793-3.155V7.237a5.655,5.655,0,0,1,.759-3.261A2.719,2.719,0,0,1,21.063,2.91a2.744,2.744,0,0,1,2.365,1.029,5.458,5.458,0,0,1,.779,3.175ZM22.942,7.025a4.634,4.634,0,0,0-.451-2.341,1.553,1.553,0,0,0-1.429-.735,1.532,1.532,0,0,0-1.415.731,4.525,4.525,0,0,0-.458,2.249V8.953a4.708,4.708,0,0,0,.468,2.382,1.55,1.55,0,0,0,1.418.769,1.529,1.529,0,0,0,1.391-.725A4.538,4.538,0,0,0,22.942,9.1Zm8.224,2.632h1.381v1.032H31.166V13H29.895V10.689H25.362V9.944l4.457-6.9h1.347Zm-4.368,0h3.1V4.776l-.15.273ZM39.725,5.645a2.311,2.311,0,0,1-.393,1.326,2.674,2.674,0,0,1-1.063.909,2.853,2.853,0,0,1,1.234.978,2.46,2.46,0,0,1,.455,1.456,2.6,2.6,0,0,1-.872,2.058,3.821,3.821,0,0,1-4.594,0,2.613,2.613,0,0,1-.865-2.054,2.533,2.533,0,0,1,.441-1.456,2.744,2.744,0,0,1,1.22-.984,2.608,2.608,0,0,1-1.046-.909,2.344,2.344,0,0,1-.383-1.319,2.573,2.573,0,0,1,.807-2,3.425,3.425,0,0,1,4.249,0A2.567,2.567,0,0,1,39.725,5.645Zm-1.032,4.642a1.834,1.834,0,0,0-.53-1.36A1.879,1.879,0,0,0,36.778,8.4a1.78,1.78,0,0,0-1.887,1.887,1.767,1.767,0,0,0,.5,1.333,2.245,2.245,0,0,0,2.792,0A1.763,1.763,0,0,0,38.692,10.286Zm-1.9-6.337a1.632,1.632,0,0,0-1.207.461,1.7,1.7,0,0,0-.461,1.254,1.687,1.687,0,0,0,.455,1.227,1.806,1.806,0,0,0,2.427,0,1.687,1.687,0,0,0,.455-1.227,1.687,1.687,0,0,0-.472-1.237A1.609,1.609,0,0,0,36.792,3.949Z" transform="translate(449.05 1547.998)" fill="#12263f"/>
    <path id="Trazado_900828" data-name="Trazado 900828" d="M26.053,13H24.781V4.571l-2.55.937V4.359L25.854,3h.2Z" transform="translate(449.05 1508)" fill="#12263f"/>
    <path id="Trazado_900829" data-name="Trazado 900829" d="M16.57,13H10.049v-.909l3.445-3.828A8.185,8.185,0,0,0,14.55,6.851a2.356,2.356,0,0,0,.291-1.125,1.786,1.786,0,0,0-.472-1.278,1.649,1.649,0,0,0-1.258-.5,1.953,1.953,0,0,0-1.466.537,2.05,2.05,0,0,0-.523,1.494H9.857a2.936,2.936,0,0,1,.885-2.222,3.282,3.282,0,0,1,2.369-.848,3.153,3.153,0,0,1,2.194.728,2.483,2.483,0,0,1,.807,1.938q0,1.47-1.873,3.5l-2.666,2.892h5Zm5.5,0H20.795V4.571l-2.55.937V4.359L21.868,3h.2Zm4.286-4.99.506-4.963h5.1V4.216H27.931l-.3,2.714A3.212,3.212,0,0,1,29.292,6.5a2.746,2.746,0,0,1,2.16.9,3.523,3.523,0,0,1,.8,2.43,3.4,3.4,0,0,1-.831,2.423,3.027,3.027,0,0,1-2.321.885,3.146,3.146,0,0,1-2.153-.731A2.919,2.919,0,0,1,26,10.382h1.2A2.009,2.009,0,0,0,27.8,11.67a1.892,1.892,0,0,0,1.3.434,1.706,1.706,0,0,0,1.384-.6,2.515,2.515,0,0,0,.5-1.661,2.308,2.308,0,0,0-.543-1.6A1.849,1.849,0,0,0,29,7.634,2.085,2.085,0,0,0,27.7,8l-.335.273ZM39.669,5.645a2.311,2.311,0,0,1-.393,1.326,2.674,2.674,0,0,1-1.063.909,2.853,2.853,0,0,1,1.234.978,2.46,2.46,0,0,1,.455,1.456,2.6,2.6,0,0,1-.872,2.058,3.821,3.821,0,0,1-4.594,0,2.613,2.613,0,0,1-.865-2.054,2.533,2.533,0,0,1,.441-1.456,2.744,2.744,0,0,1,1.22-.984,2.608,2.608,0,0,1-1.046-.909A2.344,2.344,0,0,1,33.8,5.645a2.573,2.573,0,0,1,.807-2,3.425,3.425,0,0,1,4.249,0A2.567,2.567,0,0,1,39.669,5.645Zm-1.032,4.642a1.834,1.834,0,0,0-.53-1.36A1.879,1.879,0,0,0,36.722,8.4a1.78,1.78,0,0,0-1.887,1.887,1.767,1.767,0,0,0,.5,1.333,2.245,2.245,0,0,0,2.792,0A1.763,1.763,0,0,0,38.636,10.286Zm-1.9-6.337a1.632,1.632,0,0,0-1.207.461,1.7,1.7,0,0,0-.461,1.254,1.687,1.687,0,0,0,.455,1.227,1.806,1.806,0,0,0,2.427,0A1.687,1.687,0,0,0,38.4,5.665a1.687,1.687,0,0,0-.472-1.237A1.609,1.609,0,0,0,36.736,3.949Z" transform="translate(1225.981 1547.999)" fill="#12263f"/>
    <path id="Trazado_900830" data-name="Trazado 900830" d="M14.261,13H12.989V4.571l-2.55.937V4.359L14.063,3h.2Zm9.946-4.245a5.784,5.784,0,0,1-.759,3.3,2.7,2.7,0,0,1-2.372,1.08,2.718,2.718,0,0,1-2.358-1.056,5.49,5.49,0,0,1-.793-3.155V7.237a5.655,5.655,0,0,1,.759-3.261A2.719,2.719,0,0,1,21.063,2.91a2.744,2.744,0,0,1,2.365,1.029,5.458,5.458,0,0,1,.779,3.175ZM22.942,7.025a4.634,4.634,0,0,0-.451-2.341,1.553,1.553,0,0,0-1.429-.735,1.532,1.532,0,0,0-1.415.731,4.525,4.525,0,0,0-.458,2.249V8.953a4.708,4.708,0,0,0,.468,2.382,1.55,1.55,0,0,0,1.418.769,1.529,1.529,0,0,0,1.391-.725A4.538,4.538,0,0,0,22.942,9.1ZM32.349,13H25.827v-.909l3.445-3.828a8.185,8.185,0,0,0,1.056-1.412,2.356,2.356,0,0,0,.291-1.125,1.786,1.786,0,0,0-.472-1.278,1.649,1.649,0,0,0-1.258-.5,1.953,1.953,0,0,0-1.466.537A2.05,2.05,0,0,0,26.9,5.979H25.636a2.936,2.936,0,0,1,.885-2.222A3.282,3.282,0,0,1,28.89,2.91a3.153,3.153,0,0,1,2.194.728,2.483,2.483,0,0,1,.807,1.938q0,1.47-1.873,3.5l-2.666,2.892h5Zm6.679-3.343h1.381v1.032H39.027V13H37.756V10.689H33.224V9.944l4.457-6.9h1.347Zm-4.368,0h3.1V4.776l-.15.273Z" transform="translate(515.051 1468)" fill="#12263f"/>
    <path id="Trazado_900831" data-name="Trazado 900831" d="M28.138,8.755a5.784,5.784,0,0,1-.759,3.3,2.7,2.7,0,0,1-2.372,1.08,2.718,2.718,0,0,1-2.358-1.056,5.49,5.49,0,0,1-.793-3.155V7.237a5.655,5.655,0,0,1,.759-3.261A2.719,2.719,0,0,1,24.993,2.91a2.744,2.744,0,0,1,2.365,1.029,5.458,5.458,0,0,1,.779,3.175ZM26.873,7.025a4.634,4.634,0,0,0-.451-2.341,1.553,1.553,0,0,0-1.429-.735,1.532,1.532,0,0,0-1.415.731A4.525,4.525,0,0,0,23.12,6.93V8.953a4.708,4.708,0,0,0,.468,2.382,1.55,1.55,0,0,0,1.418.769A1.529,1.529,0,0,0,26.4,11.38,4.538,4.538,0,0,0,26.873,9.1Z" transform="translate(515.051 1547.998)" fill="#12263f"/>
    <path id="Trazado_900832" data-name="Trazado 900832" d="M28.138,8.755a5.784,5.784,0,0,1-.759,3.3,2.7,2.7,0,0,1-2.372,1.08,2.718,2.718,0,0,1-2.358-1.056,5.49,5.49,0,0,1-.793-3.155V7.237a5.655,5.655,0,0,1,.759-3.261A2.719,2.719,0,0,1,24.993,2.91a2.744,2.744,0,0,1,2.365,1.029,5.458,5.458,0,0,1,.779,3.175ZM26.873,7.025a4.634,4.634,0,0,0-.451-2.341,1.553,1.553,0,0,0-1.429-.735,1.532,1.532,0,0,0-1.415.731A4.525,4.525,0,0,0,23.12,6.93V8.953a4.708,4.708,0,0,0,.468,2.382,1.55,1.55,0,0,0,1.418.769A1.529,1.529,0,0,0,26.4,11.38,4.538,4.538,0,0,0,26.873,9.1Z" transform="translate(515.051 1508)" fill="#12263f"/>
    <path id="Trazado_900833" data-name="Trazado 900833" d="M9.448,0H1.063V-1.169l4.43-4.922A10.524,10.524,0,0,0,6.851-7.906a3.029,3.029,0,0,0,.374-1.446A2.3,2.3,0,0,0,6.618-11,2.12,2.12,0,0,0,5-11.637a2.511,2.511,0,0,0-1.885.69,2.635,2.635,0,0,0-.672,1.92H.817a3.774,3.774,0,0,1,1.138-2.856A4.219,4.219,0,0,1,5-12.973a4.054,4.054,0,0,1,2.821.936A3.193,3.193,0,0,1,8.859-9.545q0,1.89-2.408,4.5L3.023-1.327H9.448Zm4.4-6h-.954v-6.321l-1.912.7v-.861L13.7-13.5h.149ZM21.3-9.184a4.338,4.338,0,0,1-.569,2.476,2.024,2.024,0,0,1-1.779.81,2.039,2.039,0,0,1-1.769-.792,4.117,4.117,0,0,1-.595-2.366v-1.266a4.241,4.241,0,0,1,.569-2.445,2.039,2.039,0,0,1,1.784-.8,2.058,2.058,0,0,1,1.774.772,4.093,4.093,0,0,1,.584,2.381Zm-.948-1.3a3.475,3.475,0,0,0-.338-1.756,1.165,1.165,0,0,0-1.071-.551,1.149,1.149,0,0,0-1.061.549,3.393,3.393,0,0,0-.343,1.687v1.517a3.531,3.531,0,0,0,.351,1.787,1.162,1.162,0,0,0,1.064.577A1.146,1.146,0,0,0,20-7.215a3.4,3.4,0,0,0,.356-1.712Z" transform="translate(529.051 1442.998)" fill="#12263f"/>
    <path id="Trazado_900834" data-name="Trazado 900834" d="M14.616,8.01l.506-4.963h5.1V4.216H16.2l-.3,2.714A3.212,3.212,0,0,1,17.556,6.5a2.746,2.746,0,0,1,2.16.9,3.523,3.523,0,0,1,.8,2.43,3.4,3.4,0,0,1-.831,2.423,3.027,3.027,0,0,1-2.321.885,3.146,3.146,0,0,1-2.153-.731,2.919,2.919,0,0,1-.95-2.023h1.2a2.009,2.009,0,0,0,.608,1.289,1.892,1.892,0,0,0,1.3.434,1.706,1.706,0,0,0,1.384-.6,2.515,2.515,0,0,0,.5-1.661,2.308,2.308,0,0,0-.543-1.6,1.849,1.849,0,0,0-1.446-.6,2.085,2.085,0,0,0-1.3.362l-.335.273ZM26.053,13H24.781V4.571l-2.55.937V4.359L25.854,3h.2Zm10.227,0H29.758v-.909L33.2,8.263a8.185,8.185,0,0,0,1.056-1.412,2.356,2.356,0,0,0,.291-1.125,1.786,1.786,0,0,0-.472-1.278,1.649,1.649,0,0,0-1.258-.5,1.953,1.953,0,0,0-1.466.537,2.05,2.05,0,0,0-.523,1.494H29.566a2.936,2.936,0,0,1,.885-2.222A3.282,3.282,0,0,1,32.82,2.91a3.153,3.153,0,0,1,2.194.728,2.483,2.483,0,0,1,.807,1.938q0,1.47-1.873,3.5l-2.666,2.892h5Z" transform="translate(580.051 1468)" fill="#12263f"/>
    <path id="Trazado_900835" data-name="Trazado 900835" d="M28.138,8.755a5.784,5.784,0,0,1-.759,3.3,2.7,2.7,0,0,1-2.372,1.08,2.718,2.718,0,0,1-2.358-1.056,5.49,5.49,0,0,1-.793-3.155V7.237a5.655,5.655,0,0,1,.759-3.261A2.719,2.719,0,0,1,24.993,2.91a2.744,2.744,0,0,1,2.365,1.029,5.458,5.458,0,0,1,.779,3.175ZM26.873,7.025a4.634,4.634,0,0,0-.451-2.341,1.553,1.553,0,0,0-1.429-.735,1.532,1.532,0,0,0-1.415.731A4.525,4.525,0,0,0,23.12,6.93V8.953a4.708,4.708,0,0,0,.468,2.382,1.55,1.55,0,0,0,1.418.769A1.529,1.529,0,0,0,26.4,11.38,4.538,4.538,0,0,0,26.873,9.1Z" transform="translate(580.051 1547.998)" fill="#12263f"/>
    <path id="Trazado_900836" data-name="Trazado 900836" d="M28.138,8.755a5.784,5.784,0,0,1-.759,3.3,2.7,2.7,0,0,1-2.372,1.08,2.718,2.718,0,0,1-2.358-1.056,5.49,5.49,0,0,1-.793-3.155V7.237a5.655,5.655,0,0,1,.759-3.261A2.719,2.719,0,0,1,24.993,2.91a2.744,2.744,0,0,1,2.365,1.029,5.458,5.458,0,0,1,.779,3.175ZM26.873,7.025a4.634,4.634,0,0,0-.451-2.341,1.553,1.553,0,0,0-1.429-.735,1.532,1.532,0,0,0-1.415.731A4.525,4.525,0,0,0,23.12,6.93V8.953a4.708,4.708,0,0,0,.468,2.382,1.55,1.55,0,0,0,1.418.769A1.529,1.529,0,0,0,26.4,11.38,4.538,4.538,0,0,0,26.873,9.1Z" transform="translate(580.051 1508)" fill="#12263f"/>
    <path id="Trazado_900837" data-name="Trazado 900837" d="M9.448,0H1.063V-1.169l4.43-4.922A10.524,10.524,0,0,0,6.851-7.906a3.029,3.029,0,0,0,.374-1.446A2.3,2.3,0,0,0,6.618-11,2.12,2.12,0,0,0,5-11.637a2.511,2.511,0,0,0-1.885.69,2.635,2.635,0,0,0-.672,1.92H.817a3.774,3.774,0,0,1,1.138-2.856A4.219,4.219,0,0,1,5-12.973a4.054,4.054,0,0,1,2.821.936A3.193,3.193,0,0,1,8.859-9.545q0,1.89-2.408,4.5L3.023-1.327H9.448Zm4.914-9.281a2.321,2.321,0,0,1-.71.569,1.926,1.926,0,0,1-.9.215,1.989,1.989,0,0,1-1.125-.318,2.066,2.066,0,0,1-.741-.895,3.05,3.05,0,0,1-.261-1.274,3.107,3.107,0,0,1,.285-1.348,2.09,2.09,0,0,1,.807-.918,2.3,2.3,0,0,1,1.22-.318,2.085,2.085,0,0,1,1.746.828,3.611,3.611,0,0,1,.638,2.258v.277a4.825,4.825,0,0,1-.861,3.181,3.309,3.309,0,0,1-2.6,1.028h-.185v-.8h.2a2.608,2.608,0,0,0,1.8-.613A2.632,2.632,0,0,0,14.363-9.281Zm-1.461,0a1.465,1.465,0,0,0,.879-.292,1.723,1.723,0,0,0,.587-.723v-.379a2.61,2.61,0,0,0-.405-1.517,1.209,1.209,0,0,0-1.025-.584,1.218,1.218,0,0,0-1,.479,1.977,1.977,0,0,0-.379,1.264,2.058,2.058,0,0,0,.367,1.259A1.161,1.161,0,0,0,12.9-9.281Z" transform="translate(597.051 1442.998)" fill="#12263f"/>
    <path id="Trazado_900838" data-name="Trazado 900838" d="M20.557,13H14.035v-.909L17.48,8.263a8.185,8.185,0,0,0,1.056-1.412,2.356,2.356,0,0,0,.291-1.125,1.786,1.786,0,0,0-.472-1.278,1.649,1.649,0,0,0-1.258-.5,1.953,1.953,0,0,0-1.466.537,2.05,2.05,0,0,0-.523,1.494H13.844a2.936,2.936,0,0,1,.885-2.222A3.282,3.282,0,0,1,17.1,2.91a3.153,3.153,0,0,1,2.194.728A2.483,2.483,0,0,1,20.1,5.576q0,1.47-1.873,3.5L15.56,11.968h5Zm1.921-4.99.506-4.963h5.1V4.216H24.057l-.3,2.714A3.212,3.212,0,0,1,25.417,6.5a2.746,2.746,0,0,1,2.16.9,3.523,3.523,0,0,1,.8,2.43,3.4,3.4,0,0,1-.831,2.423,3.027,3.027,0,0,1-2.321.885,3.146,3.146,0,0,1-2.153-.731,2.919,2.919,0,0,1-.95-2.023h1.2a2.009,2.009,0,0,0,.608,1.289,1.892,1.892,0,0,0,1.3.434,1.706,1.706,0,0,0,1.384-.6,2.515,2.515,0,0,0,.5-1.661,2.308,2.308,0,0,0-.543-1.6,1.849,1.849,0,0,0-1.446-.6,2.085,2.085,0,0,0-1.3.362l-.335.273ZM34.721,3.04V4.113h-.232a3.33,3.33,0,0,0-2.352.875,3.641,3.641,0,0,0-1.012,2.386,2.7,2.7,0,0,1,2.146-.9,2.581,2.581,0,0,1,2.075.916,3.533,3.533,0,0,1,.776,2.365,3.522,3.522,0,0,1-.837,2.461,2.883,2.883,0,0,1-2.246.923,2.841,2.841,0,0,1-2.317-1.1,4.348,4.348,0,0,1-.889-2.827V8.728a6.552,6.552,0,0,1,1.172-4.2A4.306,4.306,0,0,1,34.5,3.04ZM33.06,7.524A2.125,2.125,0,0,0,31.1,8.892v.465a3.265,3.265,0,0,0,.554,1.982,1.659,1.659,0,0,0,1.381.752,1.608,1.608,0,0,0,1.343-.629,2.61,2.61,0,0,0,.489-1.647,2.61,2.61,0,0,0-.5-1.658A1.589,1.589,0,0,0,33.06,7.524Z" transform="translate(645.051 1468)" fill="#12263f"/>
    <path id="Trazado_900839" data-name="Trazado 900839" d="M28.138,8.755a5.784,5.784,0,0,1-.759,3.3,2.7,2.7,0,0,1-2.372,1.08,2.718,2.718,0,0,1-2.358-1.056,5.49,5.49,0,0,1-.793-3.155V7.237a5.655,5.655,0,0,1,.759-3.261A2.719,2.719,0,0,1,24.993,2.91a2.744,2.744,0,0,1,2.365,1.029,5.458,5.458,0,0,1,.779,3.175ZM26.873,7.025a4.634,4.634,0,0,0-.451-2.341,1.553,1.553,0,0,0-1.429-.735,1.532,1.532,0,0,0-1.415.731A4.525,4.525,0,0,0,23.12,6.93V8.953a4.708,4.708,0,0,0,.468,2.382,1.55,1.55,0,0,0,1.418.769A1.529,1.529,0,0,0,26.4,11.38,4.538,4.538,0,0,0,26.873,9.1Z" transform="translate(645.051 1547.998)" fill="#12263f"/>
    <path id="Trazado_900840" data-name="Trazado 900840" d="M28.138,8.755a5.784,5.784,0,0,1-.759,3.3,2.7,2.7,0,0,1-2.372,1.08,2.718,2.718,0,0,1-2.358-1.056,5.49,5.49,0,0,1-.793-3.155V7.237a5.655,5.655,0,0,1,.759-3.261A2.719,2.719,0,0,1,24.993,2.91a2.744,2.744,0,0,1,2.365,1.029,5.458,5.458,0,0,1,.779,3.175ZM26.873,7.025a4.634,4.634,0,0,0-.451-2.341,1.553,1.553,0,0,0-1.429-.735,1.532,1.532,0,0,0-1.415.731A4.525,4.525,0,0,0,23.12,6.93V8.953a4.708,4.708,0,0,0,.468,2.382,1.55,1.55,0,0,0,1.418.769A1.529,1.529,0,0,0,26.4,11.38,4.538,4.538,0,0,0,26.873,9.1Z" transform="translate(645.051 1508)" fill="#12263f"/>
    <path id="Trazado_900841" data-name="Trazado 900841" d="M9.448,0H1.063V-1.169l4.43-4.922A10.524,10.524,0,0,0,6.851-7.906a3.029,3.029,0,0,0,.374-1.446A2.3,2.3,0,0,0,6.618-11,2.12,2.12,0,0,0,5-11.637a2.511,2.511,0,0,0-1.885.69,2.635,2.635,0,0,0-.672,1.92H.817a3.774,3.774,0,0,1,1.138-2.856A4.219,4.219,0,0,1,5-12.973a4.054,4.054,0,0,1,2.821.936A3.193,3.193,0,0,1,8.859-9.545q0,1.89-2.408,4.5L3.023-1.327H9.448Zm5.806-11.516a1.733,1.733,0,0,1-.295.995,2.006,2.006,0,0,1-.8.682,2.139,2.139,0,0,1,.925.733,1.845,1.845,0,0,1,.341,1.092,1.951,1.951,0,0,1-.654,1.543,2.511,2.511,0,0,1-1.72.574,2.5,2.5,0,0,1-1.725-.577,1.96,1.96,0,0,1-.649-1.541,1.9,1.9,0,0,1,.331-1.092,2.058,2.058,0,0,1,.915-.738,1.956,1.956,0,0,1-.784-.682,1.758,1.758,0,0,1-.287-.989,1.929,1.929,0,0,1,.6-1.5,2.269,2.269,0,0,1,1.594-.554,2.271,2.271,0,0,1,1.592.554A1.925,1.925,0,0,1,15.255-11.516ZM14.48-8.035a1.376,1.376,0,0,0-.4-1.02,1.409,1.409,0,0,0-1.038-.395,1.384,1.384,0,0,0-1.028.39,1.391,1.391,0,0,0-.387,1.025,1.325,1.325,0,0,0,.377,1,1.446,1.446,0,0,0,1.048.364A1.442,1.442,0,0,0,14.1-7.038,1.322,1.322,0,0,0,14.48-8.035Zm-1.425-4.752a1.224,1.224,0,0,0-.9.346,1.271,1.271,0,0,0-.346.941,1.265,1.265,0,0,0,.341.92,1.21,1.21,0,0,0,.91.351,1.21,1.21,0,0,0,.91-.351,1.265,1.265,0,0,0,.341-.92,1.266,1.266,0,0,0-.354-.928A1.207,1.207,0,0,0,13.055-12.788Z" transform="translate(662.051 1442.998)" fill="#12263f"/>
    <path id="Trazado_900842" data-name="Trazado 900842" d="M18.191,13H16.92V4.571l-2.55.937V4.359L17.993,3h.2Zm10.227,0H21.9v-.909l3.445-3.828A8.185,8.185,0,0,0,26.4,6.851a2.356,2.356,0,0,0,.291-1.125,1.786,1.786,0,0,0-.472-1.278,1.649,1.649,0,0,0-1.258-.5,1.953,1.953,0,0,0-1.466.537,2.05,2.05,0,0,0-.523,1.494H21.705a2.936,2.936,0,0,1,.885-2.222,3.282,3.282,0,0,1,2.369-.848,3.153,3.153,0,0,1,2.194.728,2.483,2.483,0,0,1,.807,1.938q0,1.47-1.873,3.5l-2.666,2.892h5Zm7.376-7.355A2.311,2.311,0,0,1,35.4,6.971a2.674,2.674,0,0,1-1.063.909,2.853,2.853,0,0,1,1.234.978,2.46,2.46,0,0,1,.455,1.456,2.6,2.6,0,0,1-.872,2.058,3.821,3.821,0,0,1-4.594,0,2.613,2.613,0,0,1-.865-2.054,2.533,2.533,0,0,1,.441-1.456,2.744,2.744,0,0,1,1.22-.984,2.608,2.608,0,0,1-1.046-.909,2.344,2.344,0,0,1-.383-1.319,2.573,2.573,0,0,1,.807-2,3.425,3.425,0,0,1,4.249,0A2.567,2.567,0,0,1,35.794,5.645Zm-1.032,4.642a1.834,1.834,0,0,0-.53-1.36A1.879,1.879,0,0,0,32.848,8.4a1.78,1.78,0,0,0-1.887,1.887,1.767,1.767,0,0,0,.5,1.333,2.245,2.245,0,0,0,2.792,0A1.763,1.763,0,0,0,34.762,10.286Zm-1.9-6.337a1.632,1.632,0,0,0-1.207.461,1.7,1.7,0,0,0-.461,1.254,1.687,1.687,0,0,0,.455,1.227,1.806,1.806,0,0,0,2.427,0,1.687,1.687,0,0,0,.455-1.227,1.687,1.687,0,0,0-.472-1.237A1.609,1.609,0,0,0,32.861,3.949Z" transform="translate(711.051 1468)" fill="#12263f"/>
    <path id="Trazado_900843" data-name="Trazado 900843" d="M28.138,8.755a5.784,5.784,0,0,1-.759,3.3,2.7,2.7,0,0,1-2.372,1.08,2.718,2.718,0,0,1-2.358-1.056,5.49,5.49,0,0,1-.793-3.155V7.237a5.655,5.655,0,0,1,.759-3.261A2.719,2.719,0,0,1,24.993,2.91a2.744,2.744,0,0,1,2.365,1.029,5.458,5.458,0,0,1,.779,3.175ZM26.873,7.025a4.634,4.634,0,0,0-.451-2.341,1.553,1.553,0,0,0-1.429-.735,1.532,1.532,0,0,0-1.415.731A4.525,4.525,0,0,0,23.12,6.93V8.953a4.708,4.708,0,0,0,.468,2.382,1.55,1.55,0,0,0,1.418.769A1.529,1.529,0,0,0,26.4,11.38,4.538,4.538,0,0,0,26.873,9.1Z" transform="translate(711.051 1547.998)" fill="#12263f"/>
    <path id="Trazado_900844" data-name="Trazado 900844" d="M28.138,8.755a5.784,5.784,0,0,1-.759,3.3,2.7,2.7,0,0,1-2.372,1.08,2.718,2.718,0,0,1-2.358-1.056,5.49,5.49,0,0,1-.793-3.155V7.237a5.655,5.655,0,0,1,.759-3.261A2.719,2.719,0,0,1,24.993,2.91a2.744,2.744,0,0,1,2.365,1.029,5.458,5.458,0,0,1,.779,3.175ZM26.873,7.025a4.634,4.634,0,0,0-.451-2.341,1.553,1.553,0,0,0-1.429-.735,1.532,1.532,0,0,0-1.415.731A4.525,4.525,0,0,0,23.12,6.93V8.953a4.708,4.708,0,0,0,.468,2.382,1.55,1.55,0,0,0,1.418.769A1.529,1.529,0,0,0,26.4,11.38,4.538,4.538,0,0,0,26.873,9.1Z" transform="translate(711.051 1508)" fill="#12263f"/>
    <path id="Trazado_900845" data-name="Trazado 900845" d="M9.448,0H1.063V-1.169l4.43-4.922A10.524,10.524,0,0,0,6.851-7.906a3.029,3.029,0,0,0,.374-1.446A2.3,2.3,0,0,0,6.618-11,2.12,2.12,0,0,0,5-11.637a2.511,2.511,0,0,0-1.885.69,2.635,2.635,0,0,0-.672,1.92H.817a3.774,3.774,0,0,1,1.138-2.856A4.219,4.219,0,0,1,5-12.973a4.054,4.054,0,0,1,2.821.936A3.193,3.193,0,0,1,8.859-9.545q0,1.89-2.408,4.5L3.023-1.327H9.448Zm6.1-12.931L12.455-6h-.995l3.081-6.685H10.5v-.779h5.045Z" transform="translate(728.051 1442.998)" fill="#12263f"/>
    <path id="Trazado_900846" data-name="Trazado 900846" d="M22.929,3.04V4.113H22.7a3.33,3.33,0,0,0-2.352.875,3.641,3.641,0,0,0-1.012,2.386,2.7,2.7,0,0,1,2.146-.9,2.581,2.581,0,0,1,2.075.916,3.533,3.533,0,0,1,.776,2.365,3.522,3.522,0,0,1-.837,2.461,2.883,2.883,0,0,1-2.246.923,2.841,2.841,0,0,1-2.317-1.1,4.348,4.348,0,0,1-.889-2.827V8.728a6.552,6.552,0,0,1,1.172-4.2A4.306,4.306,0,0,1,22.7,3.04ZM21.268,7.524a2.125,2.125,0,0,0-1.955,1.367v.465a3.265,3.265,0,0,0,.554,1.982,1.659,1.659,0,0,0,1.381.752,1.608,1.608,0,0,0,1.343-.629,2.61,2.61,0,0,0,.489-1.647,2.61,2.61,0,0,0-.5-1.658A1.589,1.589,0,0,0,21.268,7.524Zm9.9,2.133h1.381v1.032H31.166V13H29.895V10.689H25.362V9.944l4.457-6.9h1.347Zm-4.368,0h3.1V4.776l-.15.273Z" transform="translate(776.051 1468)" fill="#12263f"/>
    <path id="Trazado_900847" data-name="Trazado 900847" d="M22.929,3.04V4.113H22.7a3.33,3.33,0,0,0-2.352.875,3.641,3.641,0,0,0-1.012,2.386,2.7,2.7,0,0,1,2.146-.9,2.581,2.581,0,0,1,2.075.916,3.533,3.533,0,0,1,.776,2.365,3.522,3.522,0,0,1-.837,2.461,2.883,2.883,0,0,1-2.246.923,2.841,2.841,0,0,1-2.317-1.1,4.348,4.348,0,0,1-.889-2.827V8.728a6.552,6.552,0,0,1,1.172-4.2A4.306,4.306,0,0,1,22.7,3.04ZM21.268,7.524a2.125,2.125,0,0,0-1.955,1.367v.465a3.265,3.265,0,0,0,.554,1.982,1.659,1.659,0,0,0,1.381.752,1.608,1.608,0,0,0,1.343-.629,2.61,2.61,0,0,0,.489-1.647,2.61,2.61,0,0,0-.5-1.658A1.589,1.589,0,0,0,21.268,7.524Zm9.9,2.133h1.381v1.032H31.166V13H29.895V10.689H25.362V9.944l4.457-6.9h1.347Zm-4.368,0h3.1V4.776l-.15.273Z" transform="translate(776.051 1547.998)" fill="#12263f"/>
    <path id="Trazado_900848" data-name="Trazado 900848" d="M26.053,13H24.781V4.571l-2.55.937V4.359L25.854,3h.2Z" transform="translate(776.051 1508)" fill="#12263f"/>
    <path id="Trazado_900849" data-name="Trazado 900849" d="M9.448,0H1.063V-1.169l4.43-4.922A10.524,10.524,0,0,0,6.851-7.906a3.029,3.029,0,0,0,.374-1.446A2.3,2.3,0,0,0,6.618-11,2.12,2.12,0,0,0,5-11.637a2.511,2.511,0,0,0-1.885.69,2.635,2.635,0,0,0-.672,1.92H.817a3.774,3.774,0,0,1,1.138-2.856A4.219,4.219,0,0,1,5-12.973a4.054,4.054,0,0,1,2.821.936A3.193,3.193,0,0,1,8.859-9.545q0,1.89-2.408,4.5L3.023-1.327H9.448Zm5-13.47v.8h-.174a2.5,2.5,0,0,0-1.764.656,2.731,2.731,0,0,0-.759,1.789,2.024,2.024,0,0,1,1.61-.677,1.936,1.936,0,0,1,1.556.687A2.65,2.65,0,0,1,15.5-8.435a2.641,2.641,0,0,1-.628,1.846,2.162,2.162,0,0,1-1.684.692,2.131,2.131,0,0,1-1.738-.823,3.261,3.261,0,0,1-.666-2.12V-9.2a4.914,4.914,0,0,1,.879-3.15,3.229,3.229,0,0,1,2.617-1.115ZM13.2-10.106a1.513,1.513,0,0,0-.9.292,1.523,1.523,0,0,0-.569.733v.349a2.449,2.449,0,0,0,.415,1.487,1.244,1.244,0,0,0,1.036.564A1.206,1.206,0,0,0,14.2-7.153a1.957,1.957,0,0,0,.367-1.236,1.958,1.958,0,0,0-.372-1.243A1.191,1.191,0,0,0,13.2-10.106Z" transform="translate(793.05 1442.998)" fill="#12263f"/>
    <path id="Trazado_900850" data-name="Trazado 900850" d="M19.8,7.408h.95a2.088,2.088,0,0,0,1.408-.472A1.576,1.576,0,0,0,22.676,5.7a1.544,1.544,0,0,0-1.743-1.75,1.813,1.813,0,0,0-1.309.468,1.639,1.639,0,0,0-.489,1.241H17.87a2.539,2.539,0,0,1,.865-1.965,3.15,3.15,0,0,1,2.2-.783,3.113,3.113,0,0,1,2.208.745,2.692,2.692,0,0,1,.8,2.071,2.185,2.185,0,0,1-.42,1.258,2.538,2.538,0,0,1-1.145.909,2.446,2.446,0,0,1,1.268.861,2.392,2.392,0,0,1,.448,1.47,2.715,2.715,0,0,1-.875,2.126,3.277,3.277,0,0,1-2.276.786,3.363,3.363,0,0,1-2.28-.759,2.517,2.517,0,0,1-.878-2h1.271a1.627,1.627,0,0,0,.513,1.258,1.95,1.95,0,0,0,1.374.472,1.914,1.914,0,0,0,1.4-.479,1.844,1.844,0,0,0,.485-1.374,1.673,1.673,0,0,0-.533-1.333,2.323,2.323,0,0,0-1.538-.479H19.8ZM32.349,13H25.827v-.909l3.445-3.828a8.185,8.185,0,0,0,1.056-1.412,2.356,2.356,0,0,0,.291-1.125,1.786,1.786,0,0,0-.472-1.278,1.649,1.649,0,0,0-1.258-.5,1.953,1.953,0,0,0-1.466.537A2.05,2.05,0,0,0,26.9,5.979H25.636a2.936,2.936,0,0,1,.885-2.222A3.282,3.282,0,0,1,28.89,2.91a3.153,3.153,0,0,1,2.194.728,2.483,2.483,0,0,1,.807,1.938q0,1.47-1.873,3.5l-2.666,2.892h5Z" transform="translate(842.051 1468)" fill="#12263f"/>
    <path id="Trazado_900851" data-name="Trazado 900851" d="M19.8,7.408h.95a2.088,2.088,0,0,0,1.408-.472A1.576,1.576,0,0,0,22.676,5.7a1.544,1.544,0,0,0-1.743-1.75,1.813,1.813,0,0,0-1.309.468,1.639,1.639,0,0,0-.489,1.241H17.87a2.539,2.539,0,0,1,.865-1.965,3.15,3.15,0,0,1,2.2-.783,3.113,3.113,0,0,1,2.208.745,2.692,2.692,0,0,1,.8,2.071,2.185,2.185,0,0,1-.42,1.258,2.538,2.538,0,0,1-1.145.909,2.446,2.446,0,0,1,1.268.861,2.392,2.392,0,0,1,.448,1.47,2.715,2.715,0,0,1-.875,2.126,3.277,3.277,0,0,1-2.276.786,3.363,3.363,0,0,1-2.28-.759,2.517,2.517,0,0,1-.878-2h1.271a1.627,1.627,0,0,0,.513,1.258,1.95,1.95,0,0,0,1.374.472,1.914,1.914,0,0,0,1.4-.479,1.844,1.844,0,0,0,.485-1.374,1.673,1.673,0,0,0-.533-1.333,2.323,2.323,0,0,0-1.538-.479H19.8ZM32.349,13H25.827v-.909l3.445-3.828a8.185,8.185,0,0,0,1.056-1.412,2.356,2.356,0,0,0,.291-1.125,1.786,1.786,0,0,0-.472-1.278,1.649,1.649,0,0,0-1.258-.5,1.953,1.953,0,0,0-1.466.537A2.05,2.05,0,0,0,26.9,5.979H25.636a2.936,2.936,0,0,1,.885-2.222A3.282,3.282,0,0,1,28.89,2.91a3.153,3.153,0,0,1,2.194.728,2.483,2.483,0,0,1,.807,1.938q0,1.47-1.873,3.5l-2.666,2.892h5Z" transform="translate(842.051 1547.998)" fill="#12263f"/>
    <path id="Trazado_900852" data-name="Trazado 900852" d="M26.053,13H24.781V4.571l-2.55.937V4.359L25.854,3h.2Z" transform="translate(842.051 1508)" fill="#12263f"/>
    <path id="Trazado_900853" data-name="Trazado 900853" d="M9.448,0H1.063V-1.169l4.43-4.922A10.524,10.524,0,0,0,6.851-7.906a3.029,3.029,0,0,0,.374-1.446A2.3,2.3,0,0,0,6.618-11,2.12,2.12,0,0,0,5-11.637a2.511,2.511,0,0,0-1.885.69,2.635,2.635,0,0,0-.672,1.92H.817a3.774,3.774,0,0,1,1.138-2.856A4.219,4.219,0,0,1,5-12.973a4.054,4.054,0,0,1,2.821.936A3.193,3.193,0,0,1,8.859-9.545q0,1.89-2.408,4.5L3.023-1.327H9.448Zm1.715-9.742.379-3.722h3.824v.877h-3.02l-.226,2.035a2.409,2.409,0,0,1,1.246-.323,2.059,2.059,0,0,1,1.62.674,2.642,2.642,0,0,1,.6,1.823,2.55,2.55,0,0,1-.623,1.817,2.27,2.27,0,0,1-1.741.664,2.359,2.359,0,0,1-1.615-.549A2.189,2.189,0,0,1,10.9-7.964h.9A1.506,1.506,0,0,0,12.25-7a1.419,1.419,0,0,0,.974.326,1.28,1.28,0,0,0,1.038-.451,1.886,1.886,0,0,0,.377-1.246,1.731,1.731,0,0,0-.408-1.2,1.386,1.386,0,0,0-1.084-.454,1.564,1.564,0,0,0-.974.272l-.251.205Z" transform="translate(859.05 1442.998)" fill="#12263f"/>
    <path id="Trazado_900854" data-name="Trazado 900854" d="M22.122,13H20.851V4.571l-2.55.937V4.359L21.924,3h.2ZM30.79,3.04V4.113h-.232a3.33,3.33,0,0,0-2.352.875,3.641,3.641,0,0,0-1.012,2.386,2.7,2.7,0,0,1,2.146-.9,2.581,2.581,0,0,1,2.075.916,3.533,3.533,0,0,1,.776,2.365,3.522,3.522,0,0,1-.837,2.461,2.883,2.883,0,0,1-2.246.923,2.841,2.841,0,0,1-2.317-1.1A4.348,4.348,0,0,1,25.9,9.213V8.728a6.552,6.552,0,0,1,1.172-4.2,4.306,4.306,0,0,1,3.49-1.487ZM29.129,7.524a2.125,2.125,0,0,0-1.955,1.367v.465a3.265,3.265,0,0,0,.554,1.982,1.659,1.659,0,0,0,1.381.752,1.608,1.608,0,0,0,1.343-.629,2.61,2.61,0,0,0,.489-1.647,2.61,2.61,0,0,0-.5-1.658A1.589,1.589,0,0,0,29.129,7.524Z" transform="translate(907.05 1468)" fill="#12263f"/>
    <path id="Trazado_900855" data-name="Trazado 900855" d="M28.138,8.755a5.784,5.784,0,0,1-.759,3.3,2.7,2.7,0,0,1-2.372,1.08,2.718,2.718,0,0,1-2.358-1.056,5.49,5.49,0,0,1-.793-3.155V7.237a5.655,5.655,0,0,1,.759-3.261A2.719,2.719,0,0,1,24.993,2.91a2.744,2.744,0,0,1,2.365,1.029,5.458,5.458,0,0,1,.779,3.175ZM26.873,7.025a4.634,4.634,0,0,0-.451-2.341,1.553,1.553,0,0,0-1.429-.735,1.532,1.532,0,0,0-1.415.731A4.525,4.525,0,0,0,23.12,6.93V8.953a4.708,4.708,0,0,0,.468,2.382,1.55,1.55,0,0,0,1.418.769A1.529,1.529,0,0,0,26.4,11.38,4.538,4.538,0,0,0,26.873,9.1Z" transform="translate(907.05 1547.998)" fill="#12263f"/>
    <path id="Trazado_900856" data-name="Trazado 900856" d="M28.138,8.755a5.784,5.784,0,0,1-.759,3.3,2.7,2.7,0,0,1-2.372,1.08,2.718,2.718,0,0,1-2.358-1.056,5.49,5.49,0,0,1-.793-3.155V7.237a5.655,5.655,0,0,1,.759-3.261A2.719,2.719,0,0,1,24.993,2.91a2.744,2.744,0,0,1,2.365,1.029,5.458,5.458,0,0,1,.779,3.175ZM26.873,7.025a4.634,4.634,0,0,0-.451-2.341,1.553,1.553,0,0,0-1.429-.735,1.532,1.532,0,0,0-1.415.731A4.525,4.525,0,0,0,23.12,6.93V8.953a4.708,4.708,0,0,0,.468,2.382,1.55,1.55,0,0,0,1.418.769A1.529,1.529,0,0,0,26.4,11.38,4.538,4.538,0,0,0,26.873,9.1Z" transform="translate(907.05 1508)" fill="#12263f"/>
    <path id="Trazado_900857" data-name="Trazado 900857" d="M9.448,0H1.063V-1.169l4.43-4.922A10.524,10.524,0,0,0,6.851-7.906a3.029,3.029,0,0,0,.374-1.446A2.3,2.3,0,0,0,6.618-11,2.12,2.12,0,0,0,5-11.637a2.511,2.511,0,0,0-1.885.69,2.635,2.635,0,0,0-.672,1.92H.817a3.774,3.774,0,0,1,1.138-2.856A4.219,4.219,0,0,1,5-12.973a4.054,4.054,0,0,1,2.821.936A3.193,3.193,0,0,1,8.859-9.545q0,1.89-2.408,4.5L3.023-1.327H9.448Zm5.283-8.507h1.036v.774H14.732V-6h-.954V-7.733h-3.4v-.559l3.343-5.173h1.01Zm-3.276,0h2.322v-3.66l-.113.205Z" transform="translate(924.05 1442.998)" fill="#12263f"/>
    <path id="Trazado_900858" data-name="Trazado 900858" d="M27.933,5.645a2.311,2.311,0,0,1-.393,1.326,2.674,2.674,0,0,1-1.063.909,2.853,2.853,0,0,1,1.234.978,2.46,2.46,0,0,1,.455,1.456,2.6,2.6,0,0,1-.872,2.058A3.349,3.349,0,0,1,25,13.137a3.334,3.334,0,0,1-2.3-.769,2.613,2.613,0,0,1-.865-2.054,2.533,2.533,0,0,1,.441-1.456,2.744,2.744,0,0,1,1.22-.984,2.608,2.608,0,0,1-1.046-.909,2.344,2.344,0,0,1-.383-1.319,2.573,2.573,0,0,1,.807-2A3.026,3.026,0,0,1,25,2.91a3.029,3.029,0,0,1,2.123.738A2.567,2.567,0,0,1,27.933,5.645ZM26.9,10.286a1.834,1.834,0,0,0-.53-1.36A1.879,1.879,0,0,0,24.986,8.4,1.78,1.78,0,0,0,23.1,10.286a1.767,1.767,0,0,0,.5,1.333,2.245,2.245,0,0,0,2.792,0A1.763,1.763,0,0,0,26.9,10.286ZM25,3.949a1.632,1.632,0,0,0-1.207.461,1.7,1.7,0,0,0-.461,1.254,1.687,1.687,0,0,0,.455,1.227,1.806,1.806,0,0,0,2.427,0,1.687,1.687,0,0,0,.455-1.227A1.687,1.687,0,0,0,26.2,4.428,1.609,1.609,0,0,0,25,3.949Z" transform="translate(973.051 1468)" fill="#12263f"/>
    <path id="Trazado_900859" data-name="Trazado 900859" d="M27.933,5.645a2.311,2.311,0,0,1-.393,1.326,2.674,2.674,0,0,1-1.063.909,2.853,2.853,0,0,1,1.234.978,2.46,2.46,0,0,1,.455,1.456,2.6,2.6,0,0,1-.872,2.058A3.349,3.349,0,0,1,25,13.137a3.334,3.334,0,0,1-2.3-.769,2.613,2.613,0,0,1-.865-2.054,2.533,2.533,0,0,1,.441-1.456,2.744,2.744,0,0,1,1.22-.984,2.608,2.608,0,0,1-1.046-.909,2.344,2.344,0,0,1-.383-1.319,2.573,2.573,0,0,1,.807-2A3.026,3.026,0,0,1,25,2.91a3.029,3.029,0,0,1,2.123.738A2.567,2.567,0,0,1,27.933,5.645ZM26.9,10.286a1.834,1.834,0,0,0-.53-1.36A1.879,1.879,0,0,0,24.986,8.4,1.78,1.78,0,0,0,23.1,10.286a1.767,1.767,0,0,0,.5,1.333,2.245,2.245,0,0,0,2.792,0A1.763,1.763,0,0,0,26.9,10.286ZM25,3.949a1.632,1.632,0,0,0-1.207.461,1.7,1.7,0,0,0-.461,1.254,1.687,1.687,0,0,0,.455,1.227,1.806,1.806,0,0,0,2.427,0,1.687,1.687,0,0,0,.455-1.227A1.687,1.687,0,0,0,26.2,4.428,1.609,1.609,0,0,0,25,3.949Z" transform="translate(973.051 1547.998)" fill="#12263f"/>
    <path id="Trazado_900860" data-name="Trazado 900860" d="M26.053,13H24.781V4.571l-2.55.937V4.359L25.854,3h.2Z" transform="translate(973.051 1508)" fill="#12263f"/>
    <path id="Trazado_900861" data-name="Trazado 900861" d="M9.448,0H1.063V-1.169l4.43-4.922A10.524,10.524,0,0,0,6.851-7.906a3.029,3.029,0,0,0,.374-1.446A2.3,2.3,0,0,0,6.618-11,2.12,2.12,0,0,0,5-11.637a2.511,2.511,0,0,0-1.885.69,2.635,2.635,0,0,0-.672,1.92H.817a3.774,3.774,0,0,1,1.138-2.856A4.219,4.219,0,0,1,5-12.973a4.054,4.054,0,0,1,2.821.936A3.193,3.193,0,0,1,8.859-9.545q0,1.89-2.408,4.5L3.023-1.327H9.448Zm2.659-10.194h.713a1.566,1.566,0,0,0,1.056-.354,1.182,1.182,0,0,0,.384-.928,1.158,1.158,0,0,0-1.307-1.312,1.36,1.36,0,0,0-.982.351,1.229,1.229,0,0,0-.367.93h-.948A1.9,1.9,0,0,1,11.3-12.98a2.363,2.363,0,0,1,1.648-.587,2.335,2.335,0,0,1,1.656.559,2.019,2.019,0,0,1,.6,1.553,1.639,1.639,0,0,1-.315.943,1.9,1.9,0,0,1-.859.682,1.834,1.834,0,0,1,.951.646,1.794,1.794,0,0,1,.336,1.1,2.036,2.036,0,0,1-.656,1.594,2.457,2.457,0,0,1-1.707.59,2.522,2.522,0,0,1-1.71-.569,1.888,1.888,0,0,1-.659-1.5h.954a1.22,1.22,0,0,0,.384.943,1.462,1.462,0,0,0,1.03.354,1.435,1.435,0,0,0,1.051-.359,1.383,1.383,0,0,0,.364-1.03,1.255,1.255,0,0,0-.4-1,1.742,1.742,0,0,0-1.153-.359h-.713Z" transform="translate(990.05 1442.998)" fill="#12263f"/>
    <path id="Trazado_900862" data-name="Trazado 900862" d="M27.235,9.657h1.381v1.032H27.235V13H25.964V10.689H21.432V9.944l4.457-6.9h1.347Zm-4.368,0h3.1V4.776l-.15.273Z" transform="translate(1039.05 1468)" fill="#12263f"/>
    <path id="Trazado_900863" data-name="Trazado 900863" d="M27.235,9.657h1.381v1.032H27.235V13H25.964V10.689H21.432V9.944l4.457-6.9h1.347Zm-4.368,0h3.1V4.776l-.15.273Z" transform="translate(1039.05 1547.998)" fill="#12263f"/>
    <path id="Trazado_900864" data-name="Trazado 900864" d="M26.053,13H24.781V4.571l-2.55.937V4.359L25.854,3h.2Z" transform="translate(1039.05 1508)" fill="#12263f"/>
    <path id="Trazado_900865" data-name="Trazado 900865" d="M9.448,0H1.063V-1.169l4.43-4.922A10.524,10.524,0,0,0,6.851-7.906a3.029,3.029,0,0,0,.374-1.446A2.3,2.3,0,0,0,6.618-11,2.12,2.12,0,0,0,5-11.637a2.511,2.511,0,0,0-1.885.69,2.635,2.635,0,0,0-.672,1.92H.817a3.774,3.774,0,0,1,1.138-2.856A4.219,4.219,0,0,1,5-12.973a4.054,4.054,0,0,1,2.821.936A3.193,3.193,0,0,1,8.859-9.545q0,1.89-2.408,4.5L3.023-1.327H9.448Zm6.17-6H10.728v-.682l2.584-2.871a6.138,6.138,0,0,0,.792-1.059,1.767,1.767,0,0,0,.218-.843,1.339,1.339,0,0,0-.354-.959,1.237,1.237,0,0,0-.943-.374,1.465,1.465,0,0,0-1.1.4,1.537,1.537,0,0,0-.392,1.12h-.948a2.2,2.2,0,0,1,.664-1.666,2.461,2.461,0,0,1,1.776-.636,2.365,2.365,0,0,1,1.646.546,1.862,1.862,0,0,1,.6,1.453,4.27,4.27,0,0,1-1.4,2.625l-2,2.169h3.748Z" transform="translate(1056.05 1442.998)" fill="#12263f"/>
    <path id="Trazado_900866" data-name="Trazado 900866" d="M28.418,13H21.9v-.909l3.445-3.828A8.185,8.185,0,0,0,26.4,6.851a2.356,2.356,0,0,0,.291-1.125,1.786,1.786,0,0,0-.472-1.278,1.649,1.649,0,0,0-1.258-.5,1.953,1.953,0,0,0-1.466.537,2.05,2.05,0,0,0-.523,1.494H21.705a2.936,2.936,0,0,1,.885-2.222,3.282,3.282,0,0,1,2.369-.848,3.153,3.153,0,0,1,2.194.728,2.483,2.483,0,0,1,.807,1.938q0,1.47-1.873,3.5l-2.666,2.892h5Z" transform="translate(1103.051 1468)" fill="#12263f"/>
    <path id="Trazado_900867" data-name="Trazado 900867" d="M28.418,13H21.9v-.909l3.445-3.828A8.185,8.185,0,0,0,26.4,6.851a2.356,2.356,0,0,0,.291-1.125,1.786,1.786,0,0,0-.472-1.278,1.649,1.649,0,0,0-1.258-.5,1.953,1.953,0,0,0-1.466.537,2.05,2.05,0,0,0-.523,1.494H21.705a2.936,2.936,0,0,1,.885-2.222,3.282,3.282,0,0,1,2.369-.848,3.153,3.153,0,0,1,2.194.728,2.483,2.483,0,0,1,.807,1.938q0,1.47-1.873,3.5l-2.666,2.892h5Z" transform="translate(1103.051 1547.998)" fill="#12263f"/>
    <path id="Trazado_900868" data-name="Trazado 900868" d="M26.053,13H24.781V4.571l-2.55.937V4.359L25.854,3h.2Z" transform="translate(1103.051 1508)" fill="#12263f"/>
    <path id="Trazado_900869" data-name="Trazado 900869" d="M9.448,0H1.063V-1.169l4.43-4.922A10.524,10.524,0,0,0,6.851-7.906a3.029,3.029,0,0,0,.374-1.446A2.3,2.3,0,0,0,6.618-11,2.12,2.12,0,0,0,5-11.637a2.511,2.511,0,0,0-1.885.69,2.635,2.635,0,0,0-.672,1.92H.817a3.774,3.774,0,0,1,1.138-2.856A4.219,4.219,0,0,1,5-12.973a4.054,4.054,0,0,1,2.821.936A3.193,3.193,0,0,1,8.859-9.545q0,1.89-2.408,4.5L3.023-1.327H9.448Zm4.4-6h-.954v-6.321l-1.912.7v-.861L13.7-13.5h.149Z" transform="translate(1120.051 1442.998)" fill="#12263f"/>
    <path id="Trazado_900870" data-name="Trazado 900870" d="M26.053,13H24.781V4.571l-2.55.937V4.359L25.854,3h.2Z" transform="translate(1170.05 1468)" fill="#12263f"/>
    <path id="Trazado_900871" data-name="Trazado 900871" d="M28.138,8.755a5.784,5.784,0,0,1-.759,3.3,2.7,2.7,0,0,1-2.372,1.08,2.718,2.718,0,0,1-2.358-1.056,5.49,5.49,0,0,1-.793-3.155V7.237a5.655,5.655,0,0,1,.759-3.261A2.719,2.719,0,0,1,24.993,2.91a2.744,2.744,0,0,1,2.365,1.029,5.458,5.458,0,0,1,.779,3.175ZM26.873,7.025a4.634,4.634,0,0,0-.451-2.341,1.553,1.553,0,0,0-1.429-.735,1.532,1.532,0,0,0-1.415.731A4.525,4.525,0,0,0,23.12,6.93V8.953a4.708,4.708,0,0,0,.468,2.382,1.55,1.55,0,0,0,1.418.769A1.529,1.529,0,0,0,26.4,11.38,4.538,4.538,0,0,0,26.873,9.1Z" transform="translate(1170.05 1547.998)" fill="#12263f"/>
    <path id="Trazado_900872" data-name="Trazado 900872" d="M28.138,8.755a5.784,5.784,0,0,1-.759,3.3,2.7,2.7,0,0,1-2.372,1.08,2.718,2.718,0,0,1-2.358-1.056,5.49,5.49,0,0,1-.793-3.155V7.237a5.655,5.655,0,0,1,.759-3.261A2.719,2.719,0,0,1,24.993,2.91a2.744,2.744,0,0,1,2.365,1.029,5.458,5.458,0,0,1,.779,3.175ZM26.873,7.025a4.634,4.634,0,0,0-.451-2.341,1.553,1.553,0,0,0-1.429-.735,1.532,1.532,0,0,0-1.415.731A4.525,4.525,0,0,0,23.12,6.93V8.953a4.708,4.708,0,0,0,.468,2.382,1.55,1.55,0,0,0,1.418.769A1.529,1.529,0,0,0,26.4,11.38,4.538,4.538,0,0,0,26.873,9.1Z" transform="translate(1170.05 1508)" fill="#12263f"/>
    <path id="Trazado_900873" data-name="Trazado 900873" d="M9.448,0H1.063V-1.169l4.43-4.922A10.524,10.524,0,0,0,6.851-7.906a3.029,3.029,0,0,0,.374-1.446A2.3,2.3,0,0,0,6.618-11,2.12,2.12,0,0,0,5-11.637a2.511,2.511,0,0,0-1.885.69,2.635,2.635,0,0,0-.672,1.92H.817a3.774,3.774,0,0,1,1.138-2.856A4.219,4.219,0,0,1,5-12.973a4.054,4.054,0,0,1,2.821.936A3.193,3.193,0,0,1,8.859-9.545q0,1.89-2.408,4.5L3.023-1.327H9.448Zm5.96-9.184a4.338,4.338,0,0,1-.569,2.476,2.024,2.024,0,0,1-1.779.81,2.039,2.039,0,0,1-1.769-.792A4.117,4.117,0,0,1,10.7-9.055v-1.266a4.241,4.241,0,0,1,.569-2.445,2.039,2.039,0,0,1,1.784-.8,2.058,2.058,0,0,1,1.774.772,4.093,4.093,0,0,1,.584,2.381Zm-.948-1.3a3.475,3.475,0,0,0-.338-1.756,1.165,1.165,0,0,0-1.071-.551,1.149,1.149,0,0,0-1.061.549,3.393,3.393,0,0,0-.343,1.687v1.517A3.531,3.531,0,0,0,12-7.248a1.162,1.162,0,0,0,1.064.577A1.146,1.146,0,0,0,14.1-7.215a3.4,3.4,0,0,0,.356-1.712Z" transform="translate(1187.05 1442.998)" fill="#12263f"/>
    <path id="Trazado_900874" data-name="Trazado 900874" d="M6.179-5.177H3.173V0h-1.7V-12.8H5.713a5.014,5.014,0,0,1,3.327.984A3.542,3.542,0,0,1,10.2-8.947a3.445,3.445,0,0,1-.646,2.083,3.856,3.856,0,0,1-1.8,1.327L10.767-.105V0H8.956ZM3.173-6.557H5.766a2.928,2.928,0,0,0,2-.65,2.2,2.2,0,0,0,.743-1.74A2.314,2.314,0,0,0,7.8-10.767a3,3,0,0,0-2.043-.642H3.173ZM16.26.176a4.155,4.155,0,0,1-3.146-1.27,4.714,4.714,0,0,1-1.213-3.4v-.3a5.707,5.707,0,0,1,.541-2.527,4.217,4.217,0,0,1,1.512-1.74,3.8,3.8,0,0,1,2.1-.628A3.562,3.562,0,0,1,18.94-8.464a5.289,5.289,0,0,1,1.028,3.5v.677H13.526a3.38,3.38,0,0,0,.822,2.272,2.583,2.583,0,0,0,2,.866A2.832,2.832,0,0,0,17.807-1.5a3.666,3.666,0,0,0,1.046-.932l.993.773A3.993,3.993,0,0,1,16.26.176Zm-.2-8.525a2.169,2.169,0,0,0-1.652.716,3.482,3.482,0,0,0-.826,2.008h4.764v-.123a3.1,3.1,0,0,0-.668-1.92A2.042,2.042,0,0,0,16.058-8.35ZM27.387-2.522a1.2,1.2,0,0,0-.5-1.024,4.78,4.78,0,0,0-1.731-.628,8.186,8.186,0,0,1-1.96-.633,2.788,2.788,0,0,1-1.072-.879A2.1,2.1,0,0,1,21.779-6.9a2.467,2.467,0,0,1,.989-1.978,3.861,3.861,0,0,1,2.527-.809,3.974,3.974,0,0,1,2.624.835,2.652,2.652,0,0,1,1.006,2.136H27.29a1.468,1.468,0,0,0-.567-1.151,2.124,2.124,0,0,0-1.428-.483,2.223,2.223,0,0,0-1.389.387,1.217,1.217,0,0,0-.5,1.011.986.986,0,0,0,.466.888,5.731,5.731,0,0,0,1.683.571,8.77,8.77,0,0,1,1.973.65,2.878,2.878,0,0,1,1.121.91,2.237,2.237,0,0,1,.365,1.3,2.434,2.434,0,0,1-1.02,2.043,4.277,4.277,0,0,1-2.646.769,4.789,4.789,0,0,1-2.021-.4,3.288,3.288,0,0,1-1.375-1.129,2.722,2.722,0,0,1-.5-1.569H23.08a1.683,1.683,0,0,0,.655,1.3,2.54,2.54,0,0,0,1.613.479,2.622,2.622,0,0,0,1.481-.374A1.148,1.148,0,0,0,27.387-2.522ZM37-.94A3.454,3.454,0,0,1,34.216.176,2.956,2.956,0,0,1,31.9-.708a3.823,3.823,0,0,1-.8-2.615V-9.51h1.626v6.144q0,2.162,1.758,2.162a2.434,2.434,0,0,0,2.479-1.389V-9.51h1.626V0H37.037ZM42.82,0H41.194V-13.5H42.82Zm4.808-11.812v2.3H49.4v1.257H47.628v5.9a1.317,1.317,0,0,0,.237.857,1,1,0,0,0,.809.286,3.937,3.937,0,0,0,.773-.105V0A4.714,4.714,0,0,1,48.2.176a2.025,2.025,0,0,1-1.644-.659A2.832,2.832,0,0,1,46-2.355v-5.9H44.271V-9.51H46v-2.3ZM57.173,0a3.416,3.416,0,0,1-.229-1A3.628,3.628,0,0,1,54.237.176a3.357,3.357,0,0,1-2.307-.8,2.573,2.573,0,0,1-.9-2.017,2.688,2.688,0,0,1,1.129-2.307,5.325,5.325,0,0,1,3.177-.822h1.582v-.747a1.826,1.826,0,0,0-.51-1.358,2.049,2.049,0,0,0-1.5-.505,2.371,2.371,0,0,0-1.459.439,1.3,1.3,0,0,0-.589,1.063H51.223a2.244,2.244,0,0,1,.505-1.375A3.449,3.449,0,0,1,53.1-9.3,4.613,4.613,0,0,1,55-9.686a3.759,3.759,0,0,1,2.575.822A2.964,2.964,0,0,1,58.544-6.6v4.377a5.351,5.351,0,0,0,.334,2.083V0Zm-2.7-1.239a2.858,2.858,0,0,0,1.45-.4,2.392,2.392,0,0,0,.993-1.028V-4.614H55.644q-2.988,0-2.988,1.749a1.48,1.48,0,0,0,.51,1.2A1.959,1.959,0,0,0,54.475-1.239ZM60.7-4.834a5.571,5.571,0,0,1,1.037-3.52A3.28,3.28,0,0,1,64.45-9.686,3.3,3.3,0,0,1,67.1-8.543V-13.5h1.626V0H67.228l-.079-1.02a3.311,3.311,0,0,1-2.716,1.2,3.248,3.248,0,0,1-2.694-1.354A5.634,5.634,0,0,1,60.7-4.711Zm1.626.185a4.218,4.218,0,0,0,.668,2.531,2.159,2.159,0,0,0,1.846.914A2.372,2.372,0,0,0,67.1-2.593V-6.961a2.39,2.39,0,0,0-2.241-1.345,2.17,2.17,0,0,0-1.863.923A4.644,4.644,0,0,0,62.323-4.649Zm8.49-.193a5.617,5.617,0,0,1,.549-2.514,4.1,4.1,0,0,1,1.529-1.723,4.163,4.163,0,0,1,2.237-.606,4.01,4.01,0,0,1,3.142,1.345,5.174,5.174,0,0,1,1.2,3.577v.114a5.666,5.666,0,0,1-.532,2.492A4.038,4.038,0,0,1,77.418-.439a4.211,4.211,0,0,1-2.272.615,4,4,0,0,1-3.133-1.345,5.147,5.147,0,0,1-1.2-3.56Zm1.635.193a4.068,4.068,0,0,0,.734,2.54,2.349,2.349,0,0,0,1.964.958,2.335,2.335,0,0,0,1.969-.971,4.449,4.449,0,0,0,.729-2.72A4.061,4.061,0,0,0,77.1-7.378a2.361,2.361,0,0,0-1.973-.971,2.335,2.335,0,0,0-1.942.958A4.416,4.416,0,0,0,72.448-4.649Z" transform="translate(327.307 1482.999)" fill="#12263f"/>
    <path id="Trazado_900875" data-name="Trazado 900875" d="M10.9-4.061A4.708,4.708,0,0,1,9.4-.927,4.911,4.911,0,0,1,6.047.176,4.509,4.509,0,0,1,2.413-1.45,6.542,6.542,0,0,1,1.046-5.8v-1.23a7.291,7.291,0,0,1,.637-3.138,4.76,4.76,0,0,1,1.806-2.079A5.029,5.029,0,0,1,6.2-12.973a4.624,4.624,0,0,1,3.27,1.138A4.765,4.765,0,0,1,10.9-8.684H9.2A3.66,3.66,0,0,0,8.249-10.9,2.891,2.891,0,0,0,6.2-11.584a3.02,3.02,0,0,0-2.536,1.2,5.484,5.484,0,0,0-.918,3.4v1.239a5.637,5.637,0,0,0,.87,3.313A2.812,2.812,0,0,0,6.047-1.2,3.247,3.247,0,0,0,8.2-1.841a3.536,3.536,0,0,0,1-2.219Zm1.617-.782a5.617,5.617,0,0,1,.549-2.514,4.1,4.1,0,0,1,1.529-1.723,4.163,4.163,0,0,1,2.237-.606,4.01,4.01,0,0,1,3.142,1.345,5.174,5.174,0,0,1,1.2,3.577v.114a5.666,5.666,0,0,1-.532,2.492A4.038,4.038,0,0,1,19.121-.439a4.211,4.211,0,0,1-2.272.615,4,4,0,0,1-3.133-1.345,5.147,5.147,0,0,1-1.2-3.56Zm1.635.193a4.068,4.068,0,0,0,.734,2.54,2.349,2.349,0,0,0,1.964.958,2.335,2.335,0,0,0,1.969-.971,4.449,4.449,0,0,0,.729-2.72A4.061,4.061,0,0,0,18.8-7.378a2.361,2.361,0,0,0-1.973-.971,2.335,2.335,0,0,0-1.942.958A4.416,4.416,0,0,0,14.15-4.649ZM17.569-13.5h1.969l-2.355,2.584h-1.31Zm5.247,8.666a5.571,5.571,0,0,1,1.037-3.52,3.28,3.28,0,0,1,2.716-1.332,3.3,3.3,0,0,1,2.646,1.143V-13.5h1.626V0H29.347l-.079-1.02a3.311,3.311,0,0,1-2.716,1.2,3.248,3.248,0,0,1-2.694-1.354,5.634,5.634,0,0,1-1.042-3.533Zm1.626.185a4.218,4.218,0,0,0,.668,2.531,2.159,2.159,0,0,0,1.846.914,2.372,2.372,0,0,0,2.259-1.389V-6.961a2.39,2.39,0,0,0-2.241-1.345,2.17,2.17,0,0,0-1.863.923A4.644,4.644,0,0,0,24.442-4.649ZM35.13,0H33.5V-9.51H35.13ZM33.372-12.032a.971.971,0,0,1,.242-.668.907.907,0,0,1,.716-.272.922.922,0,0,1,.721.272.96.96,0,0,1,.246.668.929.929,0,0,1-.246.659.938.938,0,0,1-.721.264.924.924,0,0,1-.716-.264A.938.938,0,0,1,33.372-12.032Zm3.973,7.2a5.589,5.589,0,0,1,1.028-3.538A3.289,3.289,0,0,1,41.1-9.686a3.271,3.271,0,0,1,2.716,1.23l.079-1.055h1.485V-.229a3.869,3.869,0,0,1-1.094,2.909,4.038,4.038,0,0,1-2.94,1.063A4.891,4.891,0,0,1,39.331,3.3a3.465,3.465,0,0,1-1.5-1.2l.844-.976a3.18,3.18,0,0,0,2.558,1.292,2.491,2.491,0,0,0,1.85-.668,2.553,2.553,0,0,0,.664-1.881V-.949A3.342,3.342,0,0,1,41.08.176a3.248,3.248,0,0,1-2.7-1.345A5.876,5.876,0,0,1,37.345-4.834Zm1.635.185a4.264,4.264,0,0,0,.659,2.527,2.142,2.142,0,0,0,1.846.918,2.382,2.382,0,0,0,2.259-1.4V-6.943A2.41,2.41,0,0,0,41.5-8.306a2.161,2.161,0,0,0-1.854.923A4.644,4.644,0,0,0,38.979-4.649Zm8.42-.193a5.617,5.617,0,0,1,.549-2.514,4.1,4.1,0,0,1,1.529-1.723,4.163,4.163,0,0,1,2.237-.606,4.01,4.01,0,0,1,3.142,1.345,5.174,5.174,0,0,1,1.2,3.577v.114a5.666,5.666,0,0,1-.532,2.492A4.038,4.038,0,0,1,54-.439a4.211,4.211,0,0,1-2.272.615A4,4,0,0,1,48.6-1.169a5.147,5.147,0,0,1-1.2-3.56Zm1.635.193a4.068,4.068,0,0,0,.734,2.54,2.349,2.349,0,0,0,1.964.958A2.335,2.335,0,0,0,53.7-2.123a4.449,4.449,0,0,0,.729-2.72,4.061,4.061,0,0,0-.743-2.536,2.361,2.361,0,0,0-1.973-.971,2.335,2.335,0,0,0-1.942.958A4.416,4.416,0,0,0,49.034-4.649Z" transform="translate(327.307 1523)" fill="#12263f"/>
    <path id="Trazado_900876" data-name="Trazado 900876" d="M3.173-5.01V0H1.485V-12.8h4.72A4.742,4.742,0,0,1,9.5-11.725a3.635,3.635,0,0,1,1.191,2.839,3.587,3.587,0,0,1-1.165,2.87A4.954,4.954,0,0,1,6.188-5.01Zm0-1.38H6.205a3.035,3.035,0,0,0,2.074-.637A2.328,2.328,0,0,0,9-8.868,2.4,2.4,0,0,0,8.279-10.7,2.843,2.843,0,0,0,6.3-11.408H3.173Zm14.01-1.661a4.873,4.873,0,0,0-.8-.062A2.143,2.143,0,0,0,14.212-6.75V0H12.586V-9.51h1.582l.026,1.1a2.532,2.532,0,0,1,2.268-1.274,1.661,1.661,0,0,1,.721.123ZM24.548-.94A3.454,3.454,0,0,1,21.762.176a2.956,2.956,0,0,1-2.316-.883,3.823,3.823,0,0,1-.8-2.615V-9.51h1.626v6.144q0,2.162,1.758,2.162A2.434,2.434,0,0,0,24.5-2.593V-9.51H26.13V0H24.583Zm8,1.116A4.155,4.155,0,0,1,29.4-1.094a4.714,4.714,0,0,1-1.213-3.4v-.3a5.707,5.707,0,0,1,.541-2.527,4.217,4.217,0,0,1,1.512-1.74,3.8,3.8,0,0,1,2.1-.628,3.562,3.562,0,0,1,2.883,1.222,5.289,5.289,0,0,1,1.028,3.5v.677H29.813a3.38,3.38,0,0,0,.822,2.272,2.583,2.583,0,0,0,2,.866A2.832,2.832,0,0,0,34.093-1.5a3.666,3.666,0,0,0,1.046-.932l.993.773A3.993,3.993,0,0,1,32.546.176Zm-.2-8.525a2.169,2.169,0,0,0-1.652.716,3.482,3.482,0,0,0-.826,2.008h4.764v-.123a3.1,3.1,0,0,0-.668-1.92A2.042,2.042,0,0,0,32.344-8.35Zm13.843,3.7a5.654,5.654,0,0,1-1,3.5A3.2,3.2,0,0,1,42.5.176,3.315,3.315,0,0,1,39.709-1.1L39.63,0H38.136V-13.5h1.626v5.036a3.3,3.3,0,0,1,2.716-1.222,3.221,3.221,0,0,1,2.72,1.31,5.824,5.824,0,0,1,.989,3.586Zm-1.626-.185A4.394,4.394,0,0,0,43.919-7.4a2.124,2.124,0,0,0-1.846-.905,2.387,2.387,0,0,0-2.312,1.494V-2.7A2.454,2.454,0,0,0,42.091-1.2a2.112,2.112,0,0,0,1.819-.905A4.672,4.672,0,0,0,44.561-4.834ZM54.105,0a3.416,3.416,0,0,1-.229-1A3.628,3.628,0,0,1,51.17.176a3.357,3.357,0,0,1-2.307-.8,2.573,2.573,0,0,1-.9-2.017,2.688,2.688,0,0,1,1.129-2.307,5.325,5.325,0,0,1,3.177-.822h1.582v-.747a1.826,1.826,0,0,0-.51-1.358,2.049,2.049,0,0,0-1.5-.505,2.371,2.371,0,0,0-1.459.439,1.3,1.3,0,0,0-.589,1.063H48.155a2.244,2.244,0,0,1,.505-1.375A3.449,3.449,0,0,1,50.032-9.3a4.613,4.613,0,0,1,1.9-.387,3.759,3.759,0,0,1,2.575.822A2.964,2.964,0,0,1,55.477-6.6v4.377a5.351,5.351,0,0,0,.334,2.083V0Zm-2.7-1.239a2.858,2.858,0,0,0,1.45-.4,2.392,2.392,0,0,0,.993-1.028V-4.614H52.576q-2.988,0-2.988,1.749a1.48,1.48,0,0,0,.51,1.2A1.959,1.959,0,0,0,51.407-1.239Z" transform="translate(327.307 1561.999)" fill="#12263f"/>
  </g>
</svg>
