<svg xmlns="http://www.w3.org/2000/svg" width="29" height="29" viewBox="0 0 29 29">
  <g id="Grupo_1113315" data-name="Grupo 1113315" transform="translate(-204.051 -1551)">
    <circle id="Elipse_11658" data-name="Elipse 11658" cx="14.5" cy="14.5" r="14.5" transform="translate(204.051 1551)" fill="#d4f0e0"/>
    <path id="Trazado_900877" data-name="Trazado 900877" d="M7.348,0H4.377V-9.457L1.459-8.6v-2.25L7.075-12.8h.272Zm5.739-2.874a1.686,1.686,0,0,1,1.169.417,1.37,1.37,0,0,1,.466,1.068,1.37,1.37,0,0,1-.466,1.068A1.686,1.686,0,0,1,13.087.1a1.672,1.672,0,0,1-1.173-.422,1.379,1.379,0,0,1-.461-1.063,1.379,1.379,0,0,1,.461-1.063A1.672,1.672,0,0,1,13.087-2.874Z" transform="translate(211.051 1571)" fill="#12263f"/>
  </g>
</svg>
