<svg xmlns="http://www.w3.org/2000/svg" xmlns:xlink="http://www.w3.org/1999/xlink" width="85" height="85" viewBox="0 0 85 85">
  <defs>
    <clipPath id="clip-path">
      <path id="path4161" d="M0-682.665H68.958v68.958H0Z" transform="translate(0 682.665)"/>
    </clipPath>
  </defs>
  <g id="Grupo_1113262" data-name="Grupo 1113262" transform="translate(-180 -754)">
    <rect id="Rectángulo_406418" data-name="Rectángulo 406418" width="85" height="85" transform="translate(180 754)" fill="#95dbb3"/>
    <g id="g4155" transform="translate(188.021 1444.686)">
      <g id="g4157" transform="translate(0 -682.665)">
        <g id="g4159" clip-path="url(#clip-path)">
          <g id="g4165" transform="translate(1.01 1.01)">
            <path id="path4167" d="M-266.382-133.191a14.966,14.966,0,0,1-14.966,14.966,14.966,14.966,0,0,1-14.966-14.966,14.966,14.966,0,0,1,14.966-14.966,14.966,14.966,0,0,1,14.966,14.966" transform="translate(296.314 148.157)" fill="#fcdd2e"/>
          </g>
          <g id="g4169" transform="translate(4.27 4.27)">
            <path id="path4171" d="M-187.16,0a14.9,14.9,0,0,1,3.26,9.325A14.966,14.966,0,0,1-198.866,24.29a14.9,14.9,0,0,1-9.324-3.26,14.937,14.937,0,0,0,11.705,5.641,14.966,14.966,0,0,0,14.966-14.966A14.938,14.938,0,0,0-187.16,0" transform="translate(208.19)" fill="#f9c301"/>
          </g>
          <g id="g4173" transform="translate(38.016 1.01)">
            <path id="path4175" d="M-266.382-133.191a14.966,14.966,0,0,1-14.966,14.966,14.966,14.966,0,0,1-14.966-14.966,14.966,14.966,0,0,1,14.966-14.966,14.966,14.966,0,0,1,14.966,14.966" transform="translate(296.314 148.157)" fill="#fc8086"/>
          </g>
          <g id="g4177" transform="translate(41.277 4.27)">
            <path id="path4179" d="M-187.16,0a14.9,14.9,0,0,1,3.26,9.325A14.966,14.966,0,0,1-198.866,24.29a14.9,14.9,0,0,1-9.324-3.26,14.937,14.937,0,0,0,11.705,5.641,14.966,14.966,0,0,0,14.966-14.966A14.937,14.937,0,0,0-187.16,0" transform="translate(208.19)" fill="#fa4954"/>
          </g>
          <g id="g4181" transform="translate(1.01 38.016)">
            <path id="path4183" d="M-266.382-133.191a14.966,14.966,0,0,1-14.966,14.966,14.966,14.966,0,0,1-14.966-14.966,14.966,14.966,0,0,1,14.966-14.966,14.966,14.966,0,0,1,14.966,14.966" transform="translate(296.314 148.157)" fill="#6df3bf"/>
          </g>
          <g id="g4185" transform="translate(4.27 41.277)">
            <path id="path4187" d="M-187.16,0a14.9,14.9,0,0,1,3.26,9.325A14.966,14.966,0,0,1-198.866,24.29a14.9,14.9,0,0,1-9.324-3.26,14.937,14.937,0,0,0,11.705,5.641,14.966,14.966,0,0,0,14.966-14.966A14.938,14.938,0,0,0-187.16,0" transform="translate(208.19)" fill="#05e29a"/>
          </g>
          <g id="g4189" transform="translate(38.016 38.016)">
            <path id="path4191" d="M-266.382-133.191a14.966,14.966,0,0,1-14.966,14.966,14.966,14.966,0,0,1-14.966-14.966,14.966,14.966,0,0,1,14.966-14.966,14.966,14.966,0,0,1,14.966,14.966" transform="translate(296.314 148.157)" fill="#97e4f9"/>
          </g>
          <g id="g4193" transform="translate(41.277 41.277)">
            <path id="path4195" d="M-187.16,0a14.9,14.9,0,0,1,3.26,9.325A14.966,14.966,0,0,1-198.866,24.29a14.9,14.9,0,0,1-9.324-3.26,14.937,14.937,0,0,0,11.705,5.641,14.966,14.966,0,0,0,14.966-14.966A14.937,14.937,0,0,0-187.16,0" transform="translate(208.19)" fill="#0acefa"/>
          </g>
          <g id="g4197" transform="translate(1.01 1.01)">
            <path id="path4199" d="M-225.486-229.22a14.916,14.916,0,0,1-10.37,4.176,14.966,14.966,0,0,1-14.966-14.966,14.966,14.966,0,0,1,14.966-14.966,14.966,14.966,0,0,1,14.966,14.966,14.9,14.9,0,0,1-1.729,6.99" transform="translate(250.822 254.975)" fill="none" stroke="#000" stroke-linecap="round" stroke-linejoin="round" stroke-miterlimit="10" stroke-width="3"/>
          </g>
          <g id="g4201" transform="translate(38.016 1.01)">
            <path id="path4203" d="M-229.22-40.9a14.916,14.916,0,0,1,4.176,10.371A14.966,14.966,0,0,1-240.01-15.56a14.966,14.966,0,0,1-14.966-14.966A14.966,14.966,0,0,1-240.01-45.492a14.9,14.9,0,0,1,6.99,1.729" transform="translate(254.975 45.492)" fill="none" stroke="#000" stroke-linecap="round" stroke-linejoin="round" stroke-miterlimit="10" stroke-width="3"/>
          </g>
          <g id="g4205" transform="translate(38.016 38.016)">
            <path id="path4207" d="M-40.9-37.162a14.916,14.916,0,0,1,10.371-4.176A14.966,14.966,0,0,1-15.56-26.371,14.966,14.966,0,0,1-30.526-11.406,14.966,14.966,0,0,1-45.492-26.371a14.9,14.9,0,0,1,1.729-6.99" transform="translate(45.492 41.337)" fill="none" stroke="#000" stroke-linecap="round" stroke-linejoin="round" stroke-miterlimit="10" stroke-width="3"/>
          </g>
          <g id="g4209" transform="translate(1.01 38.016)">
            <path id="path4211" d="M-37.162-225.486a14.916,14.916,0,0,1-4.176-10.37,14.966,14.966,0,0,1,14.966-14.966,14.966,14.966,0,0,1,14.966,14.966,14.966,14.966,0,0,1-14.966,14.966,14.9,14.9,0,0,1-6.99-1.729" transform="translate(41.337 250.822)" fill="none" stroke="#000" stroke-linecap="round" stroke-linejoin="round" stroke-miterlimit="10" stroke-width="3"/>
          </g>
          <g id="g4213" transform="translate(47.54 7.813)">
            <path id="path4215" d="M0-35.114v-1.225A2.721,2.721,0,0,1,2.721-39.06H8.163a2.721,2.721,0,0,1,2.721,2.721v2.721A2.721,2.721,0,0,1,8.163-30.9H4.082" transform="translate(0 39.06)" fill="none" stroke="#000" stroke-linecap="round" stroke-linejoin="round" stroke-miterlimit="10" stroke-width="3"/>
          </g>
          <g id="g4217" transform="translate(47.54 15.976)">
            <path id="path4219" d="M0-37.536v1.225A2.721,2.721,0,0,0,2.721-33.59H8.163a2.721,2.721,0,0,0,2.721-2.721v-2.721a2.721,2.721,0,0,0-2.721-2.721H4.082" transform="translate(0 41.753)" fill="none" stroke="#000" stroke-linecap="round" stroke-linejoin="round" stroke-miterlimit="10" stroke-width="3"/>
          </g>
          <g id="g4221" transform="translate(10.534 7.813)">
            <path id="path4223" d="M0-32.692v-.952a2.721,2.721,0,0,1,2.721-2.721H8.163a2.721,2.721,0,0,1,2.721,2.721v2.721A2.721,2.721,0,0,1,8.163-28.2H2.721A2.721,2.721,0,0,0,0-25.481v2.721a2.721,2.721,0,0,0,2.721,2.721H8.163a2.721,2.721,0,0,0,2.721-2.721v-.816" transform="translate(0 36.365)" fill="none" stroke="#000" stroke-linecap="round" stroke-linejoin="round" stroke-miterlimit="10" stroke-width="3"/>
          </g>
          <g id="g4225" transform="translate(10.534 44.819)">
            <path id="path4227" d="M0-112.607v.952a2.721,2.721,0,0,0,2.721,2.721H8.163a2.721,2.721,0,0,0,2.721-2.721v-2.721A2.721,2.721,0,0,0,8.163-117.1H2.721A2.721,2.721,0,0,1,0-119.818v-5.442H10.884v3.537" transform="translate(0 125.26)" fill="none" stroke="#000" stroke-linecap="round" stroke-linejoin="round" stroke-miterlimit="10" stroke-width="3"/>
          </g>
          <g id="g4229" transform="translate(47.54 44.819)">
            <path id="path4231" d="M0-32.692v-.952a2.721,2.721,0,0,1,2.721-2.721H7.109A2.721,2.721,0,0,1,9.69-32.784L5.442-20.039" transform="translate(0 36.365)" fill="none" stroke="#000" stroke-linecap="round" stroke-linejoin="round" stroke-miterlimit="10" stroke-width="3"/>
          </g>
          <g id="g4233" transform="translate(52.456 52.982)">
            <path id="path4235" d="M0,0H5.832" fill="none" stroke="#000" stroke-linecap="round" stroke-linejoin="round" stroke-miterlimit="10" stroke-width="3"/>
          </g>
        </g>
      </g>
    </g>
  </g>
</svg>
