<svg xmlns="http://www.w3.org/2000/svg" width="295" height="210.5" viewBox="0 0 295 210.5">
  <g id="Grupo_1113139" data-name="Grupo 1113139" transform="translate(-1020.051 -1269)">
    <rect id="Rectángulo_406423" data-name="Rectángulo 406423" width="295" height="75" rx="10" transform="translate(1020.051 1404)" fill="#ecccfd"/>
    <g id="_34676826_191y_ehsn0p9dehk6irjbd5n6ebbdd5n68sr5ehfj0do" data-name="34676826_191y_ehsn0p9dehk6irjbd5n6ebbdd5n68sr5ehfj0do" transform="translate(856.629 1119)">
      <g id="Grupo_1113138" data-name="Grupo 1113138" transform="translate(213.422 150)">
        <g id="Grupo_1113100" data-name="Grupo 1113100" transform="translate(147.851 28.327)">
          <path id="Trazado_900186" data-name="Trazado 900186" d="M1450.576,402.445h-41.47a1.639,1.639,0,0,1-1.639-1.638V380.4a1.638,1.638,0,0,1,1.639-1.638h41.47a1.638,1.638,0,0,1,1.639,1.638v20.4A1.639,1.639,0,0,1,1450.576,402.445Z" transform="translate(-1407.468 -378.766)" fill="#ffbc5a"/>
          <g id="Grupo_1113099" data-name="Grupo 1113099" transform="translate(8.893 3.797)">
            <rect id="Rectángulo_406471" data-name="Rectángulo 406471" width="3.398" height="7.108" transform="translate(0 8.977)" fill="#918336"/>
            <rect id="Rectángulo_406472" data-name="Rectángulo 406472" width="3.398" height="11.554" transform="translate(5.89 4.531)" fill="#ffeae6"/>
            <rect id="Rectángulo_406473" data-name="Rectángulo 406473" width="3.398" height="16.085" transform="translate(11.781)" fill="#918336"/>
            <rect id="Rectángulo_406474" data-name="Rectángulo 406474" width="3.398" height="11.554" transform="translate(17.671 4.531)" fill="#c8625e"/>
            <rect id="Rectángulo_406475" data-name="Rectángulo 406475" width="3.398" height="16.085" transform="translate(23.561)" fill="#ffeae6"/>
          </g>
        </g>
        <g id="Grupo_1113101" data-name="Grupo 1113101" transform="translate(15.488 8.833)">
          <path id="Trazado_900187" data-name="Trazado 900187" d="M1651.209,683.444a1.38,1.38,0,0,1-.312-.036l-16.911-3.933a1.354,1.354,0,0,1-.651-2.276h0l12.388-12.388a1.354,1.354,0,0,1,2.263.6l4.523,16.321a1.355,1.355,0,0,1-1.3,1.717Zm-17.031-5.4a.162.162,0,0,0,.078.272l16.911,3.933a.162.162,0,0,0,.193-.2l-4.523-16.321a.162.162,0,0,0-.271-.071Z" transform="translate(-1472.658 -609.549)" fill="#a9a55a"/>
          <path id="Trazado_900188" data-name="Trazado 900188" d="M529.869,617.583a1.354,1.354,0,0,1-1.3-1.748h0l2.922-9.623a1.354,1.354,0,0,1,2.276-.54l6.7,7.041a1.354,1.354,0,0,1-.63,2.242l-9.626,2.582A1.354,1.354,0,0,1,529.869,617.583Zm-.155-1.4h0a.162.162,0,0,0,.2.2l9.626-2.582a.162.162,0,0,0,.075-.268l-6.7-7.041a.162.162,0,0,0-.272.065Z" transform="translate(-504.987 -557.713)" fill="#ffb454"/>
          <path id="Trazado_900189" data-name="Trazado 900189" d="M380.455,1508.378a1.614,1.614,0,0,1-1.421-2.379l6.181-11.505a1.614,1.614,0,0,1,2.774-.119l7.327,11.207a1.615,1.615,0,0,1-1.316,2.5l-13.507.3Zm6.182-13.541h-.018a.416.416,0,0,0-.354.222l-6.181,11.505a.415.415,0,0,0,.012.421.4.4,0,0,0,.369.2l13.507-.3h0a.422.422,0,0,0,.344-.653l-7.327-11.207A.411.411,0,0,0,386.636,1494.837Z" transform="translate(-373.845 -1336.102)" fill="#e67754"/>
          <path id="Trazado_900190" data-name="Trazado 900190" d="M1362.215,1063.766l2.385,7.854a.619.619,0,0,0,1.04.247l5.472-5.747a.619.619,0,0,0-.288-1.024l-7.857-2.108A.619.619,0,0,0,1362.215,1063.766Z" transform="translate(-1235.432 -958.752)" fill="#e67754"/>
          <path id="Trazado_900191" data-name="Trazado 900191" d="M338.749,1355.911l6.51,5a.619.619,0,0,0,.989-.4l1.106-7.858a.619.619,0,0,0-.83-.666l-7.616,2.858A.619.619,0,0,0,338.749,1355.911Z" transform="translate(-338.507 -1211.947)" fill="#a9a55a"/>
          <path id="Trazado_900192" data-name="Trazado 900192" d="M1216.487,1666.817l8.126,1.159a.619.619,0,0,0,.663-.838l-2.895-7.388a.619.619,0,0,0-1.05-.172l-5.231,6.23A.619.619,0,0,0,1216.487,1666.817Z" transform="translate(-1107.306 -1481.295)" fill="#ffb454"/>
          <path id="Trazado_900193" data-name="Trazado 900193" d="M1439.065,222.131l2.385,7.854a.619.619,0,0,0,1.04.247l5.472-5.747a.619.619,0,0,0-.288-1.024l-7.857-2.108A.619.619,0,0,0,1439.065,222.131Z" transform="translate(-1302.766 -221.332)" fill="#e67754"/>
        </g>
        <g id="Grupo_1113117" data-name="Grupo 1113117" transform="translate(24.525 0)">
          <path id="Trazado_900194" data-name="Trazado 900194" d="M511.035,181.585h-97.2a2.342,2.342,0,0,1-2.342-2.342v-26.9A2.342,2.342,0,0,1,413.831,150h97.2a2.342,2.342,0,0,1,2.342,2.342v26.9A2.342,2.342,0,0,1,511.035,181.585Z" transform="translate(-411.489 -150)" fill="#ddecfe"/>
          <g id="Grupo_1113116" data-name="Grupo 1113116" transform="translate(10.222 8.417)">
            <g id="Grupo_1113102" data-name="Grupo 1113102" transform="translate(0 2.296)">
              <path id="Trazado_900195" data-name="Trazado 900195" d="M501.917,239.33a9.971,9.971,0,0,1-1.137-1.584,2.626,2.626,0,0,0-1.949-1.228,3.546,3.546,0,0,0-2.495,1.129,7.071,7.071,0,0,0-1.587,2.125c-.729,1.515-1.216,3.834.208,5.115a3.458,3.458,0,0,0,4.533-.1c1.651-1.376,1.941-3.619,2.088-5.629l-1.409.191,1.261,5.279c.214.9,1.6.518,1.384-.381l-1.261-5.279a.714.714,0,0,0-.787-.514.726.726,0,0,0-.622.7,7.278,7.278,0,0,1-1.126,4.066,2.219,2.219,0,0,1-2.848.783,1.536,1.536,0,0,1-.681-1.4,4.916,4.916,0,0,1,.414-1.927,5.779,5.779,0,0,1,1.082-1.658,3.038,3.038,0,0,1,1.593-1.072.869.869,0,0,1,.431.051c.124.046-.121-.076.073.037,0,0,.182.118.1.058a2.212,2.212,0,0,1,.541.638,7.96,7.96,0,0,0,1.178,1.606c.68.623,1.7-.389,1.015-1.015Z" transform="translate(-494.043 -236.514)" fill="#80743f"/>
            </g>
            <g id="Grupo_1113103" data-name="Grupo 1113103" transform="translate(13.547 3.644)">
              <path id="Trazado_900196" data-name="Trazado 900196" d="M603.488,248.122a14.574,14.574,0,0,0,.366,4.455.724.724,0,0,0,.882.5.733.733,0,0,0,.5-.883,11.966,11.966,0,0,1-.315-1.968,13.96,13.96,0,0,1,0-2.105.721.721,0,0,0-.717-.717.735.735,0,0,0-.717.717Z" transform="translate(-603.449 -247.405)" fill="#997687"/>
            </g>
            <g id="Grupo_1113104" data-name="Grupo 1113104" transform="translate(11.442 5.954)">
              <path id="Trazado_900197" data-name="Trazado 900197" d="M587.167,267.489h3.909a.717.717,0,0,0,0-1.435h-3.909a.717.717,0,0,0,0,1.435Z" transform="translate(-586.449 -266.054)" fill="#997687"/>
            </g>
            <g id="Grupo_1113105" data-name="Grupo 1113105" transform="translate(30.958 3.644)">
              <path id="Trazado_900198" data-name="Trazado 900198" d="M744.1,248.122a14.574,14.574,0,0,0,.366,4.455.724.724,0,0,0,.882.5.733.733,0,0,0,.5-.883,11.959,11.959,0,0,1-.315-1.968,13.944,13.944,0,0,1,0-2.105.721.721,0,0,0-.717-.717.735.735,0,0,0-.717.717Z" transform="translate(-744.061 -247.405)" fill="#839dcc"/>
            </g>
            <g id="Grupo_1113106" data-name="Grupo 1113106" transform="translate(28.853 5.954)">
              <path id="Trazado_900199" data-name="Trazado 900199" d="M727.779,267.489h3.909a.717.717,0,0,0,0-1.435h-3.909a.717.717,0,1,0,0,1.435Z" transform="translate(-727.061 -266.054)" fill="#839dcc"/>
            </g>
            <g id="Grupo_1113107" data-name="Grupo 1113107" transform="translate(50.546 3.644)">
              <path id="Trazado_900200" data-name="Trazado 900200" d="M902.289,248.122a14.574,14.574,0,0,0,.366,4.455.724.724,0,0,0,.882.5.733.733,0,0,0,.5-.883,11.972,11.972,0,0,1-.315-1.968,13.952,13.952,0,0,1,0-2.105.721.721,0,0,0-.717-.717.735.735,0,0,0-.717.717Z" transform="translate(-902.25 -247.405)" fill="#e25858"/>
            </g>
            <g id="Grupo_1113108" data-name="Grupo 1113108" transform="translate(48.441 5.954)">
              <path id="Trazado_900201" data-name="Trazado 900201" d="M885.968,267.489h3.909a.717.717,0,0,0,0-1.435h-3.909a.717.717,0,0,0,0,1.435Z" transform="translate(-885.25 -266.054)" fill="#e25858"/>
            </g>
            <g id="Grupo_1113109" data-name="Grupo 1113109" transform="translate(33.6 3.086)">
              <path id="Trazado_900202" data-name="Trazado 900202" d="M768.38,243.636a9.427,9.427,0,0,0,.275,3.173,4.647,4.647,0,0,0,1.446,2.67,2.567,2.567,0,0,0,2.729-.027,4.029,4.029,0,0,0,1.661-2.207,9.081,9.081,0,0,0,.224-3.634.735.735,0,0,0-.717-.717.725.725,0,0,0-.717.717q.083,2.116.059,4.235-.013,1.091-.056,2.181a18.725,18.725,0,0,1-.115,1.973,2.078,2.078,0,0,1-1.7,1.813,5.29,5.29,0,0,1-2.7-.017,3.846,3.846,0,0,1-1.26-.567,1.715,1.715,0,0,1-.71-1.088.718.718,0,0,0-1.384.381c.532,2.458,3.648,3.108,5.77,2.806a3.979,3.979,0,0,0,2.929-1.715,4.7,4.7,0,0,0,.533-2.19c.048-.807.079-1.615.1-2.423q.071-2.695-.037-5.39h-1.435a8.1,8.1,0,0,1-.172,3.252,2.171,2.171,0,0,1-1.544,1.552c-.894.135-1.187-.88-1.41-1.591a8.249,8.249,0,0,1-.337-3.188.723.723,0,0,0-.717-.717.732.732,0,0,0-.718.717Z" transform="translate(-765.401 -242.894)" fill="#997687"/>
            </g>
            <g id="Grupo_1113110" data-name="Grupo 1113110" transform="translate(19.426)">
              <path id="Trazado_900203" data-name="Trazado 900203" d="M653.6,225.751a9.561,9.561,0,0,0,2.684-2.65,3.826,3.826,0,0,0,.281-3.571,2.8,2.8,0,0,0-2.643-1.546,3.2,3.2,0,0,0-2.483,2.411,8.9,8.9,0,0,0-.463,3.9,7.015,7.015,0,0,0,.993,3.209,3.622,3.622,0,0,0,2.727,1.709,3.442,3.442,0,0,0,2.862-1.2,3.149,3.149,0,0,0,.251-3.707,2.751,2.751,0,0,0-3.446-.909.724.724,0,0,0-.257.982.733.733,0,0,0,.982.257,1.3,1.3,0,0,1,1.508.43,1.711,1.711,0,0,1-.111,2.007,2.077,2.077,0,0,1-1.7.71,2.109,2.109,0,0,1-1.551-.966,6.8,6.8,0,0,1-.692-5.085,3.437,3.437,0,0,1,1.116-2.193,1.168,1.168,0,0,1,1.493.419,2.235,2.235,0,0,1-.08,2.372,7.689,7.689,0,0,1-2.195,2.181.741.741,0,0,0-.257.982.723.723,0,0,0,.982.257Z" transform="translate(-650.927 -217.973)" fill="#e25858"/>
            </g>
            <g id="Grupo_1113111" data-name="Grupo 1113111" transform="translate(43.378 1.134)">
              <path id="Trazado_900204" data-name="Trazado 900204" d="M845.926,228.6c.021-.014.043-.027.066-.039q.1-.048-.066.027a.465.465,0,0,0,.11-.031c.13-.036-.189.01-.02.007.08,0,.175.045-.019-.012.036.011.075.017.112.027q.106.037-.064-.032c.023.011.046.022.068.035l.033.02q.092.062-.053-.045a.354.354,0,0,0,.082.081q-.106-.145-.043-.054.021.032.039.066.037.076,0-.016t-.008-.014c.007.029.039.193.022.054s0,.029,0,.057,0,.051,0,.076l.015-.115a.338.338,0,0,1-.041.147l.042-.1c-.011.022-.022.043-.035.063s-.024.038-.037.056q.115-.143.061-.08c-.028.025-.052.057-.08.083-.049.045-.126.076.044-.028-.067.041-.129.088-.2.126-.138.076-.284.136-.429.2a2.838,2.838,0,0,0-.938.577.723.723,0,0,0-.184.7.748.748,0,0,0,.5.5,5.916,5.916,0,0,0,3.086.272.72.72,0,0,0,.429-.33.718.718,0,0,0-.81-1.054l-.1.016q-.12.017.045-.006c-.016.018-.126.014-.146.016q-.171.016-.343.02a5.121,5.121,0,0,1-.638-.024c-.049,0-.1-.013-.146-.017.21.018.02,0-.028-.007q-.157-.027-.313-.064a5.217,5.217,0,0,1-.656-.2l.317,1.2c.024-.024.05-.047.075-.071.083-.08-.134.09-.037.028.068-.044.136-.088.208-.126.13-.069.267-.126.4-.184a2.872,2.872,0,0,0,.874-.519,1.609,1.609,0,0,0-.276-2.53,1.633,1.633,0,0,0-1.635.019.717.717,0,1,0,.724,1.238Z" transform="translate(-844.368 -227.128)" fill="#997687"/>
            </g>
            <g id="Grupo_1113112" data-name="Grupo 1113112" transform="translate(56.64 2.735)">
              <path id="Trazado_900205" data-name="Trazado 900205" d="M951.554,241.132a13.016,13.016,0,0,0,5.2,5.739.718.718,0,0,0,.724-1.239,11.68,11.68,0,0,1-4.69-5.224.723.723,0,0,0-.982-.257.734.734,0,0,0-.257.982Z" transform="translate(-951.468 -240.058)" fill="#839dcc"/>
            </g>
            <g id="Grupo_1113113" data-name="Grupo 1113113" transform="translate(56.059 1.903)">
              <path id="Trazado_900206" data-name="Trazado 900206" d="M948.122,241.337l4.262-6.93c.485-.789-.756-1.51-1.239-.724l-4.262,6.93c-.485.789.756,1.51,1.239.724Z" transform="translate(-946.773 -233.344)" fill="#839dcc"/>
            </g>
            <g id="Grupo_1113114" data-name="Grupo 1113114" transform="translate(65.276 4.499)">
              <path id="Trazado_900207" data-name="Trazado 900207" d="M1021.933,255.746l5.15.235a.717.717,0,0,0,0-1.435l-5.15-.235a.717.717,0,1,0,0,1.435Z" transform="translate(-1021.216 -254.311)" fill="#918336"/>
            </g>
            <g id="Grupo_1113115" data-name="Grupo 1113115" transform="translate(65.452 6.313)">
              <path id="Trazado_900208" data-name="Trazado 900208" d="M1023.35,270.4a25.667,25.667,0,0,0,4.8.156.717.717,0,0,0,0-1.435,25.656,25.656,0,0,1-4.8-.156.719.719,0,0,0-.718.717.739.739,0,0,0,.718.717Z" transform="translate(-1022.632 -268.957)" fill="#918336"/>
            </g>
          </g>
        </g>
        <g id="Grupo_1113126" data-name="Grupo 1113126" transform="translate(0 80.267)">
          <path id="Trazado_900209" data-name="Trazado 900209" d="M278.909,831.307H216.4a2.98,2.98,0,0,1-2.98-2.98V801.214a2.98,2.98,0,0,1,2.98-2.98h62.507a2.98,2.98,0,0,1,2.98,2.98v27.112A2.981,2.981,0,0,1,278.909,831.307Z" transform="translate(-213.422 -798.234)" fill="#cbe6d8"/>
          <g id="Grupo_1113118" data-name="Grupo 1113118" transform="translate(7.373 9.58)">
            <path id="Trazado_900210" data-name="Trazado 900210" d="M274.025,880.616a1.494,1.494,0,0,1,1.691.173,3.875,3.875,0,0,1,1.212,1.808c.338.854.638,1.718,1.013,2.558a24.226,24.226,0,0,0,1.31,2.522.726.726,0,0,0,1.311-.171l1.669-8.395.2-1.018c.035-.178.05-.574.184-.693.1-.085.4-.064.515-.072q.55-.035,1.1-.065,2.136-.118,4.275-.174,2.43-.064,4.862-.049a.718.718,0,0,0,0-1.435q-4.538-.026-9.072.219a7.438,7.438,0,0,0-2.144.223,1.818,1.818,0,0,0-1.079,1.536q-.445,2.225-.885,4.452l-1.011,5.088,1.311-.171a23.537,23.537,0,0,1-1.452-2.848c-.386-.911-.665-1.868-1.1-2.756a4.221,4.221,0,0,0-1.908-2.031,2.805,2.805,0,0,0-2.726.059c-.773.5-.055,1.742.724,1.239Z" transform="translate(-272.969 -875.605)" fill="#767fa0"/>
          </g>
          <g id="Grupo_1113119" data-name="Grupo 1113119" transform="translate(18.362 11.415)">
            <path id="Trazado_900211" data-name="Trazado 900211" d="M363.508,897.763a13.486,13.486,0,0,0,1.713-2.685,7.656,7.656,0,0,0,.925-2.937,1.561,1.561,0,0,0-2.024-1.634c-1.138.375-1.432,1.6-1.695,2.63a28.276,28.276,0,0,0-.654,3.474,5.234,5.234,0,0,0,.2,2.534,2.529,2.529,0,0,0,2.15,1.682,2.969,2.969,0,0,0,2.593-1.282,4.411,4.411,0,0,0,.7-3.338,1.972,1.972,0,0,0-2.717-1.539.723.723,0,0,0-.257.982.734.734,0,0,0,.982.257c-.029.014-.115-.007.052,0-.074,0,.087.014.108.021a.607.607,0,0,1,.213.132,1.2,1.2,0,0,1,.259.814,3.045,3.045,0,0,1-.548,1.906,1.555,1.555,0,0,1-1.33.619,1.107,1.107,0,0,1-.915-.914,4.575,4.575,0,0,1-.069-1.745,22.831,22.831,0,0,1,.457-2.556q.139-.607.3-1.208a2.639,2.639,0,0,1,.348-.91.644.644,0,0,1,.2-.176c.018-.009.189-.054.122-.051.128-.006.083.075.048.03s.016.113.015.04a2.039,2.039,0,0,1,.011.409,8.112,8.112,0,0,1-.815,2.235,11.961,11.961,0,0,1-1.392,2.194.739.739,0,0,0,0,1.015.723.723,0,0,0,1.014,0Z" transform="translate(-361.71 -890.423)" fill="#767fa0"/>
          </g>
          <g id="Grupo_1113120" data-name="Grupo 1113120" transform="translate(28.869 14.342)">
            <path id="Trazado_900212" data-name="Trazado 900212" d="M446.917,915.407l3.594,2.759a.719.719,0,0,0,.982-.257.74.74,0,0,0-.257-.982l-3.594-2.759a.719.719,0,0,0-.982.257.74.74,0,0,0,.257.982Z" transform="translate(-446.566 -914.063)" fill="#c8625e"/>
          </g>
          <g id="Grupo_1113121" data-name="Grupo 1113121" transform="translate(28.732 13.647)">
            <path id="Trazado_900213" data-name="Trazado 900213" d="M446.683,913.819a22.761,22.761,0,0,0,2.964-4.3.718.718,0,0,0-1.239-.724,22,22,0,0,1-1.284,2.129,18.731,18.731,0,0,1-1.456,1.879.717.717,0,1,0,1.014,1.015Z" transform="translate(-445.464 -908.45)" fill="#c8625e"/>
          </g>
          <g id="Grupo_1113122" data-name="Grupo 1113122" transform="translate(38.193 10.941)">
            <path id="Trazado_900214" data-name="Trazado 900214" d="M522.781,887.111l-.895,4.643a.732.732,0,0,0,.692.908,24.04,24.04,0,0,0,3.834.1.717.717,0,1,0,0-1.435,24.041,24.041,0,0,1-3.834-.1l.692.908.895-4.643a.718.718,0,1,0-1.384-.381Z" transform="translate(-521.869 -886.591)" fill="#da8a39"/>
          </g>
          <g id="Grupo_1113123" data-name="Grupo 1113123" transform="translate(42.438 10.942)">
            <path id="Trazado_900215" data-name="Trazado 900215" d="M556.171,887.511a22.635,22.635,0,0,1,.18,8.2.739.739,0,0,0,.5.882.723.723,0,0,0,.883-.5,24.591,24.591,0,0,0-.18-8.967.718.718,0,1,0-1.384.381Z" transform="translate(-556.153 -886.605)" fill="#da8a39"/>
          </g>
          <g id="Grupo_1113124" data-name="Grupo 1113124" transform="translate(47.003 14.556)">
            <path id="Trazado_900216" data-name="Trazado 900216" d="M593.74,917.224c1.282,0,2.563.141,3.845.143a.717.717,0,1,0,0-1.435c-1.282,0-2.562-.141-3.845-.143a.717.717,0,0,0,0,1.435Z" transform="translate(-593.022 -915.789)" fill="#80743f"/>
          </g>
          <g id="Grupo_1113125" data-name="Grupo 1113125" transform="translate(53.48 11.772)">
            <path id="Trazado_900217" data-name="Trazado 900217" d="M651.166,894.956c-.838-.851-1.894-1.773-3.179-1.636a3.072,3.072,0,0,0-2.5,2.258,5.857,5.857,0,0,0,.537,3.926c.172.414.283.766.751.916a2.26,2.26,0,0,0,.906.088,3.113,3.113,0,0,0,1.677-.738c1.172-.972,1.376-2.577,1.528-3.994l-1.337.362,1.661,2.821c.463.786,1.205,2.03,2.3,1.383a.718.718,0,0,0-.724-1.239.255.255,0,0,1,.206-.006q.117.04.029-.005c-.011-.023-.082-.071-.1-.093a2.216,2.216,0,0,1-.242-.377l-.619-1.051-1.27-2.157a.733.733,0,0,0-.81-.33.75.75,0,0,0-.527.692,5.288,5.288,0,0,1-.709,2.57,1.512,1.512,0,0,1-1.673.66l.429.33c-.524-1.227-1.2-2.841-.3-4.025a1.221,1.221,0,0,1,1.312-.531,3.9,3.9,0,0,1,1.64,1.192c.649.659,1.664-.356,1.015-1.014Z" transform="translate(-645.324 -893.306)" fill="#c8625e"/>
          </g>
        </g>
        <g id="Grupo_1113135" data-name="Grupo 1113135" transform="translate(31.588 2.893)">
          <g id="Grupo_1113127" data-name="Grupo 1113127" transform="translate(23.872 177.393)">
            <path id="Trazado_900218" data-name="Trazado 900218" d="M720.389,1606.327l.34,3.395s1.358,9.166,2.037,26.48H661.319s0-16.3,3.734-26.819l7.129-3.395Z" transform="translate(-661.319 -1605.988)" fill="#7e4743"/>
            <path id="Trazado_900219" data-name="Trazado 900219" d="M861,1636.1q-1.451,0-2.972-.034c-7.448-.168-13.439-.929-13.5-.937a.447.447,0,0,1,.114-.887c.237.031,23.8,2.986,36.109-1.672a.447.447,0,0,1,.316.836C876.34,1635.2,869.6,1636.1,861,1636.1Z" transform="translate(-821.503 -1629.254)" fill="#733824"/>
            <path id="Trazado_900220" data-name="Trazado 900220" d="M961.381,1662.728a.447.447,0,0,1-.415-.612l2.173-5.483a.447.447,0,0,1,.215-.235,10.394,10.394,0,0,0,3.551-2.886c.707-1.178,1.568-9.664,1.974-15.08a.447.447,0,1,1,.892.067c-.105,1.4-1.057,13.735-2.1,15.473a10.672,10.672,0,0,1-3.764,3.145l-2.112,5.328A.446.446,0,0,1,961.381,1662.728Z" transform="translate(-923.835 -1634.052)" fill="#733824"/>
          </g>
          <g id="Grupo_1113128" data-name="Grupo 1113128" transform="translate(79.8)">
            <path id="Trazado_900221" data-name="Trazado 900221" d="M1156.376,190.836s3.565,1.528,4.074,1.867-2.546,2.971-2.546,2.971a8.619,8.619,0,0,1-2.207-2.8A2.09,2.09,0,0,1,1156.376,190.836Z" transform="translate(-1150.349 -188.672)" fill="#ffab83"/>
            <path id="Trazado_900222" data-name="Trazado 900222" d="M1115.878,195.681l27.922-2.1s1.358.443.679,3.321l-28.686,1.771s-2.716-.775-2.8-1.107S1115.878,195.681,1115.878,195.681Z" transform="translate(-1112.99 -191.075)" fill="#4a3937"/>
            <path id="Trazado_900223" data-name="Trazado 900223" d="M1190.46,244.429s.17,6.45,1.358,8.487,5.177,4.922,5.177,4.922l4.838-5.092,1.358-8.657-5.092-3.9Z" transform="translate(-1180.867 -231.911)" fill="#ffab83"/>
            <path id="Trazado_900224" data-name="Trazado 900224" d="M1185.21,197.8s-.113-7.073-.453-8.6-1.018-4.074-2.207-5.092-4.074-3.395-5.262-4.244-3.055-2.546-4.413-2.886-5.092,3.565-6.45,4.922-2.207,2.207-1.7,3.395,1.188,1.188,1.867,3.225,1.867,1.528,2.207,2.207,1.188,3.055,1.867,3.565,5.092.34,5.092.34a2.4,2.4,0,0,0-.679-2.716,7.858,7.858,0,0,0-2.376-1.528l3.225-2.376a3.8,3.8,0,0,0,.509,2.376,17.434,17.434,0,0,1,1.188,1.7l-2.546,7.3-.764,3.055A19.221,19.221,0,0,0,1185.21,197.8Z" transform="translate(-1158.19 -176.513)" fill="#ffab83"/>
            <path id="Trazado_900225" data-name="Trazado 900225" d="M1171.89,196.681a.447.447,0,0,1-.422-.594l2.476-7.1a17.233,17.233,0,0,0-1.045-1.473,3.317,3.317,0,0,1-.607-1.771l-1.908,1.406a10.132,10.132,0,0,1,1.8,1.277,2.838,2.838,0,0,1,.793,3.234.447.447,0,0,1-.391.265c-1.375.053-4.65.117-5.378-.429a8.4,8.4,0,0,1-1.668-2.969c-.135-.319-.251-.595-.331-.753-.041-.082-.145-.13-.391-.227a2.824,2.824,0,0,1-1.84-2.038,5.369,5.369,0,0,0-1.095-2.006,4.552,4.552,0,0,1-.759-1.184c-.628-1.466.387-2.482,1.792-3.887l.343-.345c3.018-3.043,5.284-5.008,6.531-4.695a.447.447,0,1,1-.217.867c-.14-.035-.735-.03-2.542,1.488-1.159.973-2.35,2.174-3.138,2.969l-.346.348c-1.382,1.382-1.977,2.029-1.6,2.9a3.713,3.713,0,0,0,.629.969,6.207,6.207,0,0,1,1.252,2.291,1.958,1.958,0,0,0,1.322,1.49,1.425,1.425,0,0,1,.861.658c.092.184.214.471.354.8a9.75,9.75,0,0,0,1.381,2.6,16.378,16.378,0,0,0,4.494.261,1.923,1.923,0,0,0-.643-1.943,7.606,7.606,0,0,0-2.225-1.441.448.448,0,0,1-.122-.784l3.225-2.376a.447.447,0,0,1,.709.409,3.283,3.283,0,0,0,.414,2.048,17.65,17.65,0,0,1,1.222,1.747.447.447,0,0,1,.039.377l-2.546,7.3A.447.447,0,0,1,1171.89,196.681Z" transform="translate(-1154.998 -173.362)" fill="#e67754"/>
            <path id="Trazado_900226" data-name="Trazado 900226" d="M1195.382,242.209a.447.447,0,0,1-.433-.339c-.125-.5.01-1.4,2.171-3.961,1.145-1.357,2.348-2.562,2.36-2.574a.447.447,0,1,1,.632.632c-.012.012-1.191,1.194-2.312,2.522-2.08,2.466-2,3.1-1.984,3.164a.447.447,0,0,1-.434.556Z" transform="translate(-1184.772 -227.547)" fill="#e67754"/>
            <path id="Trazado_900227" data-name="Trazado 900227" d="M1177.7,221.308a.447.447,0,0,1-.415-.613c.355-.889,4.528-5.089,5.361-5.921a.447.447,0,0,1,.632.632,54.856,54.856,0,0,0-5.163,5.621A.446.446,0,0,1,1177.7,221.308Z" transform="translate(-1169.293 -209.531)" fill="#e67754"/>
            <path id="Trazado_900228" data-name="Trazado 900228" d="M1168.1,213.6l-.045,0a.447.447,0,0,1-.4-.489c.184-1.843,4.3-4.9,4.764-5.239a.447.447,0,0,1,.528.722c-1.644,1.2-4.293,3.515-4.4,4.606A.446.446,0,0,1,1168.1,213.6Z" transform="translate(-1160.887 -203.524)" fill="#e67754"/>
          </g>
          <g id="Grupo_1113130" data-name="Grupo 1113130" transform="translate(32.303 180.519)">
            <g id="Grupo_1113129" data-name="Grupo 1113129">
              <path id="Trazado_900229" data-name="Trazado 900229" d="M729.4,1638.35a16.81,16.81,0,0,0,.727,4.765,45.986,45.986,0,0,0,2.16,5.388c.72,1.306,2.88,2.939,3.456,3.755a3.151,3.151,0,0,0,3.312.816c.864-.49.576-1.306,1.3-1.469a11.849,11.849,0,0,0,2.688-.653c.48-.326.96-1.959,1.344-2.177a14.952,14.952,0,0,0,1.92-.871,8.411,8.411,0,0,0,1.056-1.633s1.44-.98,1.536-1.524a7.568,7.568,0,0,0-.672-2.286,6.558,6.558,0,0,0,2.367,1.179c1.344.327,2.616.409,3.48-.679a33.758,33.758,0,0,1-4.159-3.48,56.434,56.434,0,0,0-6.1-5.946,19.363,19.363,0,0,0-5.3-2.259S733.772,1630.24,729.4,1638.35Z" transform="translate(-729.404 -1631.234)" fill="#ffab83"/>
              <path id="Trazado_900230" data-name="Trazado 900230" d="M864.772,1696.1a.447.447,0,0,1-.386-.222l-1.905-3.263a.447.447,0,0,1,.772-.451l1.905,3.263a.447.447,0,0,1-.386.672Z" transform="translate(-845.949 -1684.43)" fill="#e67754"/>
            </g>
            <path id="Trazado_900231" data-name="Trazado 900231" d="M851.9,1735.68a.445.445,0,0,1-.265-.087l-2.738-2.017a.447.447,0,1,1,.53-.72l2.738,2.017a.447.447,0,0,1-.266.807Z" transform="translate(-833.942 -1720.197)" fill="#e67754"/>
            <path id="Trazado_900232" data-name="Trazado 900232" d="M826.482,1761.695a.443.443,0,0,1-.169-.033l-2.934-1.2a.447.447,0,0,1,.338-.828l2.934,1.2a.447.447,0,0,1-.169.861Z" transform="translate(-811.499 -1743.708)" fill="#e67754"/>
            <path id="Trazado_900233" data-name="Trazado 900233" d="M794.663,1779.491a.446.446,0,0,1-.25-.077l-2.828-1.913a.447.447,0,0,1,.5-.741l2.829,1.913a.447.447,0,0,1-.251.818Z" transform="translate(-783.713 -1758.673)" fill="#e67754"/>
          </g>
          <g id="Grupo_1113132" data-name="Grupo 1113132" transform="translate(0 21.287)">
            <path id="Trazado_900234" data-name="Trazado 900234" d="M677.417,1090.1s-2.376,10.425-3.734,21.288-2.037,22.222-1.358,28.333a36.621,36.621,0,0,1-.34,11.882,10.813,10.813,0,0,1-2.037,2.716s-15.956,3.055-27.159,2.376a166.745,166.745,0,0,1-21.048-2.716l-17.992-34.047,19.69-27.456Z" transform="translate(-587.005 -997.873)" fill="#9d768b"/>
            <path id="Trazado_900235" data-name="Trazado 900235" d="M599.242,413.739a52.864,52.864,0,0,1-7.186,4.419c-3.355,1.8-6.918,3.494-9.109,4.407-4.073,1.7-21.386,14.937-21.386,14.937s-55.337,9.336-55.846,10.864c-.01.031-.022.065-.031.1-.024.069-.045.146-.069.23-.014.048-.029.1-.043.151-.045.158-.1.337-.148.536l-.007.029-.007.031c-.029.112-.06.227-.093.352-.024.1-.05.2-.077.3-.007.024-.012.05-.019.074q-.032.118-.065.244c-.072.282-.151.583-.234.9-.029.1-.055.208-.084.316-.069.265-.144.543-.222.827l-.237.851a61.417,61.417,0,0,1-2.736,7.863c-2.377,5.431-4.075,7.186-4.075,7.186a18.971,18.971,0,0,1,1.358,3.9c.849,3.056,3.226,12.66,4.414,14.867s3.9,4.414,5.6,7.468a16.661,16.661,0,0,1,1.868,6.452,2.781,2.781,0,0,1,.536.378,3.148,3.148,0,0,1,.758,1.047,4.971,4.971,0,0,1,.406,2.071c0,.043,0,.067,0,.067-3.848-.411-7.471,4.513-8.712,6.4a.222.222,0,0,0-.014.024c-.285.433-.44.7-.44.7a3.572,3.572,0,0,1-2.547-1.865s-1.425-.524-3.183-1.26a34.109,34.109,0,0,1-5.644-2.815c-2.377-1.7-3.056-5.431-8.827-11.543a55.642,55.642,0,0,1-8.236-11.634,29.025,29.025,0,0,1-3.307-8.834c-.385-2.882.753-7.052,2.059-11.118,1-3.118,2.1-6.172,2.7-8.53,1.358-5.431,9.676-25.97,13.408-30.043s4.924-5.6,10.015-8.657c5-3,16.2-8.284,16.623-8.482h0a.027.027,0,0,0,.01,0s4.29-.545,8.937-1.059c3.334-.368,6.849-.72,9.1-.844.548-.031,1.021-.048,1.4-.048,4.075,0,21.133-1.019,24.7-2.547s15.023-6.366,15.023-6.366c-.509-1.528-2.037-12.985-3.819-18.842s-3.623-11.371-4.3-16.69.452-6.792.452-6.792a7.431,7.431,0,0,1-.82-3.845c5.122-.67,10.713-4.52,10.886-4.639,0,0,0,0,0,0,1.7.906,2.434,3.963,2.434,3.963a20,20,0,0,1,4.922,5.431c1.7,3.056,7.129,13.918,8.827,20.37s8.147,19.009,8.827,23.424a18.439,18.439,0,0,1,.194,2.382C603.268,405.355,602.092,411.46,599.242,413.739Z" transform="translate(-471.15 -345.276)" fill="#9d768b"/>
            <path id="Trazado_900236" data-name="Trazado 900236" d="M693.662,1231.363h-.03a.447.447,0,0,1-.416-.475c0-.05.113-2.282-1.465-3.143a.447.447,0,0,1-.233-.37,16.337,16.337,0,0,0-1.811-6.255,25.6,25.6,0,0,0-3.15-4.222,19.731,19.731,0,0,1-2.455-3.252c-.966-1.793-2.639-8.133-3.747-12.328-.283-1.072-.527-2-.7-2.631a19.52,19.52,0,0,0-1.312-3.8.45.45,0,0,1,.064-.538c.016-.016,1.683-1.791,3.986-7.054a72.631,72.631,0,0,0,3.522-10.809c.081-.312.155-.6.223-.854.143-.539.237-.868.314-1.1a.447.447,0,1,1,.848.283c-.07.211-.162.534-.3,1.047-.068.255-.142.54-.222.85a73.433,73.433,0,0,1-3.568,10.943,30.93,30.93,0,0,1-3.95,7.074,25.814,25.814,0,0,1,1.255,3.716c.178.639.423,1.567.706,2.642,1.03,3.9,2.754,10.432,3.67,12.132a19.168,19.168,0,0,0,2.345,3.092,26.672,26.672,0,0,1,3.254,4.371,16.987,16.987,0,0,1,1.905,6.4c1.868,1.205,1.722,3.748,1.714,3.859A.447.447,0,0,1,693.662,1231.363Z" transform="translate(-652.306 -1071.584)" fill="#875b77"/>
            <path id="Trazado_900237" data-name="Trazado 900237" d="M500.718,1418.347l-.045,0a3.908,3.908,0,0,1-2.812-1.948c-.418-.157-1.632-.617-3.046-1.21a34.785,34.785,0,0,1-5.73-2.863,11.943,11.943,0,0,1-2.913-3.682,44.689,44.689,0,0,0-5.979-7.918,56.237,56.237,0,0,1-8.306-11.731,29.35,29.35,0,0,1-3.356-8.984.447.447,0,0,1,.886-.118,28.491,28.491,0,0,0,3.259,8.683,55.308,55.308,0,0,0,8.166,11.537,45.5,45.5,0,0,1,6.09,8.062,11.407,11.407,0,0,0,2.672,3.424,32.217,32.217,0,0,0,5.556,2.766c1.728.724,3.151,1.248,3.165,1.253a.447.447,0,0,1,.246.219,3.145,3.145,0,0,0,2.192,1.621.447.447,0,0,1-.044.892Z" transform="translate(-468.527 -1251.44)" fill="#875b77"/>
            <path id="Trazado_900238" data-name="Trazado 900238" d="M1246.8,379.079a1.224,1.224,0,0,1-.186-.009.447.447,0,0,1,.145-.882c.78.041,9.465-.646,12.082-4.341a.447.447,0,1,1,.73.517C1256.742,378.357,1248.223,379.079,1246.8,379.079Zm-.036-.89.025,0Z" transform="translate(-1149.953 -370.144)" fill="#875b77"/>
            <path id="Trazado_900239" data-name="Trazado 900239" d="M1311.586,760.709a.446.446,0,0,1-.344-.161c-1.747-2.1-3.011-7.758-3.063-8a.447.447,0,0,1,.873-.193c.013.057,1.269,5.689,2.877,7.618a.447.447,0,0,1-.343.733Z" transform="translate(-1204.201 -701.644)" fill="#875b77"/>
            <path id="Trazado_900240" data-name="Trazado 900240" d="M574.223,1319.489a.444.444,0,0,1-.237-.068c-3.466-2.175-6.911-2.846-10.238-1.994a10.483,10.483,0,0,0-4,1.95.447.447,0,0,1-.594-.669,11.164,11.164,0,0,1,4.322-2.135c2.466-.642,6.373-.8,10.98,2.091a.447.447,0,0,1-.238.826Z" transform="translate(-547.805 -1195.964)" fill="#875b77"/>
            <path id="Trazado_900241" data-name="Trazado 900241" d="M704.763,1609.367a.447.447,0,0,1-.422-.594,13.6,13.6,0,0,1,6.3-7.778,11.051,11.051,0,0,1,4.107-1.347.447.447,0,0,1,.064.892h0a10.4,10.4,0,0,0-3.781,1.261,12.658,12.658,0,0,0-5.844,7.266A.448.448,0,0,1,704.763,1609.367Z" transform="translate(-675.12 -1444.326)" fill="#875b77"/>
            <path id="Trazado_900242" data-name="Trazado 900242" d="M742.045,1116.138a.448.448,0,0,1-.436-.546l2.173-9.561a.447.447,0,0,1,.872.2l-2.173,9.561A.448.448,0,0,1,742.045,1116.138Z" transform="translate(-707.785 -1011.527)" fill="#875b77"/>
            <path id="Trazado_900243" data-name="Trazado 900243" d="M818.46,857.253A15.959,15.959,0,0,1,807.9,853.7a11.966,11.966,0,0,1-3.059-3.737.447.447,0,0,1,.812-.374h0a11.328,11.328,0,0,0,2.857,3.456,15.214,15.214,0,0,0,10.322,3.307c5.186-.094,8.529-1.217,9.937-3.338,1.235-1.86.724-4.176.078-5.791a.447.447,0,0,1,.83-.332c.725,1.814,1.286,4.434-.163,6.618-1.58,2.38-5.168,3.637-10.666,3.737Q818.655,857.253,818.46,857.253Z" transform="translate(-763.166 -784.536)" fill="#875b77"/>
            <path id="Trazado_900244" data-name="Trazado 900244" d="M1165.693,1055.379a.448.448,0,0,1-.439-.535c.032-.158,3.175-15.888,3.69-19.436a45.927,45.927,0,0,0,.38-7.193.447.447,0,0,1,.894-.034,46.919,46.919,0,0,1-.388,7.355c-.518,3.571-3.666,19.324-3.7,19.483A.448.448,0,0,1,1165.693,1055.379Z" transform="translate(-1078.975 -943.245)" fill="#875b77"/>
            <path id="Trazado_900245" data-name="Trazado 900245" d="M479.13,1302.266c0,6.581-2.925,9.869-4.223,11.005a29.028,29.028,0,0,1-3.307-8.834c-.385-2.882.753-7.052,2.059-11.118C475.163,1293.717,479.13,1295.413,479.13,1302.266Z" transform="translate(-471.152 -1175.93)" fill="#875b77"/>
            <g id="Grupo_1113131" data-name="Grupo 1113131" transform="translate(40.299 90.261)">
              <path id="Trazado_900246" data-name="Trazado 900246" d="M819.112,1077.755c-1.812,1.208-.6,14.5-1.208,18.426s-2.719,9.666-1.51,10.572,18.728,0,21.145.6,13.14-.906,14.348-2.115,1.964-12.385,1.964-15.1.3-14.5-.3-15.708-17.218,3.323-21.447,3.021S819.112,1077.755,819.112,1077.755Z" transform="translate(-813.297 -1074.227)" fill="#ebccc6"/>
              <path id="Trazado_900247" data-name="Trazado 900247" d="M795.19,1228.15l-1.208,4.229s7.854-.6,11.479,2.719,2.719,10.572,2.719,10.572l3.927.3s3.842-7.8.3-13.593C809.085,1226.942,795.19,1228.15,795.19,1228.15Z" transform="translate(-793.982 -1208.991)" fill="#bf9b84"/>
              <path id="Trazado_900248" data-name="Trazado 900248" d="M978.416,1158.966l.712-2.493s-4.629.356-6.766-1.6-1.6-6.232-1.6-6.232l-2.315-.178s-2.265,4.6-.178,8.012C970.226,1159.678,978.416,1158.966,978.416,1158.966Z" transform="translate(-945.912 -1139.269)" fill="#bf9b84"/>
              <path id="Trazado_900249" data-name="Trazado 900249" d="M1031.191,1124.1c3.259,1.725-1.812,9.968-5.135,6.645S1026.054,1121.384,1031.191,1124.1Z" transform="translate(-996.15 -1117.327)" fill="#bf9b84"/>
            </g>
            <path id="Trazado_900250" data-name="Trazado 900250" d="M1450.622,806.943a52.869,52.869,0,0,1-7.186,4.419c-1.724-11.323,7.32-15.907,11.115-17.314C1454.647,798.559,1453.472,804.664,1450.622,806.943Z" transform="translate(-1322.53 -738.48)" fill="#875b77"/>
          </g>
          <g id="Grupo_1113133" data-name="Grupo 1113133" transform="translate(45.107 68.923)">
            <path id="Trazado_900251" data-name="Trazado 900251" d="M851.086,746.761s-.62,4.632-9.078,4.179c-8.167-.437-9.2-5.841-9.2-5.841s.792-6.191,1.746-11.34c.332-1.817.591-3.185.675-3.561.322-1.442,4.969,4.81,8.335,6.091s6.733,2.726,7.375,2.4l.089,5.378Z" transform="translate(-832.811 -729.984)" fill="#ffab83"/>
            <path id="Trazado_900252" data-name="Trazado 900252" d="M863.387,744.071c-2.3.289-6.769.475-10.188-1.69-2.868-1.817-5.317-6.551-6.287-8.622.332-1.817.591-3.185.675-3.561.322-1.442,4.969,4.81,8.335,6.091s6.733,2.726,7.375,2.4Z" transform="translate(-845.167 -729.984)" fill="#e67754"/>
          </g>
          <g id="Grupo_1113134" data-name="Grupo 1113134" transform="translate(37.216 38.125)">
            <path id="Trazado_900253" data-name="Trazado 900253" d="M833.362,543.177a54.7,54.7,0,0,1,3.1,9.3c.641,3.633-10.473,10.793-10.473,10.793l-7.694-2.03-10.366-15.923,4.381-7.587,16.243-2.351S832.507,539.971,833.362,543.177Z" transform="translate(-803.119 -528.676)" fill="#ffab83"/>
            <path id="Trazado_900254" data-name="Trazado 900254" d="M777.316,495.123c-.534,1.6,1.6,3.42,2.885,5.878s.214,3.954,1.282,6.519,4.7,5.664,5.343,5.984,2.992.641,3.42.107.962-3.74,1.6-4.381,3.1-2.672,4.275-2.565,2.992.107,3.633-.962a2.126,2.126,0,0,1,2.672-.641c.534.321,1.069,6.3,1.176,7.908s.855,4.275.107,5.664-5.022,3.526-12.4,3.42a11,11,0,0,1-9.938-6.091l-4.275-6.839-2.137,1.5s-2.565-1.923-2.885-4.168-2.992-2.351-2.992-6.519,3.42-5.45,3.847-7.16.855-6.3,2.885-7.694,3.313-.748,6.3-1.71,1.6-2.458,5.45-2.03,4.168,1.389,5.664,2.03,4.274,0,5.664,2.458.962,5.664.855,7.053a25.313,25.313,0,0,1-.427,2.885s-2.382-4.593-3.847-5.343c-1-.513-3.42,0-4.488.321s-3.206-.962-6.091,0-2.885,3.1-4.381,3.633A17.487,17.487,0,0,1,777.316,495.123Z" transform="translate(-769.087 -481.263)" fill="#7a4133"/>
            <path id="Trazado_900255" data-name="Trazado 900255" d="M816.407,694.672s-2.885-1.282-3.313.107.321,3.42,1.282,4.809,3.954,2.351,5.45,1.069Z" transform="translate(-807.538 -667.774)" fill="#ffab83"/>
            <path id="Trazado_900256" data-name="Trazado 900256" d="M980.652,605.913a3.882,3.882,0,0,1-1.05-.128.447.447,0,1,1,.26-.855,3.908,3.908,0,0,0,2.419-.25,1.6,1.6,0,0,0,1.092-1.724c-.107-.161-.553-.684-.949-1.149a19.765,19.765,0,0,1-2.9-3.883,29.744,29.744,0,0,1-.874-3.489.447.447,0,1,1,.878-.167,29.5,29.5,0,0,0,.836,3.351,22.7,22.7,0,0,0,2.738,3.609,7.078,7.078,0,0,1,1.113,1.425,2.463,2.463,0,0,1-1.584,2.85A5.024,5.024,0,0,1,980.652,605.913Zm2.736-2.934h0Z" transform="translate(-952.696 -579.956)" fill="#e67754"/>
            <path id="Trazado_900257" data-name="Trazado 900257" d="M925.739,628.347c-1.389.748.16,3.633,1.389,3.152S927.485,627.408,925.739,628.347Z" transform="translate(-905.862 -609.999)" fill="#4a3937"/>
            <path id="Trazado_900258" data-name="Trazado 900258" d="M899.446,599.13c.18.474-2.351,1.389-3.313,1.977s-1.5,1.924-1.977,1.71,0-2.244.748-3.152S899.019,598.008,899.446,599.13Z" transform="translate(-878.501 -584.041)" fill="#7a4133"/>
            <path id="Trazado_900259" data-name="Trazado 900259" d="M892.527,684.978c.52,1.8-5.664,2.229-5.878.615S891.993,683.133,892.527,684.978Z" transform="translate(-872.087 -658.838)" fill="#e67754" opacity="0.5"/>
            <path id="Trazado_900260" data-name="Trazado 900260" d="M959.156,703.719a7.15,7.15,0,0,1-1.76-.22.447.447,0,0,1,.241-.861,6.085,6.085,0,0,0,2.464.1,5.567,5.567,0,0,0,1.808-.852,7.167,7.167,0,0,1,1.676-.848c.279-.085.528-.154.748-.214.755-.208,1.07-.3,1.26-.576a.447.447,0,1,1,.733.513,2.793,2.793,0,0,1-1.755.926c-.214.059-.457.126-.725.208a6.4,6.4,0,0,0-1.463.751,6.333,6.333,0,0,1-2.106.969A5.724,5.724,0,0,1,959.156,703.719Z" transform="translate(-933.793 -672.965)" fill="#623029"/>
            <path id="Trazado_900261" data-name="Trazado 900261" d="M958.282,717.478a.447.447,0,0,1-.443-.395,1.809,1.809,0,0,1,.615-1.7l.513.733.009-.007a.942.942,0,0,0-.249.87.447.447,0,0,1-.392.5Z" transform="translate(-934.452 -686.393)" fill="#623029"/>
            <path id="Trazado_900262" data-name="Trazado 900262" d="M1000.241,727.8a.447.447,0,0,1-.067-.889c.979-.151,2.622-.708,2.886-1.169a.447.447,0,1,1,.776.444c-.64,1.119-3.5,1.6-3.526,1.609A.438.438,0,0,1,1000.241,727.8Z" transform="translate(-971.227 -695.271)" fill="#623029"/>
            <path id="Trazado_900263" data-name="Trazado 900263" d="M997.86,606.649c.9-.469,1.71,2.458.962,2.832S996.632,607.29,997.86,606.649Z" transform="translate(-969.114 -591.079)" fill="#4a3937"/>
            <path id="Trazado_900264" data-name="Trazado 900264" d="M983.012,577.7c.276.331,1.282-.588,1.817-.641s1.282-.053,1.282-.053l-.748-1.5a2.638,2.638,0,0,0-1.6.534C983.226,576.577,982.745,577.378,983.012,577.7Z" transform="translate(-956.457 -563.838)" fill="#7a4133"/>
            <path id="Trazado_900265" data-name="Trazado 900265" d="M830.379,720a.447.447,0,0,1-.366-.19c-1.219-1.732-2.629-1.206-2.643-1.2a.447.447,0,1,1-.326-.833,3.237,3.237,0,0,1,3.7,1.518.447.447,0,0,1-.365.7Z" transform="translate(-819.618 -688.367)" fill="#e67754"/>
          </g>
        </g>
        <g id="Grupo_1113137" data-name="Grupo 1113137" transform="translate(130.75 130.376)">
          <path id="Trazado_900266" data-name="Trazado 900266" d="M1307.11,1227.492h-35.393a2.358,2.358,0,0,1-2.355-2.355v-19.862a2.358,2.358,0,0,1,2.355-2.356h35.393a2.358,2.358,0,0,1,2.356,2.356v19.862A2.359,2.359,0,0,1,1307.11,1227.492Zm-35.394-23.679a1.463,1.463,0,0,0-1.461,1.461v19.862a1.463,1.463,0,0,0,1.461,1.462h35.393a1.463,1.463,0,0,0,1.462-1.462v-19.862a1.463,1.463,0,0,0-1.462-1.461Z" transform="translate(-1269.361 -1202.919)" fill="#99b8e7"/>
          <g id="Grupo_1113136" data-name="Grupo 1113136" transform="translate(10.99 3.224)">
            <path id="Trazado_900267" data-name="Trazado 900267" d="M1376.242,1238.017a9.062,9.062,0,1,1-1.748-5.352A9.044,9.044,0,0,1,1376.242,1238.017Z" transform="translate(-1358.118 -1228.954)" fill="#99b8e7"/>
            <path id="Trazado_900268" data-name="Trazado 900268" d="M1438.624,1232.667l-7.313,5.352v-9.063A9.047,9.047,0,0,1,1438.624,1232.667Z" transform="translate(-1422.248 -1228.956)" fill="#ffb454"/>
            <path id="Trazado_900269" data-name="Trazado 900269" d="M1440.375,1264.28a9.045,9.045,0,0,1-3.379,7.059l-5.682-7.059,7.313-5.352A9.015,9.015,0,0,1,1440.375,1264.28Z" transform="translate(-1422.251 -1255.216)" fill="#ffe3cc"/>
          </g>
        </g>
      </g>
    </g>
  </g>
</svg>
