<svg xmlns="http://www.w3.org/2000/svg" width="110" height="110" viewBox="0 0 110 110">
  <g id="Grupo_1113058" data-name="Grupo 1113058" transform="translate(-210 -569)">
    <rect id="Rectángulo_406418" data-name="Rectángulo 406418" width="110" height="110" rx="10" transform="translate(210 569)" fill="#d082fa"/>
    <g id="_x30_5_Abacus" transform="translate(215.985 574.985)">
      <g id="Grupo_1113057" data-name="Grupo 1113057" transform="translate(6 6)">
        <path id="Trazado_900060" data-name="Trazado 900060" d="M92.029,49.017A43.015,43.015,0,1,1,49.012,6,43.014,43.014,0,0,1,92.029,49.017Z" transform="translate(-6 -6)" fill="#f5e5fe"/>
        <g id="Grupo_1113056" data-name="Grupo 1113056" transform="translate(15.342 15.714)">
          <path id="Trazado_900061" data-name="Trazado 900061" d="M132.706,151.8h42.428v3.413H132.706Z" transform="translate(-126.247 -142.43)" fill="#fff"/>
          <path id="Trazado_900062" data-name="Trazado 900062" d="M132.706,246.081h42.428v3.413H132.706Z" transform="translate(-126.247 -220.487)" fill="#fff"/>
          <path id="Trazado_900063" data-name="Trazado 900063" d="M132.706,340.359h42.428v3.413H132.706Z" transform="translate(-126.247 -298.544)" fill="#fff"/>
          <path id="Trazado_900064" data-name="Trazado 900064" d="M105.076,104.368v47.425a2.871,2.871,0,0,1-5.742,0V104.368a2.871,2.871,0,0,1,5.742,0Z" transform="translate(-98.617 -100.78)" fill="#40aae8"/>
          <path id="Trazado_900065" data-name="Trazado 900065" d="M385.037,104.368v47.425a2.871,2.871,0,1,1-5.742,0V104.368a2.871,2.871,0,0,1,5.742,0Z" transform="translate(-330.408 -100.78)" fill="#40aae8"/>
          <g id="Grupo_1113055" data-name="Grupo 1113055" transform="translate(10.636 7.38)">
            <circle id="Elipse_11637" data-name="Elipse 11637" cx="3.699" cy="3.699" r="3.699" fill="#e0e0e0"/>
            <circle id="Elipse_11638" data-name="Elipse 11638" cx="3.699" cy="3.699" r="3.699" transform="translate(1.553 16.221)" fill="#e0e0e0"/>
            <circle id="Elipse_11639" data-name="Elipse 11639" cx="3.699" cy="3.699" r="3.699" transform="translate(12.712 16.221)" fill="#e0e0e0"/>
            <circle id="Elipse_11640" data-name="Elipse 11640" cx="3.699" cy="3.699" r="3.699" transform="translate(23.872 16.221)" fill="#e0e0e0"/>
            <circle id="Elipse_11641" data-name="Elipse 11641" cx="3.699" cy="3.699" r="3.699" transform="translate(10.723)" fill="#e0e0e0"/>
            <circle id="Elipse_11642" data-name="Elipse 11642" cx="3.699" cy="3.699" r="3.699" transform="translate(26.702)" fill="#e0e0e0"/>
            <circle id="Elipse_11643" data-name="Elipse 11643" cx="3.699" cy="3.699" r="3.699" transform="translate(26.702 32.443)" fill="#e0e0e0"/>
            <circle id="Elipse_11644" data-name="Elipse 11644" cx="3.699" cy="3.699" r="3.699" transform="translate(15.979 32.443)" fill="#e0e0e0"/>
            <circle id="Elipse_11645" data-name="Elipse 11645" cx="3.699" cy="3.699" r="3.699" transform="translate(0 32.443)" fill="#e0e0e0"/>
          </g>
          <path id="Trazado_900066" data-name="Trazado 900066" d="M145.2,142.177a.717.717,0,0,0,.717.717h1.322a4.408,4.408,0,0,0,7.376,0h3.347a4.408,4.408,0,0,0,7.376,0h8.6a4.408,4.408,0,0,0,7.376,0h1.295a.717.717,0,0,0,0-1.434h-.682a4.283,4.283,0,0,0,0-1.979h.683a.717.717,0,0,0,0-1.434h-1.3a4.408,4.408,0,0,0-7.374,0h-8.606a4.408,4.408,0,0,0-7.374,0h-3.349a4.408,4.408,0,0,0-7.374,0h-1.323a.717.717,0,0,0,0,1.434h.71a4.284,4.284,0,0,0,0,1.979h-.709a.717.717,0,0,0-.718.717Zm32.429-4.687a2.982,2.982,0,1,1-2.982,2.982A2.985,2.985,0,0,1,177.628,137.49Zm-4.3,1.992a4.284,4.284,0,0,0,0,1.979h-7.379a4.283,4.283,0,0,0,0-1.979Zm-11.68-1.992a2.982,2.982,0,1,1-2.982,2.982A2.985,2.985,0,0,1,161.649,137.49Zm-4.3,1.992a4.283,4.283,0,0,0,0,1.979h-2.122a4.284,4.284,0,0,0,0-1.979Zm-6.423-1.992a2.982,2.982,0,1,1-2.982,2.982A2.986,2.986,0,0,1,150.925,137.49Z" transform="translate(-136.59 -129.393)"/>
          <path id="Trazado_900067" data-name="Trazado 900067" d="M145.2,236.457a.717.717,0,0,0,.717.717h2.876a4.409,4.409,0,0,0,7.372,0h3.788a4.409,4.409,0,0,0,7.372,0h3.788a4.409,4.409,0,0,0,7.372,0h4.127a.717.717,0,1,0,0-1.434H179.1a4.284,4.284,0,0,0,0-1.985h3.513a.717.717,0,1,0,0-1.434h-4.127a4.409,4.409,0,0,0-7.372,0h-3.788a4.409,4.409,0,0,0-7.372,0h-3.788a4.409,4.409,0,0,0-7.372,0h-2.876a.717.717,0,1,0,0,1.434h2.263a4.285,4.285,0,0,0,0,1.985h-2.263A.717.717,0,0,0,145.2,236.457Zm29.6-4.691a2.982,2.982,0,1,1-2.982,2.982A2.986,2.986,0,0,1,174.8,231.766Zm-4.3,1.99a4.284,4.284,0,0,0,0,1.985h-2.561a4.284,4.284,0,0,0,0-1.985Zm-6.86-1.99a2.982,2.982,0,1,1-2.982,2.982A2.986,2.986,0,0,1,163.638,231.766Zm-4.3,1.99a4.284,4.284,0,0,0,0,1.985h-2.561a4.285,4.285,0,0,0,0-1.985Zm-6.86-1.99a2.982,2.982,0,1,1-2.982,2.982A2.986,2.986,0,0,1,152.478,231.766Z" transform="translate(-136.591 -207.448)"/>
          <path id="Trazado_900068" data-name="Trazado 900068" d="M145.2,330.735a.717.717,0,0,0,.717.717h1.323a4.409,4.409,0,0,0,7.374,0h8.6a4.409,4.409,0,0,0,7.374,0h3.349a4.408,4.408,0,0,0,7.374,0h1.3a.717.717,0,0,0,0-1.434h-.683a4.283,4.283,0,0,0,0-1.979h.682a.717.717,0,1,0,0-1.434h-1.295a4.408,4.408,0,0,0-7.376,0H170.59a4.408,4.408,0,0,0-7.376,0h-8.6a4.408,4.408,0,0,0-7.376,0h-1.322a.717.717,0,1,0,0,1.434h.709a4.283,4.283,0,0,0,0,1.979h-.71a.717.717,0,0,0-.716.717Zm32.429-4.689a2.982,2.982,0,1,1-2.982,2.982A2.985,2.985,0,0,1,177.626,326.046Zm-4.3,1.994a4.283,4.283,0,0,0,0,1.979H171.2a4.284,4.284,0,0,0,0-1.979Zm-6.423-1.994a2.982,2.982,0,1,1-2.982,2.982A2.985,2.985,0,0,1,166.9,326.046Zm-4.3,1.994a4.284,4.284,0,0,0,0,1.979h-7.379a4.283,4.283,0,0,0,0-1.979Zm-11.679-1.994a2.982,2.982,0,1,1-2.982,2.982A2.986,2.986,0,0,1,150.923,326.046Z" transform="translate(-136.588 -285.506)"/>
          <path id="Trazado_900069" data-name="Trazado 900069" d="M98.755,151.931a3.592,3.592,0,0,0,3.588-3.588V100.918a3.588,3.588,0,1,0-7.176,0v47.425A3.592,3.592,0,0,0,98.755,151.931ZM96.6,100.918a2.154,2.154,0,1,1,4.308,0v47.425a2.154,2.154,0,1,1-4.308,0Z" transform="translate(-95.167 -97.33)"/>
          <path id="Trazado_900070" data-name="Trazado 900070" d="M378.715,97.33a3.592,3.592,0,0,0-3.588,3.588v47.425a3.588,3.588,0,0,0,7.176,0V100.918a3.592,3.592,0,0,0-3.588-3.588Zm2.154,51.013a2.154,2.154,0,1,1-4.308,0V100.918a2.154,2.154,0,0,1,4.308,0Z" transform="translate(-326.957 -97.33)"/>
        </g>
      </g>
    </g>
  </g>
</svg>
