<svg xmlns="http://www.w3.org/2000/svg" width="70" height="70" viewBox="0 0 70 70">
  <g id="Grupo_1113314" data-name="Grupo 1113314" transform="translate(-200.051 -412)">
    <rect id="Rectángulo_406435" data-name="Rectángulo 406435" width="70" height="70" transform="translate(200.051 412)" fill="#d4f0e0"/>
    <g id="Grupo_1113313" data-name="Grupo 1113313" transform="translate(206.051 391.984)">
      <g id="Grupo_1113282" data-name="Grupo 1113282" transform="translate(48.519 41.853)">
        <g id="Grupo_1113281" data-name="Grupo 1113281">
          <path id="Trazado_900706" data-name="Trazado 900706" d="M442.066,148.3c-.044,0-.087,0-.131,0a2.079,2.079,0,0,1-1.952-2.077v-9.075a1.121,1.121,0,1,0-2.242,0v9.075a4.315,4.315,0,0,0,1.414,3.2,4.315,4.315,0,0,0-1.414,3.2v17.709a2.085,2.085,0,0,1-2.083,2.083,1.121,1.121,0,0,0,0,2.242,4.33,4.33,0,0,0,4.325-4.325V152.626a2.078,2.078,0,0,1,1.952-2.077c.044,0,.087,0,.131,0a1.125,1.125,0,0,0,0-2.251Z" transform="translate(-434.538 -136.032)" fill="#905aae"/>
        </g>
      </g>
      <g id="Grupo_1113284" data-name="Grupo 1113284" transform="translate(48.519 30.016)">
        <g id="Grupo_1113283" data-name="Grupo 1113283" transform="translate(0 0)">
          <path id="Trazado_900707" data-name="Trazado 900707" d="M435.659,30.017a1.121,1.121,0,0,0,0,2.242,2.085,2.085,0,0,1,2.083,2.083v1.852a1.121,1.121,0,0,0,2.242,0V34.342A4.33,4.33,0,0,0,435.659,30.017Z" transform="translate(-434.538 -30.017)" fill="#905aae"/>
        </g>
      </g>
      <g id="Grupo_1113286" data-name="Grupo 1113286" transform="translate(0 30.016)">
        <g id="Grupo_1113285" data-name="Grupo 1113285" transform="translate(0 0)">
          <path id="Trazado_900708" data-name="Trazado 900708" d="M7.528,78.239a2.085,2.085,0,0,1-2.083-2.083V58.448a4.315,4.315,0,0,0-1.414-3.2,4.315,4.315,0,0,0,1.414-3.2V34.341a2.085,2.085,0,0,1,2.083-2.083,1.121,1.121,0,0,0,0-2.242A4.33,4.33,0,0,0,3.2,34.341V52.049a2.079,2.079,0,0,1-1.952,2.077c-.044,0-.087,0-.131,0a1.125,1.125,0,0,0,0,2.251c.044,0,.087,0,.131,0A2.079,2.079,0,0,1,3.2,58.448V76.156a4.329,4.329,0,0,0,4.325,4.325,1.121,1.121,0,0,0,0-2.242Z" transform="translate(0 -30.016)" fill="#905aae"/>
        </g>
      </g>
      <g id="Grupo_1113288" data-name="Grupo 1113288" transform="translate(10.834 33.83)">
        <g id="Grupo_1113287" data-name="Grupo 1113287">
          <path id="Trazado_900709" data-name="Trazado 900709" d="M102.418,64.256a1.121,1.121,0,0,0-1.222.243l-3.839,3.839a1.121,1.121,0,0,0,1.585,1.585L100.868,68v6.836a1.121,1.121,0,0,0,2.242,0V65.292A1.121,1.121,0,0,0,102.418,64.256Z" transform="translate(-97.029 -64.171)" fill="#905aae"/>
        </g>
      </g>
      <g id="Grupo_1113290" data-name="Grupo 1113290" transform="translate(10.834 64.883)">
        <g id="Grupo_1113289" data-name="Grupo 1113289" transform="translate(0 0)">
          <path id="Trazado_900710" data-name="Trazado 900710" d="M102.419,342.373a1.121,1.121,0,0,0-1.222.243l-3.839,3.839a1.121,1.121,0,0,0,1.585,1.585l1.926-1.926v6.836a1.121,1.121,0,1,0,2.242,0v-9.543A1.121,1.121,0,0,0,102.419,342.373Z" transform="translate(-97.03 -342.287)" fill="#905aae"/>
        </g>
      </g>
      <g id="Grupo_1113292" data-name="Grupo 1113292" transform="translate(20.711 64.883)">
        <g id="Grupo_1113291" data-name="Grupo 1113291" transform="translate(0 0)">
          <path id="Trazado_900711" data-name="Trazado 900711" d="M190.881,342.373a1.121,1.121,0,0,0-1.222.243l-3.839,3.839a1.121,1.121,0,0,0,1.585,1.585l1.926-1.926v6.836a1.121,1.121,0,1,0,2.242,0v-9.543A1.121,1.121,0,0,0,190.881,342.373Z" transform="translate(-185.492 -342.287)" fill="#905aae"/>
        </g>
      </g>
      <g id="Grupo_1113294" data-name="Grupo 1113294" transform="translate(40.253 49.342)">
        <g id="Grupo_1113293" data-name="Grupo 1113293">
          <path id="Trazado_900712" data-name="Trazado 900712" d="M365.9,203.189a1.122,1.122,0,0,0-1.222.243l-3.839,3.839a1.121,1.121,0,1,0,1.585,1.585l1.926-1.926v6.836a1.121,1.121,0,1,0,2.242,0v-9.543A1.121,1.121,0,0,0,365.9,203.189Z" transform="translate(-360.51 -203.104)" fill="#905aae"/>
        </g>
      </g>
      <g id="Grupo_1113296" data-name="Grupo 1113296" transform="translate(20.072 33.829)">
        <g id="Grupo_1113295" data-name="Grupo 1113295" transform="translate(0 0)">
          <path id="Trazado_900713" data-name="Trazado 900713" d="M187.122,67.849a3.68,3.68,0,1,0-7.361,0v4.424a3.68,3.68,0,0,0,7.361,0V67.849Zm-2.242,4.424a1.438,1.438,0,0,1-2.877,0V67.849a1.438,1.438,0,0,1,2.877,0Z" transform="translate(-179.762 -64.169)" fill="#905aae"/>
        </g>
      </g>
      <g id="Grupo_1113298" data-name="Grupo 1113298" transform="translate(29.87 33.83)">
        <g id="Grupo_1113297" data-name="Grupo 1113297">
          <path id="Trazado_900714" data-name="Trazado 900714" d="M272.905,64.256a1.121,1.121,0,0,0-1.222.243l-3.839,3.839a1.121,1.121,0,0,0,1.585,1.585L271.355,68v6.836a1.121,1.121,0,1,0,2.242,0V65.292A1.121,1.121,0,0,0,272.905,64.256Z" transform="translate(-267.516 -64.171)" fill="#905aae"/>
        </g>
      </g>
      <g id="Grupo_1113300" data-name="Grupo 1113300" transform="translate(39.613 33.829)">
        <g id="Grupo_1113299" data-name="Grupo 1113299">
          <path id="Trazado_900715" data-name="Trazado 900715" d="M358.46,64.17a3.685,3.685,0,0,0-3.68,3.68v4.424a3.68,3.68,0,0,0,7.36,0V67.85A3.684,3.684,0,0,0,358.46,64.17Zm1.438,8.1a1.438,1.438,0,0,1-2.877,0V67.85a1.438,1.438,0,1,1,2.877,0Z" transform="translate(-354.78 -64.17)" fill="#905aae"/>
        </g>
      </g>
      <g id="Grupo_1113302" data-name="Grupo 1113302" transform="translate(10.194 49.342)">
        <g id="Grupo_1113301" data-name="Grupo 1113301">
          <path id="Trazado_900716" data-name="Trazado 900716" d="M94.979,203.1a3.684,3.684,0,0,0-3.68,3.68v4.424a3.68,3.68,0,0,0,7.36,0v-4.424A3.684,3.684,0,0,0,94.979,203.1Zm1.438,8.1a1.438,1.438,0,0,1-2.877,0v-4.424a1.438,1.438,0,0,1,2.877,0Z" transform="translate(-91.299 -203.104)" fill="#905aae"/>
        </g>
      </g>
      <g id="Grupo_1113304" data-name="Grupo 1113304" transform="translate(20.071 49.342)">
        <g id="Grupo_1113303" data-name="Grupo 1113303">
          <path id="Trazado_900717" data-name="Trazado 900717" d="M183.441,203.1a3.684,3.684,0,0,0-3.68,3.68v4.424a3.68,3.68,0,0,0,7.361,0v-4.424A3.684,3.684,0,0,0,183.441,203.1Zm1.438,8.1a1.438,1.438,0,0,1-2.877,0v-4.424a1.438,1.438,0,0,1,2.877,0Z" transform="translate(-179.761 -203.104)" fill="#905aae"/>
        </g>
      </g>
      <g id="Grupo_1113306" data-name="Grupo 1113306" transform="translate(29.949 49.342)">
        <g id="Grupo_1113305" data-name="Grupo 1113305">
          <path id="Trazado_900718" data-name="Trazado 900718" d="M271.906,203.1a3.684,3.684,0,0,0-3.68,3.68v4.424a3.68,3.68,0,1,0,7.36,0v-4.424A3.684,3.684,0,0,0,271.906,203.1Zm1.438,8.1a1.438,1.438,0,1,1-2.876,0v-4.424a1.438,1.438,0,1,1,2.876,0Z" transform="translate(-268.226 -203.104)" fill="#905aae"/>
        </g>
      </g>
      <g id="Grupo_1113308" data-name="Grupo 1113308" transform="translate(29.949 64.883)">
        <g id="Grupo_1113307" data-name="Grupo 1113307" transform="translate(0 0)">
          <path id="Trazado_900719" data-name="Trazado 900719" d="M271.906,342.287a3.684,3.684,0,0,0-3.68,3.68v4.424a3.68,3.68,0,1,0,7.36,0v-4.424A3.684,3.684,0,0,0,271.906,342.287Zm1.438,8.1a1.438,1.438,0,1,1-2.876,0v-4.424a1.438,1.438,0,0,1,2.876,0Z" transform="translate(-268.226 -342.287)" fill="#905aae"/>
        </g>
      </g>
      <g id="Grupo_1113310" data-name="Grupo 1113310" transform="translate(39.613 64.883)">
        <g id="Grupo_1113309" data-name="Grupo 1113309" transform="translate(0 0)">
          <path id="Trazado_900720" data-name="Trazado 900720" d="M358.46,342.287a3.684,3.684,0,0,0-3.68,3.68v4.424a3.68,3.68,0,1,0,7.36,0v-4.424A3.684,3.684,0,0,0,358.46,342.287Zm1.438,8.1a1.438,1.438,0,1,1-2.877,0v-4.424a1.438,1.438,0,0,1,2.877,0Z" transform="translate(-354.78 -342.287)" fill="#905aae"/>
        </g>
      </g>
      <g id="Grupo_1113312" data-name="Grupo 1113312" transform="translate(51.77 38.378)">
        <g id="Grupo_1113311" data-name="Grupo 1113311">
          <path id="Trazado_900721" data-name="Trazado 900721" d="M464.734,104.91a1.122,1.122,0,0,0,0,2.242A1.122,1.122,0,0,0,464.734,104.91Z" transform="translate(-463.652 -104.91)" fill="#905aae"/>
        </g>
      </g>
    </g>
  </g>
</svg>
