<svg xmlns="http://www.w3.org/2000/svg" width="1030" height="270" viewBox="0 0 1030 270">
  <g id="Grupo_1113436" data-name="Grupo 1113436" transform="translate(-285.051 -584)">
    <rect id="Rectángulo_406432" data-name="Rectángulo 406432" width="1030" height="270" rx="10" transform="translate(285.051 584)" fill="#f5e5fe"/>
    <path id="Trazado_900777" data-name="Trazado 900777" d="M0,0H191V40H0Z" transform="translate(733.051 661)" fill="#d082fa"/>
    <path id="Trazado_900778" data-name="Trazado 900778" d="M0,0H191V40H0Z" transform="translate(733.051 763)" fill="#905aae"/>
    <path id="Trazado_900779" data-name="Trazado 900779" d="M5.219-2.82,7.8-11.375h2.609L6.445,0H4L.055-11.375h2.6ZM20.3-3.789A4.025,4.025,0,0,1,18.949-.9,4.76,4.76,0,0,1,15.727.156a4.28,4.28,0,0,1-3.441-1.473,6.038,6.038,0,0,1-1.254-4.043v-.7a6.819,6.819,0,0,1,.578-2.891,4.332,4.332,0,0,1,1.652-1.918,4.629,4.629,0,0,1,2.5-.668,4.637,4.637,0,0,1,3.172,1.055A4.326,4.326,0,0,1,20.32-7.516H17.977a2.376,2.376,0,0,0-.613-1.6,2.271,2.271,0,0,0-1.605-.5A1.991,1.991,0,0,0,14-8.77a4.707,4.707,0,0,0-.6,2.605V-5.3a5.038,5.038,0,0,0,.559,2.7,1.954,1.954,0,0,0,1.762.852,2.314,2.314,0,0,0,1.621-.5,2.241,2.241,0,0,0,.613-1.535Zm10.469,0A4.025,4.025,0,0,1,29.418-.9,4.76,4.76,0,0,1,26.2.156a4.28,4.28,0,0,1-3.441-1.473A6.038,6.038,0,0,1,21.5-5.359v-.7a6.819,6.819,0,0,1,.578-2.891,4.332,4.332,0,0,1,1.652-1.918,4.629,4.629,0,0,1,2.5-.668A4.637,4.637,0,0,1,29.4-10.477a4.326,4.326,0,0,1,1.391,2.961H28.445a2.376,2.376,0,0,0-.613-1.6,2.271,2.271,0,0,0-1.605-.5,1.991,1.991,0,0,0-1.754.84,4.707,4.707,0,0,0-.6,2.605V-5.3a5.038,5.038,0,0,0,.559,2.7,1.954,1.954,0,0,0,1.762.852,2.314,2.314,0,0,0,1.621-.5,2.241,2.241,0,0,0,.613-1.535Z" transform="translate(694.051 641)" fill="#12263f"/>
    <path id="Trazado_900780" data-name="Trazado 900780" d="M6.258,0H4V-8.7l-2.7.836V-9.7l4.711-1.687h.242Zm8.18-3.961h-4.4v-1.82h4.4Zm8.289,2.078H27.7V0h-7.32V-11.375h2.344ZM28.547-4.3a5.013,5.013,0,0,1,.484-2.242A3.546,3.546,0,0,1,30.426-8.07a4.069,4.069,0,0,1,2.113-.539,3.849,3.849,0,0,1,2.793,1.047,4.2,4.2,0,0,1,1.207,2.844l.016.578A4.418,4.418,0,0,1,35.469-1.02,3.775,3.775,0,0,1,32.555.156a3.793,3.793,0,0,1-2.918-1.172A4.5,4.5,0,0,1,28.547-4.2Zm2.258.164a3.151,3.151,0,0,0,.453,1.84,1.5,1.5,0,0,0,1.3.637,1.5,1.5,0,0,0,1.281-.629A3.448,3.448,0,0,0,34.3-4.3a3.12,3.12,0,0,0-.461-1.828,1.5,1.5,0,0,0-1.3-.648,1.475,1.475,0,0,0-1.281.645A3.506,3.506,0,0,0,30.8-4.141ZM32.984-12h2.461L33.281-9.578H31.445Zm4.633,7.711a4.954,4.954,0,0,1,.926-3.133,3,3,0,0,1,2.5-1.187,2.631,2.631,0,0,1,2.164.953l.094-.8h2.047V-.281a3.613,3.613,0,0,1-.5,1.93A3.236,3.236,0,0,1,43.422,2.9a4.985,4.985,0,0,1-2.141.43,4.635,4.635,0,0,1-1.812-.371A3.217,3.217,0,0,1,38.133,2l1-1.375a2.645,2.645,0,0,0,2.047.945,1.936,1.936,0,0,0,1.4-.48,1.8,1.8,0,0,0,.5-1.363V-.727a2.612,2.612,0,0,1-2.055.883,2.992,2.992,0,0,1-2.465-1.191,4.953,4.953,0,0,1-.941-3.16Zm2.258.164a3.076,3.076,0,0,0,.461,1.8,1.467,1.467,0,0,0,1.266.652,1.568,1.568,0,0,0,1.477-.773V-6a1.565,1.565,0,0,0-1.461-.773,1.476,1.476,0,0,0-1.277.664A3.467,3.467,0,0,0,39.875-4.125ZM49.461,0H47.2V-8.453h2.266Zm-2.4-10.641a1.112,1.112,0,0,1,.34-.836,1.277,1.277,0,0,1,.926-.328,1.28,1.28,0,0,1,.922.328,1.105,1.105,0,0,1,.344.836,1.108,1.108,0,0,1-.348.844,1.283,1.283,0,0,1-.918.328A1.283,1.283,0,0,1,47.41-9.8,1.108,1.108,0,0,1,47.063-10.641Zm7.773,8.977a1.481,1.481,0,0,0,1.016-.344,1.2,1.2,0,0,0,.406-.914h2.117a2.9,2.9,0,0,1-.469,1.574A3.093,3.093,0,0,1,56.645-.238a3.949,3.949,0,0,1-1.77.395A3.67,3.67,0,0,1,52.016-1,4.56,4.56,0,0,1,50.969-4.18v-.148a4.508,4.508,0,0,1,1.039-3.117,3.627,3.627,0,0,1,2.852-1.164,3.555,3.555,0,0,1,2.543.9,3.2,3.2,0,0,1,.973,2.4H56.258a1.539,1.539,0,0,0-.406-1.066,1.358,1.358,0,0,0-1.031-.41,1.361,1.361,0,0,0-1.191.574,3.324,3.324,0,0,0-.4,1.863v.234a3.366,3.366,0,0,0,.4,1.875A1.378,1.378,0,0,0,54.836-1.664ZM59.313-4.3A5.013,5.013,0,0,1,59.8-6.547,3.546,3.546,0,0,1,61.191-8.07,4.069,4.069,0,0,1,63.3-8.609,3.849,3.849,0,0,1,66.1-7.562,4.2,4.2,0,0,1,67.3-4.719l.016.578A4.418,4.418,0,0,1,66.234-1.02,3.775,3.775,0,0,1,63.32.156,3.793,3.793,0,0,1,60.4-1.016,4.5,4.5,0,0,1,59.313-4.2Zm2.258.164a3.151,3.151,0,0,0,.453,1.84,1.5,1.5,0,0,0,1.3.637A1.5,1.5,0,0,0,64.6-2.293,3.448,3.448,0,0,0,65.063-4.3,3.12,3.12,0,0,0,64.6-6.133a1.5,1.5,0,0,0-1.3-.648,1.475,1.475,0,0,0-1.281.645A3.506,3.506,0,0,0,61.57-4.141Z" transform="translate(795.051 687)" fill="#12263f"/>
    <path id="Trazado_900781" data-name="Trazado 900781" d="M10.266,0H7.922L3.359-7.484V0H1.016V-11.375H3.359l4.57,7.5v-7.5h2.336Zm1.547-4.3A5.013,5.013,0,0,1,12.3-6.547,3.546,3.546,0,0,1,13.691-8.07,4.069,4.069,0,0,1,15.8-8.609,3.849,3.849,0,0,1,18.6-7.562,4.2,4.2,0,0,1,19.8-4.719l.016.578A4.418,4.418,0,0,1,18.734-1.02,3.775,3.775,0,0,1,15.82.156,3.793,3.793,0,0,1,12.9-1.016,4.5,4.5,0,0,1,11.813-4.2Zm2.258.164a3.151,3.151,0,0,0,.453,1.84,1.5,1.5,0,0,0,1.3.637A1.5,1.5,0,0,0,17.1-2.293,3.448,3.448,0,0,0,17.563-4.3,3.12,3.12,0,0,0,17.1-6.133a1.5,1.5,0,0,0-1.3-.648,1.475,1.475,0,0,0-1.281.645A3.506,3.506,0,0,0,14.07-4.141ZM25.344,0V-11.375h3.5a5.315,5.315,0,0,1,2.684.676,4.712,4.712,0,0,1,1.848,1.922,5.928,5.928,0,0,1,.664,2.832v.523a5.945,5.945,0,0,1-.652,2.82,4.672,4.672,0,0,1-1.84,1.914A5.355,5.355,0,0,1,28.867,0Zm2.344-9.477v7.594H28.82a2.545,2.545,0,0,0,2.1-.9,4.06,4.06,0,0,0,.742-2.57v-.6a4.124,4.124,0,0,0-.719-2.629,2.537,2.537,0,0,0-2.1-.895ZM39.484.156A4.15,4.15,0,0,1,36.457-.984a4.054,4.054,0,0,1-1.168-3.039v-.219a5.106,5.106,0,0,1,.492-2.277,3.612,3.612,0,0,1,1.395-1.547,3.914,3.914,0,0,1,2.059-.543,3.508,3.508,0,0,1,2.73,1.094,4.444,4.444,0,0,1,1,3.1v.922H37.578a2.1,2.1,0,0,0,.66,1.328,2,2,0,0,0,1.395.5,2.437,2.437,0,0,0,2.039-.945l1.109,1.242A3.389,3.389,0,0,1,41.406-.246,4.511,4.511,0,0,1,39.484.156Zm-.258-6.937a1.414,1.414,0,0,0-1.09.453,2.341,2.341,0,0,0-.535,1.3h3.141v-.18a1.669,1.669,0,0,0-.406-1.16A1.459,1.459,0,0,0,39.227-6.781ZM44.789,0V-6.8H43.531V-8.453h1.258v-.391a3.17,3.17,0,0,1,.98-2.457,3.945,3.945,0,0,1,2.723-.863,9.031,9.031,0,0,1,2.563.461l-.328,1.867a10,10,0,0,0-1.187-.293,5.835,5.835,0,0,0-.906-.066q-1.578,0-1.578,1.4v.344h1.664V-6.8H47.055V0Zm7.32,0H49.844V-8.453h2.266Zm3.945-8.453.07.977a2.951,2.951,0,0,1,2.43-1.133,2.453,2.453,0,0,1,2,.789,3.682,3.682,0,0,1,.672,2.359V0H58.969V-5.406a1.465,1.465,0,0,0-.312-1.043,1.4,1.4,0,0,0-1.039-.324,1.553,1.553,0,0,0-1.43.813V0H53.93V-8.453ZM65.32,0H63.055V-8.453H65.32Zm-2.4-10.641a1.112,1.112,0,0,1,.34-.836,1.277,1.277,0,0,1,.926-.328,1.28,1.28,0,0,1,.922.328,1.105,1.105,0,0,1,.344.836,1.108,1.108,0,0,1-.348.844,1.283,1.283,0,0,1-.918.328A1.283,1.283,0,0,1,63.27-9.8,1.108,1.108,0,0,1,62.922-10.641Zm3.906,6.352a5.094,5.094,0,0,1,.887-3.148,2.877,2.877,0,0,1,2.426-1.172,2.589,2.589,0,0,1,2.039.922V-12h2.266V0H72.406L72.3-.9A2.657,2.657,0,0,1,70.125.156,2.869,2.869,0,0,1,67.73-1.02,5.258,5.258,0,0,1,66.828-4.289Zm2.258.164A3.328,3.328,0,0,0,69.5-2.3a1.349,1.349,0,0,0,1.2.633,1.511,1.511,0,0,0,1.477-.883V-5.891a1.489,1.489,0,0,0-1.461-.883Q69.086-6.773,69.086-4.125Zm6.758-.18a5.013,5.013,0,0,1,.484-2.242A3.546,3.546,0,0,1,77.723-8.07a4.069,4.069,0,0,1,2.113-.539,3.849,3.849,0,0,1,2.793,1.047,4.2,4.2,0,0,1,1.207,2.844l.016.578A4.418,4.418,0,0,1,82.766-1.02,3.775,3.775,0,0,1,79.852.156a3.793,3.793,0,0,1-2.918-1.172A4.5,4.5,0,0,1,75.844-4.2Zm2.258.164a3.151,3.151,0,0,0,.453,1.84,1.5,1.5,0,0,0,1.3.637,1.5,1.5,0,0,0,1.281-.629A3.448,3.448,0,0,0,81.594-4.3a3.12,3.12,0,0,0-.461-1.828,1.5,1.5,0,0,0-1.3-.648,1.475,1.475,0,0,0-1.281.645A3.506,3.506,0,0,0,78.1-4.141Z" transform="translate(787.051 738)" fill="#12263f"/>
    <path id="Trazado_900782" data-name="Trazado 900782" d="M8.43-4.7a5.762,5.762,0,0,1-.977,3.609A3.409,3.409,0,0,1,4.594.156,3.433,3.433,0,0,1,1.75-1.07,5.594,5.594,0,0,1,.742-4.586V-6.68A5.687,5.687,0,0,1,1.73-10.3a3.434,3.434,0,0,1,2.848-1.234,3.437,3.437,0,0,1,2.844,1.223A5.576,5.576,0,0,1,8.43-6.8ZM6.172-7a4.158,4.158,0,0,0-.387-2.059A1.307,1.307,0,0,0,4.578-9.7,1.284,1.284,0,0,0,3.4-9.09,3.891,3.891,0,0,0,3-7.172v2.766A4.365,4.365,0,0,0,3.379-2.34a1.29,1.29,0,0,0,1.215.676,1.268,1.268,0,0,0,1.2-.648A4.26,4.26,0,0,0,6.172-4.3Zm8.266,3.039h-4.4v-1.82h4.4Zm8.289,2.078H27.7V0h-7.32V-11.375h2.344ZM28.547-4.3a5.013,5.013,0,0,1,.484-2.242A3.546,3.546,0,0,1,30.426-8.07a4.069,4.069,0,0,1,2.113-.539,3.849,3.849,0,0,1,2.793,1.047,4.2,4.2,0,0,1,1.207,2.844l.016.578A4.418,4.418,0,0,1,35.469-1.02,3.775,3.775,0,0,1,32.555.156a3.793,3.793,0,0,1-2.918-1.172A4.5,4.5,0,0,1,28.547-4.2Zm2.258.164a3.151,3.151,0,0,0,.453,1.84,1.5,1.5,0,0,0,1.3.637,1.5,1.5,0,0,0,1.281-.629A3.448,3.448,0,0,0,34.3-4.3a3.12,3.12,0,0,0-.461-1.828,1.5,1.5,0,0,0-1.3-.648,1.475,1.475,0,0,0-1.281.645A3.506,3.506,0,0,0,30.8-4.141ZM32.984-12h2.461L33.281-9.578H31.445Zm4.633,7.711a4.954,4.954,0,0,1,.926-3.133,3,3,0,0,1,2.5-1.187,2.631,2.631,0,0,1,2.164.953l.094-.8h2.047V-.281a3.613,3.613,0,0,1-.5,1.93A3.236,3.236,0,0,1,43.422,2.9a4.985,4.985,0,0,1-2.141.43,4.635,4.635,0,0,1-1.812-.371A3.217,3.217,0,0,1,38.133,2l1-1.375a2.645,2.645,0,0,0,2.047.945,1.936,1.936,0,0,0,1.4-.48,1.8,1.8,0,0,0,.5-1.363V-.727a2.612,2.612,0,0,1-2.055.883,2.992,2.992,0,0,1-2.465-1.191,4.953,4.953,0,0,1-.941-3.16Zm2.258.164a3.076,3.076,0,0,0,.461,1.8,1.467,1.467,0,0,0,1.266.652,1.568,1.568,0,0,0,1.477-.773V-6a1.565,1.565,0,0,0-1.461-.773,1.476,1.476,0,0,0-1.277.664A3.467,3.467,0,0,0,39.875-4.125ZM49.461,0H47.2V-8.453h2.266Zm-2.4-10.641a1.112,1.112,0,0,1,.34-.836,1.277,1.277,0,0,1,.926-.328,1.28,1.28,0,0,1,.922.328,1.105,1.105,0,0,1,.344.836,1.108,1.108,0,0,1-.348.844,1.283,1.283,0,0,1-.918.328A1.283,1.283,0,0,1,47.41-9.8,1.108,1.108,0,0,1,47.063-10.641Zm7.773,8.977a1.481,1.481,0,0,0,1.016-.344,1.2,1.2,0,0,0,.406-.914h2.117a2.9,2.9,0,0,1-.469,1.574A3.093,3.093,0,0,1,56.645-.238a3.949,3.949,0,0,1-1.77.395A3.67,3.67,0,0,1,52.016-1,4.56,4.56,0,0,1,50.969-4.18v-.148a4.508,4.508,0,0,1,1.039-3.117,3.627,3.627,0,0,1,2.852-1.164,3.555,3.555,0,0,1,2.543.9,3.2,3.2,0,0,1,.973,2.4H56.258a1.539,1.539,0,0,0-.406-1.066,1.358,1.358,0,0,0-1.031-.41,1.361,1.361,0,0,0-1.191.574,3.324,3.324,0,0,0-.4,1.863v.234a3.366,3.366,0,0,0,.4,1.875A1.378,1.378,0,0,0,54.836-1.664ZM59.313-4.3A5.013,5.013,0,0,1,59.8-6.547,3.546,3.546,0,0,1,61.191-8.07,4.069,4.069,0,0,1,63.3-8.609,3.849,3.849,0,0,1,66.1-7.562,4.2,4.2,0,0,1,67.3-4.719l.016.578A4.418,4.418,0,0,1,66.234-1.02,3.775,3.775,0,0,1,63.32.156,3.793,3.793,0,0,1,60.4-1.016,4.5,4.5,0,0,1,59.313-4.2Zm2.258.164a3.151,3.151,0,0,0,.453,1.84,1.5,1.5,0,0,0,1.3.637A1.5,1.5,0,0,0,64.6-2.293,3.448,3.448,0,0,0,65.063-4.3,3.12,3.12,0,0,0,64.6-6.133a1.5,1.5,0,0,0-1.3-.648,1.475,1.475,0,0,0-1.281.645A3.506,3.506,0,0,0,61.57-4.141Z" transform="translate(795.051 789)" fill="#f6f6f6"/>
    <path id="Trazado_900783" data-name="Trazado 900783" d="M1.109-5.594l.656-5.781H8.141v1.883H3.617L3.336-7.047a3.58,3.58,0,0,1,1.711-.43A3.279,3.279,0,0,1,7.594-6.469a4.026,4.026,0,0,1,.922,2.82,4.124,4.124,0,0,1-.465,1.973A3.281,3.281,0,0,1,6.719-.324a4.158,4.158,0,0,1-2.047.48A4.416,4.416,0,0,1,2.758-.262,3.4,3.4,0,0,1,1.363-1.437,3.2,3.2,0,0,1,.82-3.164H3.055a1.669,1.669,0,0,0,.5,1.105,1.573,1.573,0,0,0,1.113.395,1.388,1.388,0,0,0,1.18-.551,2.551,2.551,0,0,0,.414-1.559,2.11,2.11,0,0,0-.477-1.484A1.749,1.749,0,0,0,4.43-5.773a1.954,1.954,0,0,0-1.3.422l-.219.2Zm9.055,4.484a1.137,1.137,0,0,1,.363-.875,1.289,1.289,0,0,1,.91-.336,1.3,1.3,0,0,1,.918.336,1.137,1.137,0,0,1,.363.875,1.121,1.121,0,0,1-.359.863,1.305,1.305,0,0,1-.922.332,1.294,1.294,0,0,1-.914-.332A1.121,1.121,0,0,1,10.164-1.109ZM22.258-4.7a5.763,5.763,0,0,1-.977,3.609A3.409,3.409,0,0,1,18.422.156,3.433,3.433,0,0,1,15.578-1.07,5.594,5.594,0,0,1,14.57-4.586V-6.68a5.687,5.687,0,0,1,.988-3.617,3.434,3.434,0,0,1,2.848-1.234,3.437,3.437,0,0,1,2.844,1.223A5.576,5.576,0,0,1,22.258-6.8ZM20-7a4.158,4.158,0,0,0-.387-2.059A1.307,1.307,0,0,0,18.406-9.7a1.284,1.284,0,0,0-1.176.613,3.891,3.891,0,0,0-.4,1.918v2.766a4.365,4.365,0,0,0,.379,2.066,1.29,1.29,0,0,0,1.215.676,1.268,1.268,0,0,0,1.2-.648A4.26,4.26,0,0,0,20-4.3Z" transform="translate(675.051 667)" fill="#12263f"/>
    <path id="Trazado_900784" data-name="Trazado 900784" d="M3.07-6.687h1.2a1.7,1.7,0,0,0,1.273-.43,1.574,1.574,0,0,0,.414-1.141,1.392,1.392,0,0,0-.41-1.07,1.59,1.59,0,0,0-1.129-.383,1.666,1.666,0,0,0-1.086.355A1.137,1.137,0,0,0,2.9-8.43H.641a2.777,2.777,0,0,1,.48-1.6,3.2,3.2,0,0,1,1.344-1.105,4.485,4.485,0,0,1,1.9-.4,4.253,4.253,0,0,1,2.828.863A2.945,2.945,0,0,1,8.219-8.289a2.394,2.394,0,0,1-.477,1.438,3.1,3.1,0,0,1-1.25,1.008A2.826,2.826,0,0,1,7.926-4.812,2.8,2.8,0,0,1,8.4-3.187,2.994,2.994,0,0,1,7.293-.758,4.445,4.445,0,0,1,4.367.156a4.214,4.214,0,0,1-2.785-.9A2.934,2.934,0,0,1,.5-3.117H2.758a1.308,1.308,0,0,0,.48,1.047,1.771,1.771,0,0,0,1.184.406A1.779,1.779,0,0,0,5.684-2.09a1.47,1.47,0,0,0,.457-1.129q0-1.7-1.875-1.7H3.07Zm7.094,5.578a1.137,1.137,0,0,1,.363-.875,1.289,1.289,0,0,1,.91-.336,1.3,1.3,0,0,1,.918.336,1.137,1.137,0,0,1,.363.875,1.121,1.121,0,0,1-.359.863,1.305,1.305,0,0,1-.922.332,1.294,1.294,0,0,1-.914-.332A1.121,1.121,0,0,1,10.164-1.109Zm4.773-4.484.656-5.781h6.375v1.883H17.445l-.281,2.445a3.58,3.58,0,0,1,1.711-.43,3.279,3.279,0,0,1,2.547,1.008,4.026,4.026,0,0,1,.922,2.82,4.124,4.124,0,0,1-.465,1.973A3.281,3.281,0,0,1,20.547-.324,4.158,4.158,0,0,1,18.5.156a4.416,4.416,0,0,1-1.914-.418,3.4,3.4,0,0,1-1.395-1.176,3.2,3.2,0,0,1-.543-1.727h2.234a1.669,1.669,0,0,0,.5,1.105,1.573,1.573,0,0,0,1.113.395,1.388,1.388,0,0,0,1.18-.551,2.551,2.551,0,0,0,.414-1.559,2.11,2.11,0,0,0-.477-1.484,1.749,1.749,0,0,0-1.352-.516,1.954,1.954,0,0,0-1.3.422l-.219.2Z" transform="translate(675.051 707)" fill="#12263f"/>
    <path id="Trazado_900785" data-name="Trazado 900785" d="M8.43-4.7a5.762,5.762,0,0,1-.977,3.609A3.409,3.409,0,0,1,4.594.156,3.433,3.433,0,0,1,1.75-1.07,5.594,5.594,0,0,1,.742-4.586V-6.68A5.687,5.687,0,0,1,1.73-10.3a3.434,3.434,0,0,1,2.848-1.234,3.437,3.437,0,0,1,2.844,1.223A5.576,5.576,0,0,1,8.43-6.8ZM6.172-7a4.158,4.158,0,0,0-.387-2.059A1.307,1.307,0,0,0,4.578-9.7,1.284,1.284,0,0,0,3.4-9.09,3.891,3.891,0,0,0,3-7.172v2.766A4.365,4.365,0,0,0,3.379-2.34a1.29,1.29,0,0,0,1.215.676,1.268,1.268,0,0,0,1.2-.648A4.26,4.26,0,0,0,6.172-4.3Zm3.992,5.891a1.137,1.137,0,0,1,.363-.875,1.289,1.289,0,0,1,.91-.336,1.3,1.3,0,0,1,.918.336,1.137,1.137,0,0,1,.363.875,1.121,1.121,0,0,1-.359.863,1.305,1.305,0,0,1-.922.332,1.294,1.294,0,0,1-.914-.332A1.121,1.121,0,0,1,10.164-1.109ZM22.016-8.352A2.646,2.646,0,0,1,21.6-6.883a2.98,2.98,0,0,1-1.141,1.023,3.3,3.3,0,0,1,1.313,1.1,2.816,2.816,0,0,1,.484,1.645A2.981,2.981,0,0,1,21.227-.723a4.183,4.183,0,0,1-2.8.879,4.2,4.2,0,0,1-2.812-.883A2.974,2.974,0,0,1,14.57-3.117a2.834,2.834,0,0,1,.484-1.648,3.239,3.239,0,0,1,1.3-1.094,2.95,2.95,0,0,1-1.137-1.023,2.664,2.664,0,0,1-.41-1.469,2.948,2.948,0,0,1,.969-2.316,3.814,3.814,0,0,1,2.633-.863,3.839,3.839,0,0,1,2.629.855A2.937,2.937,0,0,1,22.016-8.352Zm-2.023,5.07a1.638,1.638,0,0,0-.43-1.187,1.532,1.532,0,0,0-1.156-.445,1.529,1.529,0,0,0-1.148.441,1.635,1.635,0,0,0-.43,1.191,1.634,1.634,0,0,0,.422,1.172,1.537,1.537,0,0,0,1.172.445,1.533,1.533,0,0,0,1.152-.43A1.631,1.631,0,0,0,19.992-3.281Zm-.234-4.961a1.563,1.563,0,0,0-.352-1.066,1.247,1.247,0,0,0-.992-.4,1.256,1.256,0,0,0-.984.391,1.553,1.553,0,0,0-.352,1.078,1.633,1.633,0,0,0,.352,1.094,1.23,1.23,0,0,0,.992.414,1.219,1.219,0,0,0,.988-.414A1.645,1.645,0,0,0,19.758-8.242Z" transform="translate(675.051 769)" fill="#12263f"/>
    <path id="Trazado_900786" data-name="Trazado 900786" d="M8.43-4.7a5.762,5.762,0,0,1-.977,3.609A3.409,3.409,0,0,1,4.594.156,3.433,3.433,0,0,1,1.75-1.07,5.594,5.594,0,0,1,.742-4.586V-6.68A5.687,5.687,0,0,1,1.73-10.3a3.434,3.434,0,0,1,2.848-1.234,3.437,3.437,0,0,1,2.844,1.223A5.576,5.576,0,0,1,8.43-6.8ZM6.172-7a4.158,4.158,0,0,0-.387-2.059A1.307,1.307,0,0,0,4.578-9.7,1.284,1.284,0,0,0,3.4-9.09,3.891,3.891,0,0,0,3-7.172v2.766A4.365,4.365,0,0,0,3.379-2.34a1.29,1.29,0,0,0,1.215.676,1.268,1.268,0,0,0,1.2-.648A4.26,4.26,0,0,0,6.172-4.3Zm3.992,5.891a1.137,1.137,0,0,1,.363-.875,1.289,1.289,0,0,1,.91-.336,1.3,1.3,0,0,1,.918.336,1.137,1.137,0,0,1,.363.875,1.121,1.121,0,0,1-.359.863,1.305,1.305,0,0,1-.922.332,1.294,1.294,0,0,1-.914-.332A1.121,1.121,0,0,1,10.164-1.109ZM22.258-4.7a5.763,5.763,0,0,1-.977,3.609A3.409,3.409,0,0,1,18.422.156,3.433,3.433,0,0,1,15.578-1.07,5.594,5.594,0,0,1,14.57-4.586V-6.68a5.687,5.687,0,0,1,.988-3.617,3.434,3.434,0,0,1,2.848-1.234,3.437,3.437,0,0,1,2.844,1.223A5.576,5.576,0,0,1,22.258-6.8ZM20-7a4.158,4.158,0,0,0-.387-2.059A1.307,1.307,0,0,0,18.406-9.7a1.284,1.284,0,0,0-1.176.613,3.891,3.891,0,0,0-.4,1.918v2.766a4.365,4.365,0,0,0,.379,2.066,1.29,1.29,0,0,0,1.215.676,1.268,1.268,0,0,0,1.2-.648A4.26,4.26,0,0,0,20-4.3Z" transform="translate(675.051 809)" fill="#12263f"/>
    <path id="Trazado_900787" data-name="Trazado 900787" d="M0,0H0" transform="translate(714.051 661)" fill="none" stroke="#fd96ca" stroke-linecap="round" stroke-width="2"/>
    <path id="Trazado_900788" data-name="Trazado 900788" d="M0,142V0" transform="translate(714.051 661)" fill="none" stroke="#fd96ca" stroke-linecap="round" stroke-width="2"/>
    <path id="Trazado_900789" data-name="Trazado 900789" d="M0,0H9" transform="translate(705.051 803)" fill="none" stroke="#fd96ca" stroke-linecap="round" stroke-width="2"/>
    <path id="Trazado_900790" data-name="Trazado 900790" d="M0,0H9" transform="translate(705.051 763)" fill="none" stroke="#fd96ca" stroke-linecap="round" stroke-width="2"/>
    <path id="Trazado_900791" data-name="Trazado 900791" d="M0,0H9" transform="translate(705.051 701)" fill="none" stroke="#fd96ca" stroke-linecap="round" stroke-width="2"/>
    <path id="Trazado_900792" data-name="Trazado 900792" d="M0,0H9" transform="translate(705.051 661)" fill="none" stroke="#fd96ca" stroke-linecap="round" stroke-width="2"/>
  </g>
</svg>
