<svg xmlns="http://www.w3.org/2000/svg" width="80" height="80" viewBox="0 0 80 80">
  <g id="Grupo_1113261" data-name="Grupo 1113261" transform="translate(-305.051 -2405)">
    <rect id="Rectángulo_406450" data-name="Rectángulo 406450" width="80" height="80" transform="translate(305.051 2405)" fill="#67987c"/>
    <g id="Grupo_1113097" data-name="Grupo 1113097" transform="translate(305.051 2405)">
      <path id="Trazado_900153" data-name="Trazado 900153" d="M123.409,104.668a18.068,18.068,0,1,1-18.068,18.068A18.122,18.122,0,0,1,123.409,104.668Z" transform="translate(-83.027 -82.434)" fill="#fe646f" fill-rule="evenodd"/>
      <path id="Trazado_900154" data-name="Trazado 900154" d="M256,104.668a18.068,18.068,0,1,1,0,36.137Z" transform="translate(-215.617 -82.434)" fill="#fd4755" fill-rule="evenodd"/>
      <path id="Trazado_900155" data-name="Trazado 900155" d="M262.576,90.442l11.573,20.045a7.594,7.594,0,0,1-6.576,11.391H256V86.645a7.5,7.5,0,0,1,6.576,3.8Z" transform="translate(-215.617 -66.573)" fill="#ffd56b" fill-rule="evenodd"/>
      <path id="Trazado_900156" data-name="Trazado 900156" d="M259.447,118.763a3.886,3.886,0,0,0-3.447-1.99V144.78h11.573a3.981,3.981,0,0,0,3.447-5.971Z" transform="translate(-215.617 -93.088)" fill="#ffc55a" fill-rule="evenodd"/>
      <path id="Trazado_900157" data-name="Trazado 900157" d="M256,175.884a1.14,1.14,0,0,0,1.275-1.125l.968-8.245c.255-2.167-.994-3.273-2.243-3.292Z" transform="translate(-215.617 -133.966)" fill="#766a76" fill-rule="evenodd"/>
      <path id="Trazado_900158" data-name="Trazado 900158" d="M256,291.85a1.787,1.787,0,1,1,0,3.573Z" transform="translate(-215.617 -247.168)" fill="#766a76" fill-rule="evenodd"/>
      <path id="Trazado_900159" data-name="Trazado 900159" d="M123.641,104.668a17.9,17.9,0,0,1,8.118,1.94l9.919,17.18a18.139,18.139,0,0,1-10.034,15.135H115.638A18.138,18.138,0,0,1,105.6,123.788l9.919-17.18a17.9,17.9,0,0,1,8.118-1.94Z" transform="translate(-83.258 -82.434)" fill="#fe4951" fill-rule="evenodd"/>
      <path id="Trazado_900160" data-name="Trazado 900160" d="M256,104.668a17.9,17.9,0,0,1,8.118,1.94l9.919,17.18A18.139,18.139,0,0,1,264,138.923h-8Z" transform="translate(-215.617 -82.434)" fill="#fd343e" fill-rule="evenodd"/>
      <path id="Trazado_900161" data-name="Trazado 900161" d="M262.576,90.442l11.573,20.045a7.594,7.594,0,0,1-6.576,11.391H256V86.645a7.5,7.5,0,0,1,6.576,3.8Z" transform="translate(-215.617 -66.573)" fill="#ff9c4d" fill-rule="evenodd"/>
      <path id="Trazado_900162" data-name="Trazado 900162" d="M259.447,118.763a3.886,3.886,0,0,0-3.447-1.99V144.78h11.573a3.981,3.981,0,0,0,3.447-5.971Z" transform="translate(-215.617 -93.088)" fill="#ff8f42" fill-rule="evenodd"/>
      <path id="Trazado_900163" data-name="Trazado 900163" d="M256,175.884a1.14,1.14,0,0,0,1.275-1.125l.968-8.245c.255-2.167-.994-3.273-2.243-3.292Z" transform="translate(-215.617 -133.966)" fill="#9b4d56" fill-rule="evenodd"/>
      <path id="Trazado_900164" data-name="Trazado 900164" d="M256,291.85a1.787,1.787,0,1,1,0,3.573Z" transform="translate(-215.617 -247.168)" fill="#9b4d56" fill-rule="evenodd"/>
      <path id="Trazado_900165" data-name="Trazado 900165" d="M121.814,90.442l11.573,20.045a7.594,7.594,0,0,1-6.576,11.391H103.665a7.594,7.594,0,0,1-6.576-11.391l11.573-20.045a7.594,7.594,0,0,1,13.153,0Z" transform="translate(-74.855 -66.573)" fill="#ffe177" fill-rule="evenodd"/>
      <path id="Trazado_900166" data-name="Trazado 900166" d="M145.2,118.763a3.981,3.981,0,0,0-6.895,0l-11.573,20.045a3.981,3.981,0,0,0,3.447,5.971h23.146a3.981,3.981,0,0,0,3.447-5.971L145.2,118.763Z" transform="translate(-101.37 -93.088)" fill="#ffd064" fill-rule="evenodd"/>
      <path id="Trazado_900167" data-name="Trazado 900167" d="M237.078,166.66l1.251,8.048c.252,1.623,2.066,1.518,2.239.044l.968-8.245C242.054,162.1,236.366,162.077,237.078,166.66Z" transform="translate(-198.91 -133.959)" fill="#837683" fill-rule="evenodd"/>
      <path id="Trazado_900168" data-name="Trazado 900168" d="M242.89,291.85a1.787,1.787,0,1,1-1.787,1.787A1.787,1.787,0,0,1,242.89,291.85Z" transform="translate(-202.507 -247.168)" fill="#837683" fill-rule="evenodd"/>
      <g id="Grupo_1113096" data-name="Grupo 1113096" transform="translate(11 11)">
        <path id="Trazado_900169" data-name="Trazado 900169" d="M94.7,124.842a.816.816,0,0,1-.8-.678,19.471,19.471,0,0,1,12.457-21.53.816.816,0,1,1,.568,1.53A17.841,17.841,0,0,0,95.5,123.889a.815.815,0,0,1-.667.941.8.8,0,0,1-.139.012Zm36.791,0a.807.807,0,0,1-.139-.012.815.815,0,0,1-.667-.941,17.841,17.841,0,0,0-11.416-19.726.816.816,0,1,1,.568-1.53,19.471,19.471,0,0,1,12.457,21.53.815.815,0,0,1-.8.678Zm-18.4,15.531a19.327,19.327,0,0,1-10.822-3.3.816.816,0,0,1,.91-1.355,17.737,17.737,0,0,0,19.821,0,.817.817,0,0,1,.912,1.355,19.325,19.325,0,0,1-10.821,3.3Z" transform="translate(-83.711 -91.598)" fill-rule="evenodd"/>
        <path id="Trazado_900170" data-name="Trazado 900170" d="M104.664,75.943a6.953,6.953,0,0,0-6.084,3.513l-11.951,20.7a7.025,7.025,0,0,0,6.084,10.538h23.9a7.026,7.026,0,0,0,6.084-10.538l-11.951-20.7a6.954,6.954,0,0,0-6.084-3.513Zm11.951,36.383h-23.9a8.658,8.658,0,0,1-7.5-12.987l11.95-20.7a8.658,8.658,0,0,1,15,0l11.951,20.7a8.658,8.658,0,0,1-7.5,12.987Z" transform="translate(-75.281 -66.718)" fill-rule="evenodd"/>
        <path id="Trazado_900171" data-name="Trazado 900171" d="M132.019,107.056a3.18,3.18,0,0,0-2.853,1.647l-11.951,20.7a3.294,3.294,0,0,0,2.853,4.941h23.9a3.295,3.295,0,0,0,2.853-4.941l-11.951-20.7a3.18,3.18,0,0,0-2.853-1.647Zm11.951,28.921h-23.9a4.927,4.927,0,0,1-4.266-7.39l11.952-20.7a4.926,4.926,0,0,1,8.532,0l11.952,20.7a4.927,4.927,0,0,1-4.266,7.39Z" transform="translate(-102.636 -94.1)" fill-rule="evenodd"/>
        <path id="Trazado_900172" data-name="Trazado 900172" d="M231.283,157.638l1.292,8.311c.05.326.2.529.368.532.126,0,.287-.124.327-.456l1-8.515a2.226,2.226,0,0,0-.8-2.278,1.4,1.4,0,0,0-1.5.018,2.319,2.319,0,0,0-.688,2.389h0Zm1.657,10.475a2.051,2.051,0,0,1-1.979-1.913l-1.291-8.311a3.846,3.846,0,0,1,1.4-4,3.035,3.035,0,0,1,3.26-.05,3.77,3.77,0,0,1,1.564,3.861l-1,8.514a2.013,2.013,0,0,1-1.917,1.9h-.033Z" transform="translate(-203.381 -136.314)" fill-rule="evenodd"/>
        <path id="Trazado_900173" data-name="Trazado 900173" d="M236.475,287.849a1.029,1.029,0,1,0,1.028,1.029,1.03,1.03,0,0,0-1.028-1.029Zm0,3.69a2.661,2.661,0,1,1,2.661-2.662A2.664,2.664,0,0,1,236.475,291.54Z" transform="translate(-207.092 -253.21)" fill-rule="evenodd"/>
        <path id="Trazado_900174" data-name="Trazado 900174" d="M356.464,435.2a.818.818,0,0,1-.708-.408l-1.723-2.985a.816.816,0,1,1,1.413-.816l1.724,2.985a.815.815,0,0,1-.3,1.115.806.806,0,0,1-.407.11Z" transform="translate(-312.797 -380.266)" fill-rule="evenodd"/>
        <path id="Trazado_900175" data-name="Trazado 900175" d="M434.386,357.279a.807.807,0,0,1-.407-.11l-2.985-1.723a.816.816,0,1,1,.816-1.413l2.985,1.723a.816.816,0,0,1-.409,1.523Z" transform="translate(-380.265 -312.797)" fill-rule="evenodd"/>
        <path id="Trazado_900176" data-name="Trazado 900176" d="M462.913,250.827h-3.446a.816.816,0,1,1,0-1.632h3.447a.816.816,0,1,1,0,1.632Z" transform="translate(-404.963 -220.628)" fill-rule="evenodd"/>
        <path id="Trazado_900177" data-name="Trazado 900177" d="M431.4,133.454a.816.816,0,0,1-.408-1.523l2.985-1.723a.816.816,0,0,1,.816,1.413l-2.985,1.723a.812.812,0,0,1-.408.109Z" transform="translate(-380.265 -115.815)" fill-rule="evenodd"/>
        <path id="Trazado_900178" data-name="Trazado 900178" d="M354.735,47.53a.817.817,0,0,1-.706-1.225l1.724-2.984a.816.816,0,1,1,1.413.816l-1.723,2.984a.816.816,0,0,1-.708.409Z" transform="translate(-312.793 -39.085)" fill-rule="evenodd"/>
        <path id="Trazado_900179" data-name="Trazado 900179" d="M250.01,16.079a.816.816,0,0,1-.816-.816V11.816a.816.816,0,1,1,1.632,0v3.447a.816.816,0,0,1-.816.816Z" transform="translate(-220.627 -11)" fill-rule="evenodd"/>
        <path id="Trazado_900180" data-name="Trazado 900180" d="M132.636,47.531a.817.817,0,0,1-.708-.408L130.2,44.138a.816.816,0,1,1,1.413-.816l1.724,2.985a.816.816,0,0,1-.706,1.224Z" transform="translate(-115.812 -39.085)" fill-rule="evenodd"/>
        <path id="Trazado_900181" data-name="Trazado 900181" d="M46.713,133.456a.813.813,0,0,1-.408-.109l-2.985-1.723a.816.816,0,1,1,.816-1.413l2.985,1.723a.816.816,0,0,1-.408,1.523Z" transform="translate(-39.085 -115.817)" fill-rule="evenodd"/>
        <path id="Trazado_900182" data-name="Trazado 900182" d="M15.263,250.827H11.817a.816.816,0,1,1,0-1.632h3.447a.816.816,0,1,1,0,1.632Z" transform="translate(-11 -220.628)" fill-rule="evenodd"/>
        <path id="Trazado_900183" data-name="Trazado 900183" d="M43.729,357.279a.816.816,0,0,1-.409-1.523l2.985-1.723a.816.816,0,1,1,.816,1.413l-2.985,1.723a.808.808,0,0,1-.407.109Z" transform="translate(-39.085 -312.796)" fill-rule="evenodd"/>
        <path id="Trazado_900184" data-name="Trazado 900184" d="M130.914,435.21a.807.807,0,0,1-.407-.11.816.816,0,0,1-.3-1.115L131.932,431a.816.816,0,0,1,1.413.816l-1.723,2.985a.816.816,0,0,1-.707.408Z" transform="translate(-115.816 -380.271)" fill-rule="evenodd"/>
        <path id="Trazado_900185" data-name="Trazado 900185" d="M250.01,463.729a.816.816,0,0,1-.816-.816v-3.447a.816.816,0,1,1,1.632,0v3.447a.816.816,0,0,1-.816.816Z" transform="translate(-220.627 -404.963)" fill-rule="evenodd"/>
      </g>
    </g>
  </g>
</svg>
