<svg xmlns="http://www.w3.org/2000/svg" width="85" height="85" viewBox="0 0 85 85">
  <g id="Grupo_1113076" data-name="Grupo 1113076" transform="translate(-180 -754)">
    <rect id="Rectángulo_406418" data-name="Rectángulo 406418" width="85" height="85" transform="translate(180 754)" fill="#67987c"/>
    <g id="Grupo_1113075" data-name="Grupo 1113075" transform="translate(190.5 764.813)">
      <rect id="Rectángulo_406462" data-name="Rectángulo 406462" width="20" height="20" rx="4" transform="translate(22 22)" fill="#f9d266"/>
      <path id="Trazado_900078" data-name="Trazado 900078" d="M26,22a4,4,0,0,0-4,4V38a3.974,3.974,0,0,0,.108.892A3.974,3.974,0,0,0,23,39H35a4,4,0,0,0,4-4V23a3.974,3.974,0,0,0-.108-.892A3.974,3.974,0,0,0,38,22Z" fill="#fce797"/>
      <rect id="Rectángulo_406463" data-name="Rectángulo 406463" width="20" height="20" rx="4" transform="translate(2 22)" fill="#5e87ca"/>
      <path id="Trazado_900079" data-name="Trazado 900079" d="M6,22a4,4,0,0,0-4,4V38a3.974,3.974,0,0,0,.108.892A3.974,3.974,0,0,0,3,39H15a4,4,0,0,0,4-4V23a3.974,3.974,0,0,0-.108-.892A3.974,3.974,0,0,0,18,22Z" fill="#78a0d4"/>
      <rect id="Rectángulo_406464" data-name="Rectángulo 406464" width="20" height="20" rx="4" transform="translate(2 42)" fill="#6bc13b"/>
      <path id="Trazado_900080" data-name="Trazado 900080" d="M6,42a4,4,0,0,0-4,4V58a3.974,3.974,0,0,0,.108.892A3.974,3.974,0,0,0,3,59H15a4,4,0,0,0,4-4V43a3.974,3.974,0,0,0-.108-.892A3.974,3.974,0,0,0,18,42Z" fill="#7bdf45"/>
      <rect id="Rectángulo_406465" data-name="Rectángulo 406465" width="20" height="20" rx="4" transform="translate(22 42)" fill="#e1656e"/>
      <path id="Trazado_900081" data-name="Trazado 900081" d="M26,42a4,4,0,0,0-4,4V58a3.974,3.974,0,0,0,.108.892A3.974,3.974,0,0,0,23,59H35a4,4,0,0,0,4-4V43a3.974,3.974,0,0,0-.108-.892A3.974,3.974,0,0,0,38,42Z" fill="#f29b99"/>
      <rect id="Rectángulo_406466" data-name="Rectángulo 406466" width="20" height="20" rx="4" transform="translate(42 42)" fill="#f0ae42"/>
      <path id="Trazado_900082" data-name="Trazado 900082" d="M46,42a4,4,0,0,0-4,4V58a3.974,3.974,0,0,0,.108.892A3.974,3.974,0,0,0,43,59H55a4,4,0,0,0,4-4V43a3.973,3.973,0,0,0-.108-.892A3.974,3.974,0,0,0,58,42Z" fill="#f9d266"/>
      <rect id="Rectángulo_406467" data-name="Rectángulo 406467" width="20" height="20" rx="4" transform="translate(42 22)" fill="#5e87ca"/>
      <path id="Trazado_900083" data-name="Trazado 900083" d="M46,22a4,4,0,0,0-4,4V38a3.974,3.974,0,0,0,.108.892A3.974,3.974,0,0,0,43,39H55a4,4,0,0,0,4-4V23a3.974,3.974,0,0,0-.108-.892A3.974,3.974,0,0,0,58,22Z" fill="#78a0d4"/>
      <rect id="Rectángulo_406468" data-name="Rectángulo 406468" width="20" height="20" rx="4" transform="translate(42 2)" fill="#e1656e"/>
      <path id="Trazado_900084" data-name="Trazado 900084" d="M46,2a4,4,0,0,0-4,4V18a3.974,3.974,0,0,0,.108.892A3.974,3.974,0,0,0,43,19H55a4,4,0,0,0,4-4V3a3.973,3.973,0,0,0-.108-.892A3.974,3.974,0,0,0,58,2Z" fill="#f29b99"/>
      <rect id="Rectángulo_406469" data-name="Rectángulo 406469" width="20" height="20" rx="4" transform="translate(7.371 14.515) rotate(-45)" fill="#6bc13b"/>
      <path id="Trazado_900085" data-name="Trazado 900085" d="M24.343,3.2a4,4,0,0,0-5.657,0L10.2,11.686a3.94,3.94,0,0,0-.618.829,3.934,3.934,0,0,0,.618.828l8.485,8.485a4,4,0,0,0,5.657,0l8.485-8.485a3.974,3.974,0,0,0,.619-.828,3.979,3.979,0,0,0-.619-.829Z" fill="#7bdf45"/>
      <g id="Grupo_1113074" data-name="Grupo 1113074">
        <path id="Trazado_900086" data-name="Trazado 900086" d="M25.051,18.05l-5.657-5.656-.415.414v2.414h-2V12.394a1,1,0,0,1,.293-.707l1.415-1.415a1.029,1.029,0,0,1,1.414,0l6.364,6.364Z" fill="#686868"/>
        <path id="Trazado_900087" data-name="Trazado 900087" d="M56,17H49a1,1,0,0,1-1-1V12a1,1,0,0,1,1-1h5V9H48V7h7a1,1,0,0,1,1,1v4a1,1,0,0,1-1,1H50v2h6Z" fill="#686868"/>
        <path id="Trazado_900088" data-name="Trazado 900088" d="M55,37H48V35h6V33H49a1,1,0,0,1-1-1V28a1,1,0,0,1,1-1h7v2H50v2h5a1,1,0,0,1,1,1v4A1,1,0,0,1,55,37Z" fill="#686868"/>
        <path id="Trazado_900089" data-name="Trazado 900089" d="M15,57H9a1,1,0,0,1-1-1V48a1,1,0,0,1,1-1h6a1,1,0,0,1,1,1v2H14V49H10v2h5a1,1,0,0,1,1,1v4A1,1,0,0,1,15,57Zm-5-2h4V53H10Z" fill="#686868"/>
        <path id="Trazado_900090" data-name="Trazado 900090" d="M13,37H9V35h4a1,1,0,0,0,0-2H11a1,1,0,0,1,0-2h2a1,1,0,0,0,0-2H9V27h4a3,3,0,0,1,2.234,5A3,3,0,0,1,13,37Z" fill="#686868"/>
        <path id="Trazado_900091" data-name="Trazado 900091" d="M37,31H35V27H33v4H30.22l.76-3.8-1.96-.4-1,5A1,1,0,0,0,29,33h4v4h2V33h2Z" fill="#686868"/>
        <path id="Trazado_900092" data-name="Trazado 900092" d="M33.977,57.217l-1.954-.434L33.753,49H30.388l.56,1.684-1.9.632-1-3A1,1,0,0,1,29,47h6a1,1,0,0,1,.977,1.217Z" fill="#686868"/>
        <path id="Trazado_900093" data-name="Trazado 900093" d="M56,50a3,3,0,0,0-3-3H51a2.987,2.987,0,0,0-2.22,5A2.987,2.987,0,0,0,51,57h2a2.987,2.987,0,0,0,2.22-5A2.981,2.981,0,0,0,56,50Zm-5-1h2a1,1,0,0,1,0,2H51a1,1,0,0,1,0-2Zm2,6H51a1,1,0,0,1,0-2h2a1,1,0,0,1,0,2Z" fill="#686868"/>
      </g>
      <path id="Trazado_900094" data-name="Trazado 900094" d="M63,18V6a5.006,5.006,0,0,0-5-5H46a5.006,5.006,0,0,0-5,5V18a4.982,4.982,0,0,0,2.031,4A4.988,4.988,0,0,0,42,23.031,4.982,4.982,0,0,0,38,21H30.585l2.95-2.95a5,5,0,0,0,0-7.071L25.05,2.494a5,5,0,0,0-7.071,0L9.494,10.979a5,5,0,0,0,0,7.071L12.444,21H6a5.006,5.006,0,0,0-5,5V38a4.982,4.982,0,0,0,2.031,4A4.982,4.982,0,0,0,1,46V58a5.006,5.006,0,0,0,5,5H18a4.982,4.982,0,0,0,4-2.031A4.982,4.982,0,0,0,26,63H38a4.982,4.982,0,0,0,4-2.031A4.982,4.982,0,0,0,46,63H58a5.006,5.006,0,0,0,5-5V46a4.982,4.982,0,0,0-2.031-4A4.982,4.982,0,0,0,63,38V26a4.982,4.982,0,0,0-2.031-4A4.982,4.982,0,0,0,63,18ZM38,23a3,3,0,0,1,3,3V38a3,3,0,0,1-3,3H26a3,3,0,0,1-3-3V27.752a4.955,4.955,0,0,0,2.05-1.216L28.585,23Zm5.031,19A4.988,4.988,0,0,0,42,43.031,4.988,4.988,0,0,0,40.969,42,4.988,4.988,0,0,0,42,40.969,4.988,4.988,0,0,0,43.031,42ZM22,43.031A4.988,4.988,0,0,0,20.969,42,4.988,4.988,0,0,0,22,40.969,4.988,4.988,0,0,0,23.031,42,4.988,4.988,0,0,0,22,43.031ZM10.029,14.515a2.98,2.98,0,0,1,.879-2.121l8.486-8.486a3,3,0,0,1,4.242,0l8.485,8.486a3,3,0,0,1,0,4.242l-8.485,8.486a3.074,3.074,0,0,1-4.242,0l-8.486-8.486a2.984,2.984,0,0,1-.879-2.121ZM3,38V26a3,3,0,0,1,3-3h8.444l3.535,3.536A4.952,4.952,0,0,0,21,27.95V38a3,3,0,0,1-3,3H6a3,3,0,0,1-3-3ZM18,61H6a3,3,0,0,1-3-3V46a3,3,0,0,1,3-3H18a3,3,0,0,1,3,3V58A3,3,0,0,1,18,61Zm20,0H26a3,3,0,0,1-3-3V46a3,3,0,0,1,3-3H38a3,3,0,0,1,3,3V58A3,3,0,0,1,38,61ZM61,46V58a3,3,0,0,1-3,3H46a3,3,0,0,1-3-3V46a3,3,0,0,1,3-3H58A3,3,0,0,1,61,46Zm0-20V38a3,3,0,0,1-3,3H46a3,3,0,0,1-3-3V26a3,3,0,0,1,3-3H58A3,3,0,0,1,61,26Zm0-8a3,3,0,0,1-3,3H46a3,3,0,0,1-3-3V6a3,3,0,0,1,3-3H58a3,3,0,0,1,3,3Z"/>
      <path id="Trazado_900095" data-name="Trazado 900095" d="M25.051,18.05l1.414-1.414L20.1,10.272a1.029,1.029,0,0,0-1.414,0l-1.415,1.415a1,1,0,0,0-.293.707v2.828h2V12.808l.415-.414Z"/>
      <path id="Trazado_900096" data-name="Trazado 900096" d="M55,7H48V9h6v2H49a1,1,0,0,0-1,1v4a1,1,0,0,0,1,1h7V15H50V13h5a1,1,0,0,0,1-1V8A1,1,0,0,0,55,7Z"/>
      <path id="Trazado_900097" data-name="Trazado 900097" d="M56,36V32a1,1,0,0,0-1-1H50V29h6V27H49a1,1,0,0,0-1,1v4a1,1,0,0,0,1,1h5v2H48v2h7A1,1,0,0,0,56,36Z"/>
      <path id="Trazado_900098" data-name="Trazado 900098" d="M15,47H9a1,1,0,0,0-1,1v8a1,1,0,0,0,1,1h6a1,1,0,0,0,1-1V52a1,1,0,0,0-1-1H10V49h4v1h2V48A1,1,0,0,0,15,47Zm-1,6v2H10V53Z"/>
      <path id="Trazado_900099" data-name="Trazado 900099" d="M13,27H9v2h4a1,1,0,0,1,0,2H11a1,1,0,0,0,0,2h2a1,1,0,0,1,0,2H9v2h4a3,3,0,0,0,2.234-5A3,3,0,0,0,13,27Z"/>
      <path id="Trazado_900100" data-name="Trazado 900100" d="M29,33h4v4h2V33h2V31H35V27H33v4H30.22l.76-3.8-1.96-.4-1,5A1,1,0,0,0,29,33Z"/>
      <path id="Trazado_900101" data-name="Trazado 900101" d="M35,47H29a1,1,0,0,0-.948,1.316l1,3,1.9-.632L30.388,49h3.365l-1.73,7.783,1.954.434,2-9A1,1,0,0,0,35,47Z"/>
      <path id="Trazado_900102" data-name="Trazado 900102" d="M51,57h2a2.987,2.987,0,0,0,2.22-5A2.987,2.987,0,0,0,53,47H51a2.987,2.987,0,0,0-2.22,5A2.987,2.987,0,0,0,51,57Zm2-2H51a1,1,0,0,1,0-2h2a1,1,0,0,1,0,2Zm-2-6h2a1,1,0,0,1,0,2H51a1,1,0,0,1,0-2Z"/>
    </g>
  </g>
</svg>
