<svg xmlns="http://www.w3.org/2000/svg" width="100" height="100" viewBox="0 0 100 100">
  <g id="Grupo_1113259" data-name="Grupo 1113259" transform="translate(-317.051 -1765)">
    <rect id="Rectángulo_406424" data-name="Rectángulo 406424" width="100" height="100" transform="translate(317.051 1765)" fill="#67987c"/>
    <g id="Grupo_1113326" data-name="Grupo 1113326" transform="translate(298.966 1770.113)">
      <g id="Grupo_1113323" data-name="Grupo 1113323" transform="translate(38.778 5.053)">
        <path id="Trazado_900722" data-name="Trazado 900722" d="M115.287,180.155v13.691a.984.984,0,0,1-.985.985H108.08a1.622,1.622,0,0,0-1.475,1.031,2.657,2.657,0,0,1-2.447,1.623h-2.083a2.654,2.654,0,0,1-2.447-1.623,1.626,1.626,0,0,0-1.478-1.031H91.925a.984.984,0,0,1-.985-.985V180.155a.984.984,0,0,1,.985-.985h9.165l1.14,2.319a.984.984,0,0,0,1.767,0l1.137-2.316H114.3a.984.984,0,0,1,.985.985Z" transform="translate(-73.806 -122.527)" fill="#f0c020"/>
        <path id="Trazado_900723" data-name="Trazado 900723" d="M123.208,179.17l-1.636,3.327a3.283,3.283,0,0,1-5.893.01l-1.639-3.337H116.6l1.14,2.319a.984.984,0,0,0,1.767,0l1.137-2.316Z" transform="translate(-89.318 -122.527)" fill="#e8a61e"/>
        <path id="Trazado_900724" data-name="Trazado 900724" d="M110.155,194.354v11.7a2.657,2.657,0,0,1-2.657,2.657H99.365a1.708,1.708,0,0,0-1.557.929,1.7,1.7,0,0,1-1.534.97H90.886a1.706,1.706,0,0,1-1.495-.884l-.072-.131a1.693,1.693,0,0,0-1.491-.884H78.634a2.656,2.656,0,0,1-2.654-2.657v-11.7a2.651,2.651,0,0,1,2.615-2.654h2.3v10.561a.985.985,0,0,0,.985.985H88.1a1.626,1.626,0,0,1,1.478,1.031,2.654,2.654,0,0,0,2.447,1.623h2.083a2.657,2.657,0,0,0,2.447-1.623,1.622,1.622,0,0,1,1.475-1.031h6.221a.985.985,0,0,0,.985-.985V191.7h2.3a2.655,2.655,0,0,1,2.615,2.654Z" transform="translate(-63.76 -130.942)" fill="#efefef"/>
        <path id="Trazado_900725" data-name="Trazado 900725" d="M112.885,191.7v11.546a2.3,2.3,0,0,1-2.3,2.3h-6.74a4.943,4.943,0,0,1-4.388,2.654H97.375a4.941,4.941,0,0,1-4.388-2.654H86.239a2.3,2.3,0,0,1-2.3-2.3V191.7h2.3v10.561a.985.985,0,0,0,.985.985h6.225a1.626,1.626,0,0,1,1.478,1.031,2.654,2.654,0,0,0,2.447,1.623h2.083a2.657,2.657,0,0,0,2.447-1.623,1.622,1.622,0,0,1,1.475-1.031H109.6a.985.985,0,0,0,.985-.985V191.7Z" transform="translate(-69.105 -130.942)" fill="#afafaf"/>
        <g id="Grupo_1113319" data-name="Grupo 1113319" transform="translate(2.363 0)">
          <path id="Trazado_900726" data-name="Trazado 900726" d="M99.861,33.675A26.951,26.951,0,0,1,77.025,60.3a1.2,1.2,0,0,0-.9.65l-1.192,2.424L73.8,65.689a.984.984,0,0,1-1.767,0l-1.14-2.319L69.7,60.949a1.2,1.2,0,0,0-.9-.65A26.942,26.942,0,1,1,99.861,33.675Z" transform="translate(-45.971 -6.73)" fill="#72c2e9"/>
          <path id="Trazado_900727" data-name="Trazado 900727" d="M80.168,39.467a15.713,15.713,0,0,0,7.368,14.405,3.541,3.541,0,0,1,1.65,3.008v1.793h13.34V56.934a3.608,3.608,0,0,1,1.659-3.068,15.723,15.723,0,1,0-24.017-14.4Z" transform="translate(-68.912 -18.87)" fill="#f0c020"/>
          <path id="Trazado_900728" data-name="Trazado 900728" d="M121.031,127.9v5.953a1.984,1.984,0,0,1-1.984,1.984h-9.371a1.984,1.984,0,0,1-1.984-1.984V127.9Z" transform="translate(-87.417 -88.101)" fill="#aeaeae"/>
          <circle id="Elipse_11659" data-name="Elipse 11659" cx="10.251" cy="10.251" r="10.251" transform="translate(16.692 11.409)" fill="#efefef"/>
        </g>
        <g id="Grupo_1113322" data-name="Grupo 1113322" transform="translate(0 49.497)">
          <g id="Grupo_1113320" data-name="Grupo 1113320" transform="translate(50.073)">
            <path id="Trazado_900729" data-name="Trazado 900729" d="M199.162,161.513c-1.225-.4-2.181-.664-2.822-3.423a.874.874,0,0,0-1.7,0c-.626,2.7-1.5,2.987-2.822,3.423a.874.874,0,0,0,0,1.659c2.2.726,2.445,1.8,2.822,3.423a.874.874,0,0,0,1.7,0c.626-2.7,1.547-3,2.822-3.423A.875.875,0,0,0,199.162,161.513Z" transform="translate(-191.219 -157.416)"/>
            <path id="Trazado_900730" data-name="Trazado 900730" d="M202.832,169.407a4.33,4.33,0,0,0-1.291,1.458,4.528,4.528,0,0,0-1.37-1.445,4.313,4.313,0,0,0,1.353-1.524,4.467,4.467,0,0,0,1.307,1.511Z" transform="translate(-197.23 -164.454)" fill="#f0c020"/>
          </g>
          <g id="Grupo_1113321" data-name="Grupo 1113321">
            <path id="Trazado_900731" data-name="Trazado 900731" d="M46.721,161.513c-1.225-.4-2.181-.664-2.822-3.423a.874.874,0,0,0-1.7,0c-.626,2.7-1.5,2.987-2.822,3.423a.874.874,0,0,0,0,1.659c2.2.726,2.445,1.8,2.822,3.423a.874.874,0,0,0,1.7,0c.626-2.7,1.547-3,2.822-3.423A.875.875,0,0,0,46.721,161.513Z" transform="translate(-38.778 -157.416)"/>
            <path id="Trazado_900732" data-name="Trazado 900732" d="M50.391,169.407a4.331,4.331,0,0,0-1.291,1.458,4.528,4.528,0,0,0-1.37-1.445,4.313,4.313,0,0,0,1.353-1.524,4.46,4.46,0,0,0,1.307,1.511Z" transform="translate(-44.789 -164.454)" fill="#f0c020"/>
          </g>
        </g>
      </g>
      <g id="Grupo_1113324" data-name="Grupo 1113324" transform="translate(44.289 21.249)">
        <path id="Trazado_900733" data-name="Trazado 900733" d="M67.384,87.351A23.868,23.868,0,0,1,55.562,66.274a23.28,23.28,0,0,1,.819-5.645.821.821,0,0,1,1.584.433,21.614,21.614,0,0,0-.761,5.246,22.219,22.219,0,0,0,11,19.623.821.821,0,0,1-.825,1.42ZM57.938,58.5a.821.821,0,0,1-.423-1.081c.135-.31.28-.621.429-.926a.821.821,0,0,1,1.475.722q-.208.426-.4.862A.822.822,0,0,1,57.938,58.5Z" transform="translate(-55.557 -56.037)" fill="#c5e5fe"/>
      </g>
      <g id="Grupo_1113325" data-name="Grupo 1113325" transform="translate(78.819 21.249)">
        <path id="Trazado_900734" data-name="Trazado 900734" d="M160.788,87.054a.821.821,0,0,1,.3-1.123,22.159,22.159,0,0,0,10.264-24.863.821.821,0,1,1,1.587-.424,23.8,23.8,0,0,1-11.025,26.707A.821.821,0,0,1,160.788,87.054Zm9.526-28.975q-.187-.437-.393-.864a.821.821,0,1,1,1.48-.712c.147.306.289.619.422.929a.821.821,0,1,1-1.509.647Z" transform="translate(-160.677 -56.037)" fill="#c5e5fe"/>
      </g>
      <path id="Trazado_900735" data-name="Trazado 900735" d="M106.965,191.755H104.8a.821.821,0,1,0,0,1.642h2.168a.821.821,0,1,0,0-1.642Z" transform="translate(-43.782 -125.925)"/>
      <path id="Trazado_900736" data-name="Trazado 900736" d="M106.965,206.552H104.8a.821.821,0,1,0,0,1.642h2.168a.821.821,0,1,0,0-1.642Z" transform="translate(-43.782 -135.862)"/>
      <path id="Trazado_900737" data-name="Trazado 900737" d="M142.378,193.4h2.168a.821.821,0,0,0,0-1.642h-2.168a.821.821,0,1,0,0,1.642Z" transform="translate(-69.019 -125.925)"/>
      <path id="Trazado_900738" data-name="Trazado 900738" d="M142.378,208.194h2.168a.821.821,0,0,0,0-1.642h-2.168a.821.821,0,1,0,0,1.642Z" transform="translate(-69.019 -135.862)"/>
      <path id="Trazado_900739" data-name="Trazado 900739" d="M75.471,59.433a27.762,27.762,0,0,0-4.649-55.2h-.014a27.348,27.348,0,0,0-11.681,2.8.821.821,0,0,0,.716,1.478h.007A25.7,25.7,0,0,1,70.833,5.878,26.12,26.12,0,0,1,75.221,57.81a2.027,2.027,0,0,0-1.508,1.1c-2.144,4.363-.326.658-2.329,4.741a.163.163,0,0,1-.293,0l-2.333-4.745a2.028,2.028,0,0,0-1.508-1.1A26.177,26.177,0,0,1,45.12,31.438h0a26.122,26.122,0,0,1,9.4-19.463.826.826,0,0,0,.105-1.16.847.847,0,0,0-1.156-.1A27.77,27.77,0,0,0,43.477,31.4s0,0,0,0A27.824,27.824,0,0,0,67,59.433a.381.381,0,0,1,.285.2l.61,1.24H60.049a1.809,1.809,0,0,0-1.807,1.807V64.99H56.753a3.487,3.487,0,0,0-3.425,3.475v11.7A3.481,3.481,0,0,0,56.8,83.644H66a.875.875,0,0,1,.772.459,2.541,2.541,0,0,0,2.286,1.44h5.387A2.531,2.531,0,0,0,76.719,84.1a.9.9,0,0,1,.815-.459h8.133a3.483,3.483,0,0,0,3.479-3.479V76.02a.821.821,0,1,0-1.642,0v4.145A1.838,1.838,0,0,1,85.667,82H77.534a2.531,2.531,0,0,0-2.3,1.4.881.881,0,0,1-.793.5H69.056a.923.923,0,0,1-.845-.585A2.513,2.513,0,0,0,66,82H56.8a1.837,1.837,0,0,1-1.833-1.837v-11.7a1.836,1.836,0,0,1,1.793-1.833h1.478v9.739a1.809,1.809,0,0,0,1.807,1.807h6.225a.81.81,0,0,1,.722.53,3.472,3.472,0,0,0,3.2,2.124h2.083a3.472,3.472,0,0,0,3.2-2.127.8.8,0,0,1,.717-.527h6.221a1.809,1.809,0,0,0,1.807-1.807V66.633H85.7a1.839,1.839,0,0,1,1.8,1.833v.985a.821.821,0,1,0,1.642,0v-.985h0A3.49,3.49,0,0,0,85.71,64.99H84.231V62.681a1.809,1.809,0,0,0-1.807-1.807H74.576l.609-1.239a.383.383,0,0,1,.285-.2ZM68.508,78.069a2.45,2.45,0,0,0-2.234-1.532H60.049a.163.163,0,0,1-.164-.164V62.681a.163.163,0,0,1,.164-.164H68.7l.915,1.861a1.8,1.8,0,0,0,.8.808v14H70.2A1.833,1.833,0,0,1,68.508,78.069ZM82.425,62.517a.163.163,0,0,1,.164.164V76.372a.163.163,0,0,1-.164.164H76.2a2.439,2.439,0,0,0-2.231,1.533,1.832,1.832,0,0,1-1.691,1.121h-.223V65.184a1.8,1.8,0,0,0,.8-.811l.912-1.856Z" transform="translate(-3.152 0)"/>
      <path id="Trazado_900740" data-name="Trazado 900740" d="M81.415,17.581a.82.82,0,1,0,1.137.239A.841.841,0,0,0,81.415,17.581Z" transform="translate(-28.381 -8.878)"/>
      <circle id="Elipse_11660" data-name="Elipse 11660" cx="0.821" cy="0.821" r="0.821" transform="translate(84.351 71.914)"/>
      <path id="Trazado_900741" data-name="Trazado 900741" d="M110.465,41.764a16.579,16.579,0,0,0,.256-2.907s0,0,0-.006a16.544,16.544,0,1,0-25.3,14.038A2.737,2.737,0,0,1,86.688,55.2v7.745a2.808,2.808,0,0,0,2.806,2.806h9.371a2.809,2.809,0,0,0,2.806-2.806V55.256a2.8,2.8,0,0,1,1.274-2.373l.01-.007a16.511,16.511,0,0,0,4.93-4.755.823.823,0,0,0-.22-1.14.837.837,0,0,0-1.14.217,15.069,15.069,0,0,1-4.451,4.293h0a4.456,4.456,0,0,0-2.045,3.765v.917H95V49.89a11.073,11.073,0,1,0-1.642,0v6.282H88.33V55.2a4.334,4.334,0,0,0-2.036-3.7,14.9,14.9,0,1,1,22.786-12.65s0,0,0,0a14.907,14.907,0,0,1-.23,2.625.821.821,0,0,0,1.615.289ZM91.348,43.173h5.661c-.618,3.238-1.862,5.109-2.83,5.109S91.965,46.411,91.348,43.173Zm-6.209-7h4.325a25.483,25.483,0,0,0,0,5.362H85.138A9.4,9.4,0,0,1,85.139,36.169Zm5.967,0h6.145a25.572,25.572,0,0,1,0,5.362H91.106A25.572,25.572,0,0,1,91.106,36.169Zm3.072-6.748c.968,0,2.212,1.869,2.83,5.106h-5.66C91.966,31.29,93.21,29.421,94.178,29.421Zm9.04,12.11H98.893a25.506,25.506,0,0,0,0-5.362h4.325A9.4,9.4,0,0,1,103.219,41.531Zm-6.1,6.281a14.345,14.345,0,0,0,1.548-4.638h3.894a9.479,9.479,0,0,1-5.442,4.638Zm5.44-13.285H98.662a14.342,14.342,0,0,0-1.547-4.635A9.475,9.475,0,0,1,102.554,34.526ZM91.242,29.891a14.34,14.34,0,0,0-1.547,4.635H85.8A9.477,9.477,0,0,1,91.242,29.891ZM85.8,43.173h3.894a14.345,14.345,0,0,0,1.548,4.638A9.478,9.478,0,0,1,85.8,43.173Zm14.226,14.642v5.131a1.164,1.164,0,0,1-1.163,1.163H89.493a1.165,1.165,0,0,1-1.163-1.163V57.815Z" transform="translate(-26.094 -12.138)"/>
      <path id="Trazado_900742" data-name="Trazado 900742" d="M170.986,88.251a.836.836,0,0,0-1.071.45v0a.82.82,0,0,0,1.518.621s0,0,0,0A.824.824,0,0,0,170.986,88.251Z" transform="translate(-88.021 -56.381)"/>
    </g>
  </g>
</svg>
