<svg xmlns="http://www.w3.org/2000/svg" width="400" height="249.762" viewBox="0 0 400 249.762">
  <g id="_22378340_6597116" data-name="22378340_6597116" transform="translate(-10.779 -26.889)">
    <g id="Background_Simple" transform="translate(10.779 26.889)">
      <g id="Grupo_1113162" data-name="Grupo 1113162">
        <path id="Trazado_900561" data-name="Trazado 900561" d="M391.284,222.3c23.394-32.993,24.969-76.951,8.82-112.194-13.9-30.344-44.846-53.486-80.583-67.268-41.465-15.99-90.89-20.749-135.386-10.657-11.707,2.655-23.1,5.086-34.138,9.447-45.24,17.876-36.511,61.925-52.384,77.248-13.354,12.892-38.89,9.09-54.989,18.969C-.818,164.5-.932,231.885,49.2,252.947,102.373,275.291,333.339,304.019,391.284,222.3Z" transform="translate(-10.779 -26.889)" fill="#92e3a9"/>
        <path id="Trazado_900562" data-name="Trazado 900562" d="M391.284,222.3c23.394-32.993,24.969-76.951,8.82-112.194-13.9-30.344-44.846-53.486-80.583-67.268-41.465-15.99-90.89-20.749-135.386-10.657-11.707,2.655-23.1,5.086-34.138,9.447-45.24,17.876-36.511,61.925-52.384,77.248-13.354,12.892-38.89,9.09-54.989,18.969C-.818,164.5-.932,231.885,49.2,252.947,102.373,275.291,333.339,304.019,391.284,222.3Z" transform="translate(-10.779 -26.889)" fill="#f5e5fe"/>
      </g>
    </g>
    <g id="Books" transform="translate(219.625 244.776)">
      <g id="Grupo_1113166" data-name="Grupo 1113166" transform="translate(0.54 17.168)">
        <g id="Grupo_1113163" data-name="Grupo 1113163" transform="translate(1.663 0.837)">
          <path id="Trazado_900563" data-name="Trazado 900563" d="M281.871,411.355a4.906,4.906,0,0,1,0,6.1H325.54l1.293-3.324-1.662-2.955Z" transform="translate(-281.516 -410.815)" fill="#fff"/>
          <path id="Trazado_900564" data-name="Trazado 900564" d="M325.394,417.66H281.726a.355.355,0,0,1-.288-.562,4.523,4.523,0,0,0,.019-5.655.355.355,0,0,1,.268-.586l43.3-.185a.325.325,0,0,1,.311.181L327,413.807a.355.355,0,0,1,.021.3l-1.293,3.325A.359.359,0,0,1,325.394,417.66Zm-43.014-.71h42.771l1.144-2.941-1.477-2.627-42.427.182A5.192,5.192,0,0,1,282.381,416.95Z" transform="translate(-281.371 -410.67)" fill="#263238"/>
        </g>
        <g id="Grupo_1113164" data-name="Grupo 1113164" transform="translate(4.329)">
          <path id="Trazado_900565" data-name="Trazado 900565" d="M326.629,416.957v-5.575h-41v-1.392H340.18a4.179,4.179,0,0,1,0,8.358H285.626v-1.392Z" transform="translate(-285.271 -409.635)" fill="#92e3a9"/>
          <path id="Trazado_900566" data-name="Trazado 900566" d="M340.035,418.559H285.481a.355.355,0,0,1-.355-.355v-1.392a.355.355,0,0,1,.355-.355h40.648v-4.865H285.481a.355.355,0,0,1-.355-.355v-1.392a.355.355,0,0,1,.355-.355h54.554a4.534,4.534,0,1,1,0,9.069Zm-54.2-.71h54.2a3.824,3.824,0,1,0,0-7.649h-54.2v.682h40.648a.355.355,0,0,1,.355.355v5.575a.355.355,0,0,1-.355.355H285.836Z" transform="translate(-285.126 -409.49)" fill="#263238"/>
        </g>
        <g id="Grupo_1113165" data-name="Grupo 1113165">
          <path id="Trazado_900567" data-name="Trazado 900567" d="M324.861,414.17h0a2.788,2.788,0,0,0-2.787-2.787H279.53v-1.392h43.33A4.008,4.008,0,0,1,326.868,414h0a4.35,4.35,0,0,1-4.35,4.35H279.529v-1.392h42.544A2.788,2.788,0,0,0,324.861,414.17Z" transform="translate(-279.174 -409.635)" fill="#92e3a9"/>
          <path id="Trazado_900568" data-name="Trazado 900568" d="M322.373,418.559H279.384a.355.355,0,0,1-.355-.355v-1.392a.355.355,0,0,1,.355-.355h42.544a2.432,2.432,0,0,0,0-4.865H279.384a.355.355,0,0,1-.355-.355v-1.392a.355.355,0,0,1,.355-.355h43.33a4.368,4.368,0,0,1,4.364,4.364A4.71,4.71,0,0,1,322.373,418.559Zm-42.634-.71h42.634a4,4,0,0,0,4-4,3.658,3.658,0,0,0-3.654-3.654H279.739v.682h42.189a3.142,3.142,0,1,1,0,6.285H279.739v.682Z" transform="translate(-279.029 -409.49)" fill="#263238"/>
        </g>
      </g>
      <g id="Grupo_1113170" data-name="Grupo 1113170" transform="translate(0 0)">
        <g id="Grupo_1113167" data-name="Grupo 1113167" transform="translate(1.661 0.838)">
          <path id="Trazado_900569" data-name="Trazado 900569" d="M281.108,387.174a4.905,4.905,0,0,1,0,6.1h43.669l1.293-3.324-1.662-2.955Z" transform="translate(-280.753 -386.634)" fill="#fff"/>
          <path id="Trazado_900570" data-name="Trazado 900570" d="M324.632,393.478H280.963a.355.355,0,0,1-.288-.563,4.574,4.574,0,0,0,.019-5.654.355.355,0,0,1,.267-.587l43.3-.185a.4.4,0,0,1,.311.181l1.662,2.955a.355.355,0,0,1,.021.3l-1.292,3.324A.357.357,0,0,1,324.632,393.478Zm-43.014-.71h42.771l1.143-2.941-1.477-2.627-42.427.181A5.193,5.193,0,0,1,281.618,392.768Z" transform="translate(-280.608 -386.489)" fill="#263238"/>
        </g>
        <g id="Grupo_1113168" data-name="Grupo 1113168" transform="translate(4.327)">
          <path id="Trazado_900571" data-name="Trazado 900571" d="M325.866,392.776V387.2h-41V385.81h54.554a4.179,4.179,0,0,1,0,8.358H284.863v-1.392Z" transform="translate(-284.508 -385.454)" fill="#92e3a9"/>
          <path id="Trazado_900572" data-name="Trazado 900572" d="M339.272,394.378H284.718a.355.355,0,0,1-.355-.355v-1.392a.355.355,0,0,1,.355-.355h40.648v-4.865H284.718a.355.355,0,0,1-.355-.355v-1.392a.355.355,0,0,1,.355-.355h54.554a4.534,4.534,0,1,1,0,9.069Zm-54.2-.71h54.2a3.824,3.824,0,1,0,0-7.649h-54.2v.682h40.648a.355.355,0,0,1,.355.355v5.576a.355.355,0,0,1-.355.355H285.073v.682Z" transform="translate(-284.363 -385.309)" fill="#263238"/>
        </g>
        <g id="Grupo_1113169" data-name="Grupo 1113169">
          <path id="Trazado_900573" data-name="Trazado 900573" d="M324.1,389.988h0a2.788,2.788,0,0,0-2.787-2.787H278.767v-1.392H322.1a4.008,4.008,0,0,1,4.008,4.008h0a4.35,4.35,0,0,1-4.35,4.35H278.767v-1.392h42.544A2.787,2.787,0,0,0,324.1,389.988Z" transform="translate(-278.413 -385.454)" fill="#92e3a9"/>
          <path id="Trazado_900574" data-name="Trazado 900574" d="M321.611,394.378H278.623a.355.355,0,0,1-.355-.355v-1.392a.355.355,0,0,1,.355-.355h42.543a2.433,2.433,0,1,0,0-4.865H278.623a.355.355,0,0,1-.355-.355v-1.392a.355.355,0,0,1,.355-.355h43.33a4.368,4.368,0,0,1,4.364,4.364A4.712,4.712,0,0,1,321.611,394.378Zm-42.634-.71H321.61a4,4,0,0,0,4-4,3.658,3.658,0,0,0-3.654-3.654H278.977v.682h42.188a3.143,3.143,0,1,1,0,6.285H278.977v.682Z" transform="translate(-278.268 -385.309)" fill="#263238"/>
        </g>
      </g>
      <g id="Grupo_1113174" data-name="Grupo 1113174" transform="translate(3.494 8.856)">
        <g id="Grupo_1113171" data-name="Grupo 1113171" transform="translate(1.662 0.838)">
          <path id="Trazado_900575" data-name="Trazado 900575" d="M286.03,399.648a4.906,4.906,0,0,1,0,6.1H329.7l1.293-3.324-1.662-2.955Z" transform="translate(-285.675 -399.108)" fill="#fff"/>
          <path id="Trazado_900576" data-name="Trazado 900576" d="M329.554,405.953H285.885a.355.355,0,0,1-.288-.563,4.575,4.575,0,0,0,.019-5.655.355.355,0,0,1,.267-.587l43.3-.185h0a.355.355,0,0,1,.31.181l1.663,2.955a.355.355,0,0,1,.021.3l-1.293,3.325A.355.355,0,0,1,329.554,405.953Zm-43.014-.71h42.771l1.144-2.941-1.478-2.627-42.426.181A5.2,5.2,0,0,1,286.54,405.243Z" transform="translate(-285.53 -398.963)" fill="#263238"/>
        </g>
        <g id="Grupo_1113172" data-name="Grupo 1113172" transform="translate(4.328)">
          <path id="Trazado_900577" data-name="Trazado 900577" d="M330.788,405.25v-5.575h-41v-1.392h54.554a4.179,4.179,0,0,1,0,8.358H289.785V405.25Z" transform="translate(-289.43 -397.928)" fill="#263238"/>
          <path id="Trazado_900578" data-name="Trazado 900578" d="M344.194,406.852H289.64a.355.355,0,0,1-.355-.355v-1.392a.355.355,0,0,1,.355-.355h40.648v-4.866H289.64a.355.355,0,0,1-.355-.355v-1.392a.355.355,0,0,1,.355-.355h54.554a4.534,4.534,0,0,1,0,9.069Zm-54.2-.71h54.2a3.824,3.824,0,0,0,0-7.649h-54.2v.682h40.648a.355.355,0,0,1,.355.355v5.576a.355.355,0,0,1-.355.355H289.995Z" transform="translate(-289.285 -397.783)" fill="#263238"/>
        </g>
        <g id="Grupo_1113173" data-name="Grupo 1113173">
          <path id="Trazado_900579" data-name="Trazado 900579" d="M329.02,402.462h0a2.788,2.788,0,0,0-2.787-2.787H283.689v-1.392h43.33a4.009,4.009,0,0,1,4.009,4.008h0a4.35,4.35,0,0,1-4.35,4.35H283.689v-1.392h42.544A2.787,2.787,0,0,0,329.02,402.462Z" transform="translate(-283.334 -397.928)" fill="#92e3a9"/>
          <path id="Trazado_900580" data-name="Trazado 900580" d="M326.532,406.852H283.544a.355.355,0,0,1-.355-.355v-1.392a.355.355,0,0,1,.355-.355h42.544a2.433,2.433,0,0,0,0-4.866H283.544a.355.355,0,0,1-.355-.355v-1.392a.355.355,0,0,1,.355-.355h43.33a4.368,4.368,0,0,1,4.364,4.364A4.711,4.711,0,0,1,326.532,406.852Zm-42.633-.71h42.633a4,4,0,0,0,4-4,3.658,3.658,0,0,0-3.654-3.654H283.9v.682h42.189a3.143,3.143,0,0,1,0,6.285H283.9v.682Z" transform="translate(-283.189 -397.783)" fill="#263238"/>
        </g>
      </g>
    </g>
    <g id="Table" transform="translate(40.013 270.302)">
      <rect id="Rectángulo_406510" data-name="Rectángulo 406510" width="323.589" height="0.71" transform="translate(0 0)" fill="#263238"/>
    </g>
    <g id="Plant" transform="translate(283.129 210.891)">
      <g id="Grupo_1113187" data-name="Grupo 1113187" transform="translate(0 -0.001)">
        <g id="Grupo_1113175" data-name="Grupo 1113175" transform="translate(0 8.48)">
          <path id="Trazado_900581" data-name="Trazado 900581" d="M385.911,360.629a16.357,16.357,0,0,0-1.847-6.771c-1.693-2.77-7.849-4.77-11.081-3.385a43.9,43.9,0,0,0-4.77,2.308,36.363,36.363,0,0,1,9.08,4.309A22.819,22.819,0,0,0,385.911,360.629Z" transform="translate(-367.858 -349.67)" fill="#92e3a9"/>
          <path id="Trazado_900582" data-name="Trazado 900582" d="M385.766,360.84a.394.394,0,0,1-.05,0,22.974,22.974,0,0,1-8.767-3.6,36.27,36.27,0,0,0-8.98-4.262.355.355,0,0,1-.084-.645A43.688,43.688,0,0,1,372.7,350c3.328-1.424,9.683.518,11.523,3.526a16.539,16.539,0,0,1,1.9,6.943.358.358,0,0,1-.117.278A.353.353,0,0,1,385.766,360.84Zm-16.809-8.289a36.955,36.955,0,0,1,8.39,4.1,23.141,23.141,0,0,0,8.032,3.4,15.416,15.416,0,0,0-1.763-6.156c-1.66-2.716-7.622-4.537-10.637-3.243C371.034,351.488,369.7,352.156,368.957,352.551Z" transform="translate(-367.713 -349.526)" fill="#263238"/>
        </g>
        <g id="Grupo_1113176" data-name="Grupo 1113176" transform="translate(19.801)">
          <path id="Trazado_900583" data-name="Trazado 900583" d="M400.463,359.168a15.827,15.827,0,0,1-4.309-8.464c-.616-4.924,4.617-12.619,4.617-12.619a54.639,54.639,0,0,1,4.155,10.311C406.465,353.935,400.463,359.168,400.463,359.168Z" transform="translate(-395.748 -337.727)" fill="#92e3a9"/>
          <path id="Trazado_900584" data-name="Trazado 900584" d="M400.318,359.376a.356.356,0,0,1-.246-.1,16.021,16.021,0,0,1-4.416-8.676c-.625-5,4.459-12.545,4.676-12.863a.339.339,0,0,1,.31-.155.355.355,0,0,1,.295.184,55.53,55.53,0,0,1,4.185,10.386c1.581,5.691-4.319,10.915-4.572,11.135A.349.349,0,0,1,400.318,359.376Zm.275-20.736c-1.123,1.774-4.736,7.848-4.232,11.874a15.431,15.431,0,0,0,3.97,8.011c1.093-1.051,5.393-5.556,4.108-10.18A54.856,54.856,0,0,0,400.593,338.64Z" transform="translate(-395.603 -337.582)" fill="#263238"/>
        </g>
        <g id="Grupo_1113177" data-name="Grupo 1113177" transform="translate(30.984 9.176)">
          <path id="Trazado_900585" data-name="Trazado 900585" d="M412.112,361.371s-.924-4.617.77-7.849,6.156-2.924,10.618-1.539,5.848,1.385,5.848,1.385a66.406,66.406,0,0,1-9.7,5.386A59.92,59.92,0,0,1,412.112,361.371Z" transform="translate(-411.501 -350.646)" fill="#92e3a9"/>
          <path id="Trazado_900586" data-name="Trazado 900586" d="M411.965,361.586a.354.354,0,0,1-.349-.285c-.039-.193-.929-4.777.8-8.083,1.516-2.891,5.332-3.485,11.04-1.713a25.759,25.759,0,0,0,5.744,1.37.355.355,0,0,1,.2.649,67.311,67.311,0,0,1-9.758,5.42,60.994,60.994,0,0,1-7.59,2.633A.4.4,0,0,1,411.965,361.586Zm5.865-10.371c-2.06,0-3.872.6-4.781,2.333-1.341,2.559-.967,6.093-.8,7.239a63.814,63.814,0,0,0,7.118-2.5,62.664,62.664,0,0,0,8.829-4.825,40.741,40.741,0,0,1-4.951-1.279A19.1,19.1,0,0,0,417.83,351.214Z" transform="translate(-411.354 -350.505)" fill="#263238"/>
        </g>
        <g id="Grupo_1113178" data-name="Grupo 1113178" transform="translate(24.159 13.682)">
          <path id="Trazado_900587" data-name="Trazado 900587" d="M402.139,379.655a.4.4,0,0,1-.4-.4V357.25a.4.4,0,1,1,.8,0v22.007A.4.4,0,0,1,402.139,379.655Z" transform="translate(-401.741 -356.852)" fill="#263238"/>
        </g>
        <g id="Grupo_1113179" data-name="Grupo 1113179" transform="translate(26.006 15.067)">
          <path id="Trazado_900588" data-name="Trazado 900588" d="M404.741,380.221a.375.375,0,0,1-.055,0,.4.4,0,0,1-.339-.449c.076-.552,1.935-13.59,8.25-20.829a.4.4,0,0,1,.6.523c-6.157,7.059-8.043,20.281-8.062,20.415A.4.4,0,0,1,404.741,380.221Z" transform="translate(-404.342 -358.803)" fill="#263238"/>
        </g>
        <g id="Grupo_1113180" data-name="Grupo 1113180" transform="translate(14.772 16.452)">
          <path id="Trazado_900589" data-name="Trazado 900589" d="M396.458,380.479h0a.4.4,0,0,1-.393-.4c0-.126.059-12.653-7.392-18.614a.4.4,0,0,1,.5-.621c7.757,6.206,7.7,18.715,7.691,19.244A.4.4,0,0,1,396.458,380.479Z" transform="translate(-388.519 -360.754)" fill="#263238"/>
        </g>
        <g id="Grupo_1113182" data-name="Grupo 1113182" transform="translate(28.468 24.484)">
          <path id="Trazado_900590" data-name="Trazado 900590" d="M408.208,384.978a.4.4,0,0,1-.383-.5,25.643,25.643,0,0,1,3.6-7.517.4.4,0,0,1,.644.468,25.274,25.274,0,0,0-3.477,7.256A.4.4,0,0,1,408.208,384.978Z" transform="translate(-407.81 -373.438)" fill="#263238"/>
          <g id="Grupo_1113181" data-name="Grupo 1113181" transform="translate(2.459)">
            <path id="Trazado_900591" data-name="Trazado 900591" d="M411.78,377.632s-.154-4.309,1.693-4.924,3.54.924,4.924,1.847,2.924,1.847,2.924,4.617a51.88,51.88,0,0,1-1.077,7.849s-1.539-4.771-4.155-6.925A10.869,10.869,0,0,0,411.78,377.632Z" transform="translate(-411.42 -372.211)" fill="#92e3a9"/>
            <path id="Trazado_900592" data-name="Trazado 900592" d="M420.1,387.229a.356.356,0,0,1-.338-.246c-.015-.046-1.539-4.7-4.043-6.76a10.782,10.782,0,0,0-4.148-2.387.356.356,0,0,1-.29-.337c-.016-.468-.1-4.594,1.935-5.274,1.743-.577,3.328.546,4.6,1.449.217.154.427.3.632.439l.143.1c1.377.915,2.939,1.952,2.939,4.817a51.379,51.379,0,0,1-1.085,7.922.355.355,0,0,1-.329.281Zm-8.113-10.018a12.582,12.582,0,0,1,4.185,2.464,15.724,15.724,0,0,1,3.825,5.9,42.925,42.925,0,0,0,.826-6.545c0-2.484-1.274-3.329-2.621-4.225l-.144-.1c-.209-.139-.426-.293-.649-.452-1.2-.853-2.564-1.82-3.967-1.354C412.223,373.3,411.98,375.939,411.985,377.211Z" transform="translate(-411.274 -372.066)" fill="#263238"/>
          </g>
        </g>
        <g id="Grupo_1113184" data-name="Grupo 1113184" transform="translate(5.232 24.888)">
          <path id="Trazado_900593" data-name="Trazado 900593" d="M393.938,385.7a.4.4,0,0,1-.379-.276,14.111,14.111,0,0,0-4.022-5.965.4.4,0,0,1,.493-.625,14.682,14.682,0,0,1,4.288,6.347.4.4,0,0,1-.258.5A.38.38,0,0,1,393.938,385.7Z" transform="translate(-379.231 -374.408)" fill="#263238"/>
          <g id="Grupo_1113183" data-name="Grupo 1113183">
            <path id="Trazado_900594" data-name="Trazado 900594" d="M388.048,379.182a6.385,6.385,0,0,0-.924-4.771c-1.539-2-5.233-1.539-7.079.616s-4.463,8.618-4.463,8.618a14.641,14.641,0,0,1,8-2.924C387.894,380.721,388.048,379.182,388.048,379.182Z" transform="translate(-375.227 -372.781)" fill="#92e3a9"/>
            <path id="Trazado_900595" data-name="Trazado 900595" d="M375.438,383.855a.355.355,0,0,1-.329-.488c.108-.266,2.66-6.542,4.522-8.715a6.045,6.045,0,0,1,4.579-2.015,3.867,3.867,0,0,1,3.052,1.414,6.665,6.665,0,0,1,.991,5.048c-.043.281-.474,1.832-4.813,1.832a14.385,14.385,0,0,0-7.781,2.848A.356.356,0,0,1,375.438,383.855Zm8.632-10.51a5.307,5.307,0,0,0-3.9,1.768c-1.329,1.551-3.1,5.47-3.934,7.405a14.162,14.162,0,0,1,7.2-2.3c3.83,0,4.109-1.222,4.112-1.233l0-.026a6.071,6.071,0,0,0-.858-4.479,3.171,3.171,0,0,0-2.507-1.137Z" transform="translate(-375.083 -372.636)" fill="#263238"/>
          </g>
        </g>
        <g id="Grupo_1113185" data-name="Grupo 1113185" transform="translate(11.537 39.101)">
          <path id="Trazado_900596" data-name="Trazado 900596" d="M402.887,413.465H390.6l-6.141-20.313h24.565Z" transform="translate(-384.108 -392.798)" fill="#fff"/>
          <path id="Trazado_900597" data-name="Trazado 900597" d="M402.741,413.676H390.458a.356.356,0,0,1-.34-.252l-6.141-20.313a.355.355,0,0,1,.339-.457h24.565a.355.355,0,0,1,.339.457l-6.141,20.313A.354.354,0,0,1,402.741,413.676Zm-12.019-.71h11.756l5.927-19.6H384.8Z" transform="translate(-383.962 -392.654)" fill="#263238"/>
        </g>
        <g id="Grupo_1113186" data-name="Grupo 1113186" transform="translate(11.468 35.731)">
          <rect id="Rectángulo_406511" data-name="Rectángulo 406511" width="24.702" height="3.368" transform="translate(0.355 0.355)" fill="#fff"/>
          <path id="Trazado_900598" data-name="Trazado 900598" d="M408.923,391.986h-24.7a.355.355,0,0,1-.355-.355v-3.368a.355.355,0,0,1,.355-.355h24.7a.355.355,0,0,1,.355.355v3.368A.354.354,0,0,1,408.923,391.986Zm-24.347-.71h23.992v-2.658H384.576Z" transform="translate(-383.866 -387.908)" fill="#263238"/>
        </g>
      </g>
    </g>
    <g id="Blackboard" transform="translate(110.901 56.774)">
      <g id="Grupo_1113189" data-name="Grupo 1113189" transform="translate(0 -0.001)">
        <path id="Trazado_900599" data-name="Trazado 900599" d="M353.366,316.482H125.132v-5.049H353.366Zm-227.524-.71H352.656v-3.629H125.842Z" transform="translate(-125.132 -175.881)" fill="#263238"/>
        <path id="Trazado_900600" data-name="Trazado 900600" d="M353.366,258.857H125.132V120.51H353.366Zm-227.524-.71H352.656V121.22H125.842Z" transform="translate(-125.132 -120.51)" fill="#263238"/>
        <g id="Grupo_1113188" data-name="Grupo 1113188" transform="translate(4.697 4.841)">
          <rect id="Rectángulo_406512" data-name="Rectángulo 406512" width="218.129" height="127.956" transform="translate(0.355 0.355)" fill="gray"/>
          <path id="Trazado_900601" data-name="Trazado 900601" d="M350.587,255.994H131.748V127.328H350.587Zm-218.129-.71H349.877V128.038H132.458Z" transform="translate(-131.748 -127.328)" fill="#263238"/>
        </g>
      </g>
      <g id="Grupo_1113205" data-name="Grupo 1113205" transform="translate(94.093 85.949)">
        <g id="Grupo_1113193" data-name="Grupo 1113193">
          <g id="Grupo_1113190" data-name="Grupo 1113190" transform="translate(0 5.838)">
            <path id="Trazado_900602" data-name="Trazado 900602" d="M259.832,260.909a1.82,1.82,0,0,1-1.123-.365,2.566,2.566,0,0,1-.767-.936,2.7,2.7,0,0,1-.281-1.207,3.865,3.865,0,0,1,.337-1.7,3.394,3.394,0,0,1,.927-1.17,6.38,6.38,0,0,1,1.366-.833q.776-.355,1.638-.693v-.768a6.534,6.534,0,0,0-.075-1.086,1.1,1.1,0,0,0-.309-.646,1.007,1.007,0,0,0-.7-.215,1.088,1.088,0,0,0-.665.187,1.043,1.043,0,0,0-.365.533,2.634,2.634,0,0,0-.112.814v.543l-1.984-.075a3.937,3.937,0,0,1,.823-2.648,3.16,3.16,0,0,1,2.434-.852,2.7,2.7,0,0,1,2.283.88,4.123,4.123,0,0,1,.674,2.545v4.941q0,.506.028.973t.075.87c.031.268.059.521.084.758h-1.835q-.056-.3-.14-.758c-.056-.305-.1-.584-.122-.833a2.878,2.878,0,0,1-.721,1.189A1.948,1.948,0,0,1,259.832,260.909Zm.786-1.722a1.025,1.025,0,0,0,.562-.168,2.542,2.542,0,0,0,.467-.384,2.032,2.032,0,0,0,.281-.346V255.22c-.312.175-.606.349-.879.524a4.871,4.871,0,0,0-.721.552,2.22,2.22,0,0,0-.486.655,2.173,2.173,0,0,0,.065,1.862A.8.8,0,0,0,260.618,259.188Z" transform="translate(-257.661 -249.791)" fill="#e0e0e0"/>
          </g>
          <g id="Grupo_1113191" data-name="Grupo 1113191" transform="translate(7.355 5.989)">
            <path id="Trazado_900603" data-name="Trazado 900603" d="M268.021,260.821l2.433-5.69L268.077,250h1.909l1.591,3.425,1.4-3.425h1.966l-2.471,5.372,2.508,5.446h-1.91l-1.7-3.668-1.46,3.668h-1.891Z" transform="translate(-268.021 -250.003)" fill="#e0e0e0"/>
          </g>
          <g id="Grupo_1113192" data-name="Grupo 1113192" transform="translate(15.89)">
            <path id="Trazado_900604" data-name="Trazado 900604" d="M280.06,250.271v-1.142l2.321-2.527q.561-.6.889-1.02a3.423,3.423,0,0,0,.468-.758,1.737,1.737,0,0,0,.14-.674,1.307,1.307,0,0,0-.262-.87,1,1,0,0,0-.8-.309,1.09,1.09,0,0,0-1,.459,2.52,2.52,0,0,0-.29,1.338h-1.478v-.262a3.785,3.785,0,0,1,.28-1.488,2.3,2.3,0,0,1,.89-1.057,2.906,2.906,0,0,1,1.6-.393,2.648,2.648,0,0,1,1.909.665,2.41,2.41,0,0,1,.693,1.825,3.02,3.02,0,0,1-.44,1.638,10.4,10.4,0,0,1-1.376,1.656l-1.553,1.61h3.463v1.31Z" transform="translate(-280.042 -241.568)" fill="#e0e0e0"/>
          </g>
        </g>
        <g id="Grupo_1113196" data-name="Grupo 1113196" transform="translate(36.874 1.646)">
          <g id="Grupo_1113194" data-name="Grupo 1113194">
            <path id="Trazado_900605" data-name="Trazado 900605" d="M313.433,259.2a1.9,1.9,0,0,1-1.039-.29,4.1,4.1,0,0,1-.8-.645v.786h-2v-15.16h2v5.2a3.5,3.5,0,0,1,.851-.711,2.257,2.257,0,0,1,1.188-.3,1.945,1.945,0,0,1,1.338.44,2.677,2.677,0,0,1,.74,1.1,5.764,5.764,0,0,1,.318,1.348,11.2,11.2,0,0,1,.074,1.17v2.621a10.023,10.023,0,0,1-.224,2.161,3.47,3.47,0,0,1-.805,1.647A2.132,2.132,0,0,1,313.433,259.2Zm-.411-1.572a.8.8,0,0,0,.748-.384,2.486,2.486,0,0,0,.281-1.039q.056-.655.056-1.441v-2.621a9.632,9.632,0,0,0-.075-1.245,1.972,1.972,0,0,0-.318-.907.883.883,0,0,0-.767-.337,1.671,1.671,0,0,0-.74.168,3.394,3.394,0,0,0-.608.374v6.944a2.391,2.391,0,0,0,.627.346A2.174,2.174,0,0,0,313.022,257.625Z" transform="translate(-309.597 -243.887)" fill="#e0e0e0"/>
          </g>
          <g id="Grupo_1113195" data-name="Grupo 1113195" transform="translate(7.411 4.342)">
            <path id="Trazado_900606" data-name="Trazado 900606" d="M320.035,260.821l2.433-5.69L320.091,250H322l1.591,3.425,1.4-3.425h1.966l-2.471,5.372L327,260.821h-1.909l-1.7-3.668-1.46,3.668h-1.891Z" transform="translate(-320.035 -250.003)" fill="#e0e0e0"/>
          </g>
        </g>
        <g id="Grupo_1113200" data-name="Grupo 1113200" transform="translate(66.395 1.517)">
          <g id="Grupo_1113197" data-name="Grupo 1113197" transform="translate(0 4.322)">
            <path id="Trazado_900607" data-name="Trazado 900607" d="M354.341,260.909a3.225,3.225,0,0,1-2.012-.534,2.612,2.612,0,0,1-.917-1.507,9.748,9.748,0,0,1-.234-2.265v-2.489a9.629,9.629,0,0,1,.243-2.33,2.562,2.562,0,0,1,.927-1.479,3.272,3.272,0,0,1,1.994-.515,3.6,3.6,0,0,1,1.825.383,1.984,1.984,0,0,1,.889,1.142,6.243,6.243,0,0,1,.244,1.881v.636h-1.816v-.655a5.285,5.285,0,0,0-.094-1.122,1.006,1.006,0,0,0-.337-.6,1.367,1.367,0,0,0-1.441.037,1.216,1.216,0,0,0-.346.758,9.777,9.777,0,0,0-.085,1.451v3.406a4.323,4.323,0,0,0,.262,1.853.98.98,0,0,0,.936.468,1.009,1.009,0,0,0,.739-.234,1.157,1.157,0,0,0,.3-.665,6.56,6.56,0,0,0,.065-.973v-.88H357.3v.748a6.126,6.126,0,0,1-.253,1.871,2.144,2.144,0,0,1-.9,1.2A3.319,3.319,0,0,1,354.341,260.909Z" transform="translate(-351.178 -249.791)" fill="#e0e0e0"/>
          </g>
          <g id="Grupo_1113198" data-name="Grupo 1113198" transform="translate(12.184 5.221)">
            <path id="Trazado_900608" data-name="Trazado 900608" d="M368.339,252.593v-1.535h5.746v1.535Zm0,3.312v-1.516h5.746v1.516Z" transform="translate(-368.339 -251.058)" fill="#e0e0e0"/>
          </g>
          <g id="Grupo_1113199" data-name="Grupo 1113199" transform="translate(24.312)">
            <path id="Trazado_900609" data-name="Trazado 900609" d="M389.182,259.163a3.634,3.634,0,0,1-2.124-.58,3.431,3.431,0,0,1-1.235-1.591,6.183,6.183,0,0,1-.4-2.3v-6.532a6.34,6.34,0,0,1,.393-2.33,3.262,3.262,0,0,1,1.226-1.563,3.759,3.759,0,0,1,2.143-.562,3.719,3.719,0,0,1,2.134.562,3.3,3.3,0,0,1,1.216,1.563,6.353,6.353,0,0,1,.393,2.33v6.532a6.249,6.249,0,0,1-.4,2.321,3.4,3.4,0,0,1-1.226,1.582A3.649,3.649,0,0,1,389.182,259.163Zm0-1.647a1.364,1.364,0,0,0,1.077-.412,2.3,2.3,0,0,0,.5-1.057,6.272,6.272,0,0,0,.141-1.338v-6.569a6.869,6.869,0,0,0-.131-1.376,2.108,2.108,0,0,0-.5-1.039,1.425,1.425,0,0,0-1.1-.393,1.456,1.456,0,0,0-1.1.393,2.063,2.063,0,0,0-.506,1.039,6.911,6.911,0,0,0-.131,1.376v6.569a6.279,6.279,0,0,0,.14,1.338,2.2,2.2,0,0,0,.524,1.057A1.4,1.4,0,0,0,389.182,257.516Z" transform="translate(-385.421 -243.704)" fill="#e0e0e0"/>
          </g>
        </g>
        <g id="Grupo_1113202" data-name="Grupo 1113202" transform="translate(25.455 5.222)">
          <g id="Grupo_1113201" data-name="Grupo 1113201">
            <path id="Trazado_900610" data-name="Trazado 900610" d="M296.134,256.54V253.49h-2.62v-1.516h2.62v-3.051h1.5v3.051h2.714v1.516H297.63v3.051Z" transform="translate(-293.514 -248.923)" fill="#e0e0e0"/>
          </g>
        </g>
        <g id="Grupo_1113204" data-name="Grupo 1113204" transform="translate(56.107 5.222)">
          <g id="Grupo_1113203" data-name="Grupo 1113203">
            <path id="Trazado_900611" data-name="Trazado 900611" d="M339.307,256.54V253.49h-2.62v-1.516h2.62v-3.051h1.5v3.051h2.714v1.516H340.8v3.051Z" transform="translate(-336.687 -248.923)" fill="#e0e0e0"/>
          </g>
        </g>
      </g>
      <g id="Grupo_1113228" data-name="Grupo 1113228" transform="translate(45.31 24.529)">
        <g id="Grupo_1113210" data-name="Grupo 1113210" transform="translate(0 5.11)">
          <g id="Grupo_1113206" data-name="Grupo 1113206" transform="translate(0 4.342)">
            <path id="Trazado_900612" data-name="Trazado 900612" d="M188.95,179.191l2.433-5.69-2.377-5.128h1.909l1.591,3.425,1.4-3.425h1.965l-2.47,5.372,2.508,5.446H194l-1.7-3.668-1.46,3.668H188.95Z" transform="translate(-188.95 -168.373)" fill="#e0e0e0"/>
          </g>
          <g id="Grupo_1113207" data-name="Grupo 1113207" transform="translate(12.408 5.091)">
            <path id="Trazado_900613" data-name="Trazado 900613" d="M206.426,170.963v-1.535h5.746v1.535Zm0,3.312v-1.516h5.746v1.516Z" transform="translate(-206.426 -169.428)" fill="#e0e0e0"/>
          </g>
          <g id="Grupo_1113208" data-name="Grupo 1113208" transform="translate(23.6 9.827)">
            <path id="Trazado_900614" data-name="Trazado 900614" d="M222.19,177.614V176.1h8.965v1.516Z" transform="translate(-222.19 -176.098)" fill="#e0e0e0"/>
          </g>
          <g id="Grupo_1113209" data-name="Grupo 1113209" transform="translate(33.744)">
            <path id="Trazado_900615" data-name="Trazado 900615" d="M240.315,177.567a1.9,1.9,0,0,1-1.039-.29,4.1,4.1,0,0,1-.8-.645v.786h-2v-15.16h2v5.2a3.49,3.49,0,0,1,.851-.711,2.259,2.259,0,0,1,1.189-.3,1.946,1.946,0,0,1,1.338.44,2.682,2.682,0,0,1,.739,1.1,5.693,5.693,0,0,1,.318,1.348,11.03,11.03,0,0,1,.075,1.17v2.621a10.02,10.02,0,0,1-.224,2.161,3.473,3.473,0,0,1-.8,1.647A2.133,2.133,0,0,1,240.315,177.567ZM239.9,176a.8.8,0,0,0,.749-.384,2.5,2.5,0,0,0,.28-1.039q.056-.655.056-1.441v-2.621a9.638,9.638,0,0,0-.075-1.245,1.971,1.971,0,0,0-.318-.907.884.884,0,0,0-.767-.337,1.668,1.668,0,0,0-.739.168,3.346,3.346,0,0,0-.608.374v6.944a2.39,2.39,0,0,0,.627.346A2.177,2.177,0,0,0,239.9,176Z" transform="translate(-236.478 -162.257)" fill="#e0e0e0"/>
          </g>
        </g>
        <g id="Grupo_1113213" data-name="Grupo 1113213" transform="translate(77.047 3.464)">
          <g id="Grupo_1113211" data-name="Grupo 1113211" transform="translate(0 1.646)">
            <path id="Trazado_900616" data-name="Trazado 900616" d="M301.306,177.567a1.9,1.9,0,0,1-1.039-.29,4.1,4.1,0,0,1-.8-.645v.786h-2v-15.16h2v5.2a3.5,3.5,0,0,1,.851-.711,2.257,2.257,0,0,1,1.189-.3,1.945,1.945,0,0,1,1.338.44,2.677,2.677,0,0,1,.74,1.1,5.8,5.8,0,0,1,.318,1.348,11.206,11.206,0,0,1,.074,1.17v2.621a10.021,10.021,0,0,1-.224,2.161,3.473,3.473,0,0,1-.805,1.647A2.132,2.132,0,0,1,301.306,177.567ZM300.895,176a.8.8,0,0,0,.748-.384,2.486,2.486,0,0,0,.281-1.039q.056-.655.056-1.441v-2.621a9.643,9.643,0,0,0-.075-1.245,1.972,1.972,0,0,0-.318-.907.882.882,0,0,0-.767-.337,1.671,1.671,0,0,0-.74.168,3.363,3.363,0,0,0-.608.374v6.944a2.39,2.39,0,0,0,.627.346A2.162,2.162,0,0,0,300.895,176Z" transform="translate(-297.47 -162.257)" fill="#e0e0e0"/>
          </g>
          <g id="Grupo_1113212" data-name="Grupo 1113212" transform="translate(8.74)">
            <path id="Trazado_900617" data-name="Trazado 900617" d="M309.8,168.641V167.5l2.32-2.527q.561-.6.889-1.02a3.421,3.421,0,0,0,.468-.758,1.736,1.736,0,0,0,.14-.674,1.307,1.307,0,0,0-.262-.87,1,1,0,0,0-.8-.309,1.09,1.09,0,0,0-1,.459,2.526,2.526,0,0,0-.29,1.338H309.78v-.262a3.785,3.785,0,0,1,.28-1.488,2.3,2.3,0,0,1,.89-1.057,2.906,2.906,0,0,1,1.6-.393,2.647,2.647,0,0,1,1.909.665,2.409,2.409,0,0,1,.692,1.825,3.02,3.02,0,0,1-.44,1.638,10.4,10.4,0,0,1-1.376,1.656l-1.553,1.61h3.463v1.31Z" transform="translate(-309.78 -159.938)" fill="#e0e0e0"/>
          </g>
        </g>
        <g id="Grupo_1113217" data-name="Grupo 1113217" transform="translate(110.425 5.11)">
          <g id="Grupo_1113214" data-name="Grupo 1113214">
            <path id="Trazado_900618" data-name="Trazado 900618" d="M348.88,177.417v-4.061h-4.4v-2.1l3.948-9h2.359v9.321h1.7v1.778h-1.7v4.061H348.88Zm-2.471-5.839h2.47v-6.888Z" transform="translate(-344.482 -162.257)" fill="#e0e0e0"/>
          </g>
          <g id="Grupo_1113215" data-name="Grupo 1113215" transform="translate(9.076 4.192)">
            <path id="Trazado_900619" data-name="Trazado 900619" d="M359.437,179.28a1.82,1.82,0,0,1-1.123-.365,2.566,2.566,0,0,1-.767-.936,2.7,2.7,0,0,1-.281-1.207,3.866,3.866,0,0,1,.337-1.7,3.394,3.394,0,0,1,.927-1.17,6.379,6.379,0,0,1,1.366-.833q.777-.356,1.638-.693v-.767a6.538,6.538,0,0,0-.075-1.086,1.1,1.1,0,0,0-.309-.646,1.007,1.007,0,0,0-.7-.215,1.088,1.088,0,0,0-.665.187,1.043,1.043,0,0,0-.365.534,2.654,2.654,0,0,0-.112.814v.543l-1.984-.075a3.937,3.937,0,0,1,.823-2.648,3.16,3.16,0,0,1,2.434-.852,2.7,2.7,0,0,1,2.283.88,4.123,4.123,0,0,1,.674,2.545v4.941q0,.506.028.973t.075.87c.031.268.059.521.085.758h-1.835q-.056-.3-.14-.758t-.122-.833a2.878,2.878,0,0,1-.721,1.189A1.947,1.947,0,0,1,359.437,179.28Zm.787-1.722a1.025,1.025,0,0,0,.562-.168,2.567,2.567,0,0,0,.467-.383,2.027,2.027,0,0,0,.281-.346v-3.069c-.312.175-.606.349-.879.524a4.872,4.872,0,0,0-.721.552,2.222,2.222,0,0,0-.486.655,2.173,2.173,0,0,0,.065,1.862A.8.8,0,0,0,360.224,177.558Z" transform="translate(-357.266 -168.162)" fill="#e0e0e0"/>
          </g>
          <g id="Grupo_1113216" data-name="Grupo 1113216" transform="translate(17.069 4.193)">
            <path id="Trazado_900620" data-name="Trazado 900620" d="M371.686,179.28a3.229,3.229,0,0,1-2.012-.533,2.612,2.612,0,0,1-.917-1.507,9.746,9.746,0,0,1-.234-2.264v-2.489a9.629,9.629,0,0,1,.243-2.33,2.562,2.562,0,0,1,.927-1.479,3.273,3.273,0,0,1,1.994-.515,3.6,3.6,0,0,1,1.825.384,1.984,1.984,0,0,1,.889,1.142,6.243,6.243,0,0,1,.243,1.881v.636h-1.816v-.655a5.3,5.3,0,0,0-.094-1.123,1.006,1.006,0,0,0-.337-.6,1.367,1.367,0,0,0-1.441.037,1.216,1.216,0,0,0-.346.758,9.777,9.777,0,0,0-.084,1.45v3.406a4.323,4.323,0,0,0,.262,1.853.98.98,0,0,0,.936.468,1.009,1.009,0,0,0,.739-.234,1.157,1.157,0,0,0,.3-.665,6.564,6.564,0,0,0,.065-.973v-.88h1.816v.748a6.149,6.149,0,0,1-.253,1.872,2.145,2.145,0,0,1-.9,1.2A3.339,3.339,0,0,1,371.686,179.28Z" transform="translate(-368.523 -168.163)" fill="#e0e0e0"/>
          </g>
        </g>
        <g id="Grupo_1113220" data-name="Grupo 1113220" transform="translate(58.372 28.931)">
          <g id="Grupo_1113218" data-name="Grupo 1113218">
            <path id="Trazado_900621" data-name="Trazado 900621" d="M271.166,211.1v-1.422l3.855-6.008q.43-.674.8-1.254a6.407,6.407,0,0,0,.6-1.226,4.371,4.371,0,0,0,.234-1.488,3.373,3.373,0,0,0-.337-1.647,1.237,1.237,0,0,0-1.179-.6,1.492,1.492,0,0,0-1.1.393,2.1,2.1,0,0,0-.543,1.029,5.939,5.939,0,0,0-.15,1.366v.506h-2v-.524a6.747,6.747,0,0,1,.365-2.349,3.049,3.049,0,0,1,1.179-1.525,3.835,3.835,0,0,1,2.161-.543,3.421,3.421,0,0,1,2.733,1.039,4.253,4.253,0,0,1,.9,2.873,5.578,5.578,0,0,1-.234,1.7,6.817,6.817,0,0,1-.608,1.367q-.376.637-.824,1.31l-3.481,5.315h4.791V211.1h-7.15Z" transform="translate(-271.166 -195.808)" fill="#e0e0e0"/>
          </g>
          <g id="Grupo_1113219" data-name="Grupo 1113219" transform="translate(8.965 4.322)">
            <path id="Trazado_900622" data-name="Trazado 900622" d="M285.963,213.014a1.82,1.82,0,0,1-1.123-.365,2.566,2.566,0,0,1-.767-.936,2.7,2.7,0,0,1-.28-1.207,3.865,3.865,0,0,1,.337-1.7,3.393,3.393,0,0,1,.927-1.17,6.38,6.38,0,0,1,1.366-.833q.776-.355,1.638-.693v-.767a6.543,6.543,0,0,0-.075-1.086,1.1,1.1,0,0,0-.309-.646,1.007,1.007,0,0,0-.7-.215,1.091,1.091,0,0,0-.665.187,1.043,1.043,0,0,0-.365.533,2.657,2.657,0,0,0-.112.814v.543l-1.984-.075a3.937,3.937,0,0,1,.823-2.648,3.16,3.16,0,0,1,2.434-.852,2.7,2.7,0,0,1,2.283.88,4.123,4.123,0,0,1,.674,2.545v4.941q0,.506.028.973c.018.312.044.6.075.87s.059.521.085.758h-1.835q-.056-.3-.14-.758t-.122-.833a2.879,2.879,0,0,1-.721,1.189A1.95,1.95,0,0,1,285.963,213.014Zm.787-1.722a1.025,1.025,0,0,0,.562-.168,2.542,2.542,0,0,0,.467-.384,2.029,2.029,0,0,0,.281-.346v-3.069q-.469.262-.879.524a4.87,4.87,0,0,0-.721.552,2.222,2.222,0,0,0-.486.655,2.173,2.173,0,0,0,.065,1.862A.8.8,0,0,0,286.75,211.292Z" transform="translate(-283.793 -201.896)" fill="#e0e0e0"/>
          </g>
        </g>
        <g id="Grupo_1113223" data-name="Grupo 1113223" transform="translate(44.645 3.769)">
          <g id="Grupo_1113221" data-name="Grupo 1113221" transform="translate(1.057)">
            <path id="Trazado_900623" data-name="Trazado 900623" d="M255.942,167.985v-3.051h-2.621v-1.516h2.621v-3.051h1.5v3.051h2.714v1.516h-2.714v3.051Z" transform="translate(-253.321 -160.368)" fill="#e0e0e0"/>
          </g>
          <g id="Grupo_1113222" data-name="Grupo 1113222" transform="translate(0 10.944)">
            <path id="Trazado_900624" data-name="Trazado 900624" d="M251.832,177.3v-1.516H260.8V177.3Z" transform="translate(-251.832 -175.782)" fill="#e0e0e0"/>
          </g>
        </g>
        <g id="Grupo_1113225" data-name="Grupo 1113225" transform="translate(96.965 14.396)">
          <g id="Grupo_1113224" data-name="Grupo 1113224">
            <path id="Trazado_900625" data-name="Trazado 900625" d="M325.524,176.851v-1.516h8.965v1.516Z" transform="translate(-325.524 -175.335)" fill="#e0e0e0"/>
          </g>
        </g>
        <g id="Grupo_1113226" data-name="Grupo 1113226" transform="translate(57.888)">
          <path id="Trazado_900626" data-name="Trazado 900626" d="M276.611,175.337l-6.126-13.068,1.286-.6,4.812,10.266,7.576-16.873h61.824v1.42H285.077Z" transform="translate(-270.485 -155.059)" fill="#e0e0e0"/>
        </g>
        <g id="Grupo_1113227" data-name="Grupo 1113227" transform="translate(21.848 24.755)">
          <rect id="Rectángulo_406513" data-name="Rectángulo 406513" width="113.39" height="1.42" fill="#e0e0e0"/>
        </g>
      </g>
    </g>
    <g id="Character" transform="translate(56.588 102.8)">
      <g id="Grupo_1113251" data-name="Grupo 1113251" transform="translate(0 0)">
        <g id="Grupo_1113229" data-name="Grupo 1113229" transform="translate(105.43 19.127)">
          <path id="Trazado_900627" data-name="Trazado 900627" d="M200.973,212.883s8.137,1.837,8.4,7.481-5.512,9.057-5.512,9.057-1.969-8.4-3.412-10.369-2.756-4.2-2.756-4.2S198.873,212.226,200.973,212.883Z" transform="translate(-197.292 -212.424)" fill="#263238"/>
          <path id="Trazado_900628" data-name="Trazado 900628" d="M203.461,229.827l-.11-.471c-.019-.084-1.969-8.352-3.353-10.239-1.437-1.961-2.763-4.207-2.776-4.23l-.093-.158.075-.168c.452-1,1.8-2.747,3.7-2.166.5.116,8.393,2.025,8.663,7.808s-5.443,9.235-5.686,9.378Zm-5.529-15.135c.33.55,1.446,2.379,2.638,4.005,1.28,1.745,2.9,8.151,3.353,10,1.284-.9,5.14-3.971,4.931-8.464-.247-5.312-8.045-7.134-8.124-7.152l-.028-.008C199.189,212.6,198.212,214.168,197.933,214.692Z" transform="translate(-197.129 -212.279)" fill="#263238"/>
        </g>
        <g id="Grupo_1113232" data-name="Grupo 1113232" transform="translate(70.138 141.369)">
          <g id="Grupo_1113230" data-name="Grupo 1113230">
            <path id="Trazado_900629" data-name="Trazado 900629" d="M148.019,411.133h18.017l-5.923-26.023a13.7,13.7,0,0,0-7.582,7.345C150.4,397.905,148.019,411.133,148.019,411.133Z" transform="translate(-147.594 -384.644)" fill="#92e3a9"/>
            <path id="Trazado_900630" data-name="Trazado 900630" d="M166.308,411.3H147.421l.075-.418c.024-.132,2.41-13.324,4.53-18.744a13.925,13.925,0,0,1,7.8-7.551l.374-.131Zm-18.036-.71h17.147l-5.732-25.182a13.341,13.341,0,0,0-7,6.99C150.8,397.207,148.7,408.3,148.272,410.588Z" transform="translate(-147.421 -384.454)" fill="#263238"/>
          </g>
          <g id="Grupo_1113231" data-name="Grupo 1113231" transform="translate(0.425 8.867)">
            <path id="Trazado_900631" data-name="Trazado 900631" d="M164.211,410.47l-15.45,4.155c-.459,2.288-.742,3.863-.742,3.863h.045L165,413.934Z" transform="translate(-148.019 -400.866)" fill="#263238"/>
            <path id="Trazado_900632" data-name="Trazado 900632" d="M152.334,399.451c-.345,1.22-.684,2.543-1.005,3.884l12.444-2.93-.788-3.462Z" transform="translate(-148.979 -396.943)" fill="#263238"/>
          </g>
        </g>
        <g id="Grupo_1113235" data-name="Grupo 1113235" transform="translate(0 66.211)">
          <g id="Grupo_1113233" data-name="Grupo 1113233">
            <path id="Trazado_900633" data-name="Trazado 900633" d="M116.315,279.947s-9.5,2.679-18.714,11.9-20.582,36.447-25.3,48.024-6.861,17.152-6.861,17.152L49.577,380.39h69.892s8.147-20.367,10.934-22.3,11.577-9.648,12.863-13.936,1.286-36.018-.643-42.021-12.863-20.582-17.366-22.3A13.371,13.371,0,0,0,116.315,279.947Z" transform="translate(-48.906 -278.743)" fill="#92e3a9"/>
            <path id="Trazado_900634" data-name="Trazado 900634" d="M119.435,380.6h-70.8l16.219-23.889c.2-.515,2.385-6.164,6.848-17.12C82.086,314.1,90.623,297.9,97.076,291.447a48.9,48.9,0,0,1,18.849-11.983,13.587,13.587,0,0,1,9.185-.1c4.622,1.76,15.632,16.468,17.578,22.52,1.918,5.965,2.049,37.554.645,42.232-1.335,4.452-10.425,12.342-13,14.126-2.214,1.533-8.551,16.5-10.807,22.137Zm-69.463-.71h68.983c.943-2.342,8.257-20.354,10.972-22.233,2.528-1.751,11.439-9.458,12.726-13.745,1.34-4.469,1.184-36.132-.641-41.811-1.861-5.789-12.773-20.4-17.155-22.075a13.09,13.09,0,0,0-8.681.105l-.038.013a48.015,48.015,0,0,0-18.56,11.808c-6.385,6.385-14.871,22.5-25.221,47.907C67.7,351.3,65.521,356.946,65.5,357l-.038.072Z" transform="translate(-48.632 -278.596)" fill="#263238"/>
          </g>
          <g id="Grupo_1113234" data-name="Grupo 1113234" transform="translate(11.162 20.686)">
            <path id="Trazado_900635" data-name="Trazado 900635" d="M108.264,307.732q-.931,1.449-1.863,3.026a39.712,39.712,0,0,0,7.461,3.7l1.257-3.32A35.989,35.989,0,0,1,108.264,307.732Z" transform="translate(-76.548 -307.732)" fill="#263238"/>
            <path id="Trazado_900636" data-name="Trazado 900636" d="M122.37,352.481a155.845,155.845,0,0,0,30.941,11.358,20.989,20.989,0,0,0,2.209-3.116,152.228,152.228,0,0,1-31.454-11.363,149.2,149.2,0,0,1-28.443-18.168q-.8,1.664-1.574,3.324A152.3,152.3,0,0,0,122.37,352.481Z" transform="translate(-72.966 -314.536)" fill="#263238"/>
            <path id="Trazado_900637" data-name="Trazado 900637" d="M101.534,362.423a155.357,155.357,0,0,0,42.453,13.78c1.043-.9,2.2-1.948,3.335-3.062a151.652,151.652,0,0,1-44.093-13.84A154.22,154.22,0,0,1,87.1,350.116c-.495,1.149-.969,2.263-1.421,3.331A159.325,159.325,0,0,0,101.534,362.423Z" transform="translate(-70.537 -320.024)" fill="#263238"/>
            <path id="Trazado_900638" data-name="Trazado 900638" d="M126.023,408.719c.466-1.1.983-2.3,1.527-3.535-33-.868-51.721-5.881-61.111-9.514l-2.086,3.073C73.755,402.549,92.5,407.75,126.023,408.719Z" transform="translate(-64.353 -333.236)" fill="#263238"/>
            <path id="Trazado_900639" data-name="Trazado 900639" d="M78.72,370.39c-.486,1.2-.934,2.313-1.35,3.347a152.579,152.579,0,0,0,19.6,7.981,213.656,213.656,0,0,0,37.828,8.66c.633-1.262,1.243-2.4,1.8-3.347C108.214,383.181,88.955,375.475,78.72,370.39Z" transform="translate(-68.128 -325.904)" fill="#263238"/>
          </g>
        </g>
        <g id="Grupo_1113236" data-name="Grupo 1113236" transform="translate(86.156 73.826)">
          <path id="Trazado_900640" data-name="Trazado 900640" d="M175.731,309.906s.6-1.341,1.49-1.043,3.278,5.662,3.278,5.662-.149-9.387-3.874-16.092-4.917-8.493-4.917-8.493-1.788.745-1.043,3.874S175.731,309.906,175.731,309.906Z" transform="translate(-170.127 -289.501)" fill="#fff"/>
          <path id="Trazado_900641" data-name="Trazado 900641" d="M180.735,316.08l-.707-1.59c-1.1-2.481-2.589-5.279-3.067-5.47-.569-.19-1.048.841-1.052.851l-.373.829-.288-.862c-.177-.53-4.334-13.013-5.074-16.121-.806-3.384,1.168-4.249,1.252-4.285l.27-.112.163.244c.049.074,1.242,1.876,4.932,8.517,3.725,6.706,3.917,16.164,3.918,16.259Zm-3.924-7.8a1.185,1.185,0,0,1,.376.063c.688.229,1.872,2.44,2.7,4.161-.248-3.054-1.065-9.3-3.723-14.082-2.882-5.188-4.254-7.441-4.716-8.176-.4.328-1.083,1.224-.589,3.3.633,2.656,3.908,12.594,4.822,15.35A1.527,1.527,0,0,1,176.811,308.283Z" transform="translate(-169.981 -289.321)" fill="#263238"/>
        </g>
        <g id="Grupo_1113239" data-name="Grupo 1113239" transform="translate(66.88 51.021)">
          <g id="Grupo_1113237" data-name="Grupo 1113237" transform="translate(0)">
            <path id="Trazado_900642" data-name="Trazado 900642" d="M149.377,258.07s-1.284,4.586-2.568,8.989a19.876,19.876,0,0,1-3.3,6.787s-1.651,4.219,5.32,13.392S167.539,308.7,167.539,308.7a34.334,34.334,0,0,0-.183-10.824c-1.1-4.77-3.3-11.924-3.3-11.924l5.32-11.557Z" transform="translate(-142.978 -257.453)" fill="#fff"/>
            <path id="Trazado_900643" data-name="Trazado 900643" d="M167.635,309.217l-.5-.523c-.118-.124-11.835-12.41-18.738-21.493-7.01-9.225-5.438-13.556-5.368-13.736l.06-.1a19.774,19.774,0,0,0,3.233-6.658c1.269-4.351,2.555-8.939,2.567-8.985l.146-.522,20.629,16.844-5.379,11.684c.3.993,2.259,7.443,3.269,11.818a34.225,34.225,0,0,1,.188,10.956Zm-23.958-35.449c-.135.469-1.066,4.645,5.286,13,6.053,7.964,15.83,18.412,18.171,20.891a32.678,32.678,0,0,0-.271-9.955c-1.085-4.7-3.273-11.828-3.3-11.9l-.04-.13,5.262-11.431-19.363-15.811c-.373,1.328-1.4,4.976-2.423,8.47A20.445,20.445,0,0,1,143.677,273.768Z" transform="translate(-142.832 -257.201)" fill="#263238"/>
          </g>
          <g id="Grupo_1113238" data-name="Grupo 1113238" transform="translate(10.843 8.976)">
            <path id="Trazado_900644" data-name="Trazado 900644" d="M162.372,274.468l7.311,13.275,3.848-7.7-13.276-8.273Z" transform="translate(-158.728 -270.403)" fill="#263238"/>
            <path id="Trazado_900645" data-name="Trazado 900645" d="M169.075,287.947,161.452,274.1l-3.348-4.261,15.266,9.514Zm-7.914-15.363.9,1.152,6.985,12.684,3.4-6.8Z" transform="translate(-158.104 -269.843)" fill="#263238"/>
          </g>
        </g>
        <g id="Grupo_1113241" data-name="Grupo 1113241" transform="translate(66.71 18.834)">
          <g id="Grupo_1113240" data-name="Grupo 1113240" transform="translate(0)">
            <path id="Trazado_900646" data-name="Trazado 900646" d="M184.482,213.942s4.594,10.894,4.725,13.125-.919,4.725-.394,8.925,1.706,10.369.787,13.125c-.907,2.721-3.448,5.175-5.284,7.29-3.455,3.979-7.254,9.1-13.184,8.566-3.8-.34-7.383-3.083-10.276-5.356-7.35-5.775-10.894-9.45-12.075-11.943s-7.612-9.057-5.119-13.912,23.756-17.194,23.756-17.194S181.07,209.217,184.482,213.942Z" transform="translate(-142.737 -212.009)" fill="#fff"/>
            <path id="Trazado_900647" data-name="Trazado 900647" d="M171.84,265.224c-.29,0-.584-.012-.884-.04-4.008-.358-7.74-3.29-10.464-5.43-7.018-5.514-10.888-9.35-12.176-12.071a20.023,20.023,0,0,0-1.5-2.327c-2.235-3.186-5.612-8-3.61-11.9,2.513-4.892,23.022-16.833,23.894-17.339.578-.312,13.975-7.447,17.529-2.526l.04.07c.188.447,4.618,10.976,4.752,13.242a14.641,14.641,0,0,1-.221,2.862,21.168,21.168,0,0,0-.175,6.04c.1.793.222,1.656.349,2.552.56,3.945,1.194,8.415.423,10.729s-2.666,4.417-4.338,6.272c-.351.39-.694.77-1.014,1.139q-.428.493-.864,1.005C180.471,261.134,176.973,265.224,171.84,265.224Zm8.534-52.669c-5.089,0-12.829,4.127-12.932,4.182-.2.117-21.19,12.335-23.608,17.043-1.805,3.516,1.423,8.121,3.56,11.168a20.19,20.19,0,0,1,1.564,2.431c1.223,2.582,5.14,6.447,11.974,11.816,2.655,2.087,6.29,4.943,10.089,5.282,5.257.472,8.848-3.73,12.016-7.436.292-.342.581-.679.868-1.01.323-.372.668-.755,1.023-1.148,1.625-1.8,3.468-3.849,4.192-6.021.719-2.156.069-6.729-.452-10.4-.128-.9-.251-1.768-.351-2.564a22.058,22.058,0,0,1,.176-6.227,14.2,14.2,0,0,0,.216-2.722c-.122-2.081-4.383-12.26-4.682-12.97A4.315,4.315,0,0,0,180.374,212.556Z" transform="translate(-142.592 -211.866)" fill="#263238"/>
          </g>
          <path id="Trazado_900648" data-name="Trazado 900648" d="M175.31,238.57l-.58-.409c3.269-4.633,8.5-2.774,8.55-2.753l-.245.666A6.73,6.73,0,0,0,175.31,238.57Z" transform="translate(-151.913 -218.582)" fill="#263238"/>
          <path id="Trazado_900649" data-name="Trazado 900649" d="M197.495,235.753l-.59-.4c.017-.027,1.788-2.589,5.949-.785l-.282.652C198.976,233.666,197.554,235.667,197.495,235.753Z" transform="translate(-158.344 -218.265)" fill="#263238"/>
          <path id="Trazado_900650" data-name="Trazado 900650" d="M192.162,254.626l-.055-.707c1.676-.13,5.607-1.422,6.306-2.353.211-.282-.177-.778-.883-1.631a13.59,13.59,0,0,1-2.579-4.206,12.451,12.451,0,0,1-.133-7.451l.674.224a11.942,11.942,0,0,0,.129,6.988,12.971,12.971,0,0,0,2.458,3.992c.816.987,1.462,1.766.9,2.509C198.079,253.194,193.854,254.5,192.162,254.626Z" transform="translate(-156.952 -219.526)" fill="#263238"/>
          <path id="Trazado_900651" data-name="Trazado 900651" d="M186.016,267.832a12.834,12.834,0,0,1-9.063-4.869l.572-.421c.032.043,3.254,4.33,8.525,4.582Z" transform="translate(-152.557 -226.563)" fill="#263238"/>
          <path id="Trazado_900652" data-name="Trazado 900652" d="M180.312,246.6c0,1.341-.558,2.428-1.247,2.428s-1.247-1.087-1.247-2.428.558-2.428,1.247-2.428S180.312,245.255,180.312,246.6Z" transform="translate(-152.808 -221.234)" fill="#263238"/>
          <path id="Trazado_900653" data-name="Trazado 900653" d="M199.168,244.839c0,1.341-.558,2.428-1.247,2.428s-1.247-1.087-1.247-2.428.558-2.428,1.247-2.428S199.168,243.5,199.168,244.839Z" transform="translate(-158.277 -220.725)" fill="#263238"/>
        </g>
        <g id="Grupo_1113242" data-name="Grupo 1113242" transform="translate(50.794)">
          <path id="Trazado_900654" data-name="Trazado 900654" d="M176.54,189.583c-3.412-2.493-8.4-.787-8.4-.787a8.591,8.591,0,0,1,6.694-1.444s-3.282-2.362-5.644-1.181a18.479,18.479,0,0,0-4.856,3.544c-.919.919-.787,2.231-7.218.525s-18.244-.525-24.543,8.138-6.825,21.263-8.006,24.15-6.3,8.794-2.493,15.619a4.739,4.739,0,0,0,1.764,1.881c1.375,1.41,3.5,2.285,5.981,4.146,4.363,3.272,8.229,4.851,10.425,1.94s.264-6.3.046-8.92,2.391-6.264,2.391-6.264a6.47,6.47,0,0,0,5.381-1.181c2.231-1.969,2.625-4.856,1.706-8.663s3.938-2.888,10.894-2.493,9.187-6.3,9.975-8.268,4.725.263,8.663-4.2S179.953,192.076,176.54,189.583Z" transform="translate(-120.323 -185.484)" fill="#263238"/>
          <path id="Trazado_900655" data-name="Trazado 900655" d="M137.1,247.84c-1.969,0-4.5-1.174-7.645-3.531-1.066-.8-2.08-1.424-2.974-1.974a15.84,15.84,0,0,1-3.013-2.173,5.146,5.146,0,0,1-1.854-1.992c-3.17-5.684-.381-10.674,1.465-13.976a19.874,19.874,0,0,0,1.009-1.95,27.332,27.332,0,0,0,.926-4.157c.929-5.121,2.486-13.692,7.123-20.067,6.61-9.088,18.795-9.9,24.922-8.272,5.359,1.422,5.926.718,6.524-.028a4.871,4.871,0,0,1,.352-.4,18.909,18.909,0,0,1,4.949-3.61c2.527-1.262,5.869,1.109,6.009,1.211l1.33.958-1.607-.322a8.174,8.174,0,0,0-4.074.222,8.806,8.806,0,0,1,6.059,1.375h0c2.2,1.608,4.182,5.787,4.61,9.721.234,2.153.113,5.174-1.8,7.338a9.361,9.361,0,0,1-6.569,3.267c-1.174.147-1.8.251-2.029.831l-.129.329c-.912,2.339-3.339,8.547-10.2,8.162-.936-.053-1.835-.116-2.686-.175-3.783-.263-6.771-.471-7.658.577a1.814,1.814,0,0,0-.185,1.654c1.006,4.168.429,7.031-1.817,9.012a6.642,6.642,0,0,1-5.457,1.311c-.514.768-2.374,3.71-2.2,5.839a15.4,15.4,0,0,0,.439,2.259c.532,2.185,1.136,4.661-.556,6.9A3.909,3.909,0,0,1,137.1,247.84Zm14.245-58.056c-6.111,0-13.872,2.107-18.635,8.656-4.541,6.244-6.08,14.715-7,19.776a27.315,27.315,0,0,1-.967,4.3,20.266,20.266,0,0,1-1.047,2.026c-1.769,3.164-4.442,7.946-1.465,13.285a4.444,4.444,0,0,0,1.629,1.746l.078.06a15.162,15.162,0,0,0,2.912,2.1c.908.559,1.937,1.192,3.028,2.01,4.987,3.741,8.141,4.379,9.928,2.011,1.49-1.974.953-4.178.433-6.31a15.787,15.787,0,0,1-.457-2.367c-.226-2.717,2.346-6.347,2.456-6.5l.14-.2.234.058a6.149,6.149,0,0,0,5.06-1.1c2.026-1.788,2.534-4.429,1.6-8.312a2.454,2.454,0,0,1,.333-2.278c1.118-1.323,4.11-1.115,8.249-.827.848.059,1.743.121,2.677.175,6.341.356,8.633-5.5,9.493-7.711l.132-.335c.4-1,1.419-1.124,2.6-1.272a8.628,8.628,0,0,0,6.126-3.032c1.738-1.969,1.842-4.78,1.623-6.792-.4-3.695-2.3-7.747-4.322-9.224h0c-3.22-2.352-8.028-.755-8.075-.738l-1.889.643,1.551-1.255a8.805,8.805,0,0,1,5.216-1.693h.049a4.637,4.637,0,0,0-3.832-.339,18.207,18.207,0,0,0-4.764,3.477,4.233,4.233,0,0,0-.3.348c-.879,1.093-1.857,1.7-7.26.269A22.05,22.05,0,0,0,151.345,189.784Z" transform="translate(-120.175 -185.338)" fill="#263238"/>
        </g>
        <g id="Grupo_1113243" data-name="Grupo 1113243" transform="translate(64.418 40.232)">
          <path id="Trazado_900656" data-name="Trazado 900656" d="M149.685,248.672s-4.331-6.169-6.956-6.169-3.806,5.644-1.969,9.581,6.562,5.25,7.35,5.25a2.749,2.749,0,0,0,1.575-.787" transform="translate(-139.511 -242.149)" fill="#fff"/>
          <path id="Trazado_900657" data-name="Trazado 900657" d="M147.963,257.546a10.525,10.525,0,0,1-7.671-5.456c-1.434-3.072-1.059-6.841.131-8.711A2.578,2.578,0,0,1,142.582,242c2.777,0,7.065,6.062,7.247,6.32l-.581.408c-1.176-1.673-4.665-6.018-6.665-6.018a1.956,1.956,0,0,0-1.56,1.047c-1.064,1.671-1.4,5.216-.087,8.03,1.842,3.948,6.552,5.045,7.028,5.045a2.34,2.34,0,0,0,1.324-.684l.5.5A3.082,3.082,0,0,1,147.963,257.546Z" transform="translate(-139.364 -242.004)" fill="#263238"/>
        </g>
        <g id="Grupo_1113244" data-name="Grupo 1113244" transform="translate(63.917 62.914)">
          <path id="Trazado_900658" data-name="Trazado 900658" d="M143.4,274.831s1.49,5.364,6.854,13.857a98.881,98.881,0,0,0,13.559,16.241s-1.49,7.6-1.49,8.046-6.258-2.086-13.559-13.409-10.131-17.88-9.536-19.816S143.4,274.831,143.4,274.831Z" transform="translate(-138.802 -274.207)" fill="#fff"/>
          <path id="Trazado_900659" data-name="Trazado 900659" d="M162.152,313.112c-1.054,0-7.08-3.143-13.829-13.611-6.782-10.519-10.273-17.85-9.576-20.113.62-2.014,4.135-4.96,4.284-5.084l.422-.351.148.529c.015.053,1.544,5.421,6.812,13.762a99.247,99.247,0,0,0,13.5,16.172l.142.134-.038.192c-.567,2.889-1.47,7.611-1.483,7.979l-.009.256-.284.124A.325.325,0,0,1,162.152,313.112ZM143.081,275.2c-.937.83-3.213,2.958-3.656,4.4-.483,1.568,1.758,7.52,9.495,19.52,6.3,9.776,11.7,12.826,12.949,13.243.212-1.389,1.136-6.135,1.416-7.565a99.53,99.53,0,0,1-13.473-16.173A64.583,64.583,0,0,1,143.081,275.2Z" transform="translate(-138.659 -273.952)" fill="#263238"/>
        </g>
        <g id="Grupo_1113245" data-name="Grupo 1113245" transform="translate(25.466 50.008)">
          <path id="Trazado_900660" data-name="Trazado 900660" d="M111.722,258.575s-12.107-4.445-17.56-.954-1.091,16.8,2.618,22.032-4.363,3.49-9.162,9.38-2.4,9.6,2.4,12.434,10.689-3.054,13.089-7.635,5.235-5.235,11.343-7.635,12.434-9.38,10.034-13.961-1.091-3.926-.218-5.235-3.927-6.544-6.981-7.2S111.722,258.575,111.722,258.575Z" transform="translate(-84.646 -255.921)" fill="#263238"/>
          <path id="Trazado_900661" data-name="Trazado 900661" d="M92.562,302.417a5.559,5.559,0,0,1-2.87-.792c-3.049-1.8-4.718-3.726-5.1-5.884-.382-2.141.471-4.456,2.608-7.08a16.4,16.4,0,0,1,6.952-4.631c1.563-.655,2.8-1.173,3.032-1.992.158-.55-.116-1.311-.836-2.328-2.765-3.9-6.151-12.707-5.038-18.412a5.989,5.989,0,0,1,2.519-4.124c5.475-3.5,17.1.639,17.853.912.251.057,2.65.6,5.536,1.221,2.506.537,6.283,4.119,7.169,6.3a1.527,1.527,0,0,1,.031,1.441,3.776,3.776,0,0,1-.637.708c-.551.506-.883.811.874,4.165a5.85,5.85,0,0,1,.074,4.844c-1.41,3.781-5.739,7.823-10.293,9.612-.65.255-1.264.491-1.844.714-4.815,1.851-7.233,2.78-9.314,6.756-1.711,3.266-5.224,7.257-8.9,8.3A6.61,6.61,0,0,1,92.562,302.417Zm7.214-45.925a10.441,10.441,0,0,0-5.568,1.279A5.316,5.316,0,0,0,92,261.434c-1.034,5.3,2.169,13.98,4.921,17.865.865,1.221,1.163,2.153.939,2.934-.327,1.146-1.7,1.722-3.439,2.452a15.814,15.814,0,0,0-6.677,4.423c-2,2.454-2.8,4.582-2.46,6.507.346,1.942,1.906,3.708,4.765,5.4a5.1,5.1,0,0,0,4.132.455c3.47-.988,6.819-4.812,8.462-7.948,2.207-4.212,4.864-5.233,9.688-7.088.579-.223,1.191-.458,1.84-.713,4.312-1.694,8.563-5.649,9.887-9.2a5.1,5.1,0,0,0-.037-4.266c-1.837-3.507-1.658-4.162-.725-5.019a3.091,3.091,0,0,0,.526-.578c.085-.128.048-.419-.1-.78-.817-2.012-4.4-5.39-6.661-5.874-3.056-.655-5.568-1.228-5.568-1.228l-.043-.012A40.328,40.328,0,0,0,99.776,256.492Z" transform="translate(-84.5 -255.773)" fill="#263238"/>
        </g>
        <g id="Grupo_1113250" data-name="Grupo 1113250" transform="translate(49.528 59.778)">
          <g id="Grupo_1113246" data-name="Grupo 1113246" transform="translate(118.121)">
            <path id="Trazado_900662" data-name="Trazado 900662" d="M288.8,274.275l1.541-4.036a1.324,1.324,0,0,1,1.861.49l-.2,6.562-1.276,5.561a2.458,2.458,0,0,1-2.25,1.392,4.5,4.5,0,0,1-3.134-1.371Z" transform="translate(-284.932 -269.681)" fill="#fff"/>
            <path id="Trazado_900663" data-name="Trazado 900663" d="M288.14,284.456a4.9,4.9,0,0,1-3.223-1.489l-.154-.165L288.3,274l1.578-4.135.089-.062a1.671,1.671,0,0,1,2.349.567l.075.1-.2,6.686-1.285,5.63a2.785,2.785,0,0,1-2.576,1.667C288.265,284.454,288.2,284.456,288.14,284.456Zm-2.545-1.821a4.011,4.011,0,0,0,2.7,1.107,2.109,2.109,0,0,0,1.938-1.166l1.262-5.513.183-6.363a.956.956,0,0,0-1.216-.366l-1.5,3.926Z" transform="translate(-284.763 -269.535)" fill="#263238"/>
          </g>
          <g id="Grupo_1113247" data-name="Grupo 1113247" transform="translate(0 2.532)">
            <path id="Trazado_900664" data-name="Trazado 900664" d="M118.728,321.336s30.015,27.442,42.021,34.3,17.366,4.073,17.366,4.073,32.738-25.9,43.736-40.735c8.354-11.271,11.551-15.156,13.052-15.37s13.292-7.075,13.936-7.933.429-10.72.429-10.72,2.144-2.359,1.93-3.431-4.716-5.145-5.788-6.217-1.286-2.573-2.144-1.072-.858,2.359-.214,3,.429,2.144.429,2.144l-.643,1.715-.429,2.787a1.825,1.825,0,0,1-2.144.643,5.944,5.944,0,0,1-2.573-1.715l2.787-7.5s-2.359-.858-2.787.858.643,1.072-1.5,2.573-4.288,3.216-4.288,5.36-3.644,13.292-3.644,13.292-15.745,11.073-21.842,14.727c-4.234,2.538-31.3,16.08-31.3,16.08s-27.442-23.8-30.873-28.3-9-9.862-19.51-6.217" transform="translate(-118.489 -273.247)" fill="#92e3a9"/>
            <path id="Trazado_900665" data-name="Trazado 900665" d="M174.643,360.488c-2.865,0-7.507-.879-14.168-4.685-11.9-6.8-41.784-34.075-42.084-34.35l.479-.524c.3.275,30.123,27.495,41.958,34.257,11.647,6.656,16.975,4.092,17.027,4.067.269-.222,32.769-26,43.614-40.631,8.964-12.094,11.7-15.282,13.287-15.511,1.463-.209,13.157-7.086,13.7-7.794.354-.539.461-5.762.358-10.5l0-.141.1-.1c.841-.925,1.967-2.5,1.845-3.122-.151-.753-3.352-3.8-4.719-5.1-.417-.4-.761-.724-.973-.936a6.833,6.833,0,0,1-.816-1.04,2.467,2.467,0,0,0-.447-.562,2.352,2.352,0,0,0-.321.455c-.91,1.591-.668,2.177-.271,2.574a3.275,3.275,0,0,1,.53,2.444l-.019.075-.63,1.681-.47,2.879a2.2,2.2,0,0,1-2.546.8,6.267,6.267,0,0,1-2.748-1.829l-.131-.158,2.725-7.338a2.358,2.358,0,0,0-1.5.06.945.945,0,0,0-.474.649,2.731,2.731,0,0,0-.094.98c.048.653-.131.805-1.548,1.8-2,1.4-4.136,3.064-4.136,5.07,0,2.175-3.512,12.944-3.662,13.4l-.036.112-.1.068c-.158.111-15.826,11.123-21.864,14.741-4.2,2.515-31.055,15.957-31.325,16.092l-.212.106-.179-.156c-1.122-.973-27.509-23.873-30.923-28.354-3.571-4.687-8.972-9.616-19.111-6.1l-.233-.671c10.692-3.708,16.482,1.841,19.909,6.338,3.225,4.233,28.267,26.026,30.644,28.091,2.552-1.279,27.09-13.578,31.066-15.96,5.767-3.457,20.388-13.708,21.723-14.646.381-1.172,3.59-11.118,3.59-13.069,0-2.346,2.292-4.148,4.44-5.651,1.267-.887,1.265-.913,1.247-1.163a3.382,3.382,0,0,1,.114-1.2,1.64,1.64,0,0,1,.83-1.105,3.461,3.461,0,0,1,2.422,0l.336.122L238,282.587a5.482,5.482,0,0,0,2.262,1.453,1.508,1.508,0,0,0,1.708-.437l.435-2.777.629-1.677a2.589,2.589,0,0,0-.333-1.806c-1.017-1.017-.45-2.366.157-3.428.224-.393.509-.8.927-.812.45-.038.722.395,1.046.872a6.21,6.21,0,0,0,.731.936c.209.209.548.531.961.924,3,2.852,4.763,4.662,4.926,5.475.222,1.108-1.394,3.04-1.92,3.632.053,2.5.15,9.931-.5,10.8-.668.891-12.5,7.832-14.169,8.071-1.453.208-5.291,5.076-12.817,15.231-10.9,14.705-43.474,40.543-43.8,40.8A8.118,8.118,0,0,1,174.643,360.488Z" transform="translate(-118.391 -273.102)" fill="#263238"/>
          </g>
          <g id="Grupo_1113248" data-name="Grupo 1113248" transform="translate(96.477 2.532)">
            <path id="Trazado_900666" data-name="Trazado 900666" d="M255.043,306.188l8.833,9.446c6.52-8.706,9.22-11.834,10.561-12.026,1.5-.214,13.292-7.075,13.936-7.933s.429-10.72.429-10.72,2.144-2.359,1.93-3.431-4.716-5.145-5.788-6.217-1.286-2.573-2.144-1.072-.858,2.359-.214,3,.429,2.144.429,2.144l-.643,1.715-.429,2.787a1.825,1.825,0,0,1-2.144.643,5.944,5.944,0,0,1-2.573-1.715l2.787-7.5s-2.359-.858-2.787.858.643,1.072-1.5,2.573-4.288,3.216-4.288,5.36-3.644,13.292-3.644,13.292S261.3,301.953,255.043,306.188Z" transform="translate(-254.5 -273.247)" fill="#fff"/>
            <path id="Trazado_900667" data-name="Trazado 900667" d="M263.684,316.04l-9.406-10.059.344-.233c5.772-3.9,11.813-8.141,12.646-8.726.381-1.172,3.59-11.118,3.59-13.069,0-2.346,2.292-4.148,4.44-5.651,1.267-.887,1.265-.913,1.247-1.163a3.381,3.381,0,0,1,.114-1.2,1.64,1.64,0,0,1,.83-1.105,3.468,3.468,0,0,1,2.423,0l.336.122-2.836,7.636a5.482,5.482,0,0,0,2.262,1.453,1.508,1.508,0,0,0,1.708-.437l.435-2.777.629-1.677a2.589,2.589,0,0,0-.333-1.806c-1.017-1.017-.45-2.366.157-3.429.224-.393.509-.8.927-.812.45-.038.722.395,1.046.872a6.209,6.209,0,0,0,.731.936c.209.209.549.533.962.926,3,2.851,4.761,4.66,4.924,5.473.222,1.108-1.394,3.04-1.92,3.632.053,2.5.15,9.931-.5,10.8-.668.891-12.5,7.832-14.169,8.071-1.334.19-4.8,4.5-10.327,11.887Zm-8.32-9.937,8.259,8.833c6.636-8.847,9.113-11.621,10.54-11.826,1.463-.209,13.157-7.086,13.7-7.794.354-.539.461-5.762.358-10.5l0-.141.1-.1c.841-.925,1.967-2.5,1.845-3.122-.15-.753-3.35-3.8-4.716-5.1-.418-.4-.763-.726-.975-.938a6.82,6.82,0,0,1-.816-1.04,2.468,2.468,0,0,0-.447-.562,2.35,2.35,0,0,0-.321.455c-.91,1.591-.668,2.177-.271,2.574a3.275,3.275,0,0,1,.53,2.444l-.019.075-.63,1.681-.47,2.879a2.2,2.2,0,0,1-2.546.8,6.261,6.261,0,0,1-2.748-1.829l-.131-.158,2.725-7.338a2.36,2.36,0,0,0-1.5.06.945.945,0,0,0-.474.649,2.731,2.731,0,0,0-.094.98c.048.653-.131.805-1.548,1.8-2,1.4-4.136,3.064-4.136,5.07,0,2.175-3.512,12.944-3.662,13.4l-.036.112-.1.068C267.709,297.58,261.449,301.98,255.364,306.1Z" transform="translate(-254.278 -273.102)" fill="#263238"/>
          </g>
          <rect id="Rectángulo_406514" data-name="Rectángulo 406514" width="3.357" height="0.71" transform="translate(128.355 16.578) rotate(-50.03)" fill="#263238"/>
          <path id="Trazado_900668" data-name="Trazado 900668" d="M294.544,281.669l-.36-.611c.089-.053,2.19-1.266,3.636-.153l-.432.563C296.315,280.644,294.561,281.66,294.544,281.669Z" transform="translate(-169.374 -272.697)" fill="#263238"/>
          <path id="Trazado_900669" data-name="Trazado 900669" d="M257.274,334.2l-11.253-11.253,6.464-4.092,9.245,9.887ZM247.15,323.071l10.071,10.072,3.568-4.369-8.42-9.005Z" transform="translate(-155.406 -283.838)" fill="#263238"/>
          <g id="Grupo_1113249" data-name="Grupo 1113249" transform="translate(0.81 23.225)">
            <path id="Trazado_900670" data-name="Trazado 900670" d="M171.966,333.624c-.887-.79-1.786-1.592-2.685-2.4a35.946,35.946,0,0,0-17.167,27.466q1.687,1.4,3.36,2.75C156.053,345.613,165.446,337.42,171.966,333.624Z" transform="translate(-128.981 -310.651)" fill="#263238"/>
            <path id="Trazado_900671" data-name="Trazado 900671" d="M155.7,319.005c-.936-.875-1.814-1.705-2.608-2.47-6.821,4.16-16.174,12.554-17.707,27.784,1.078.941,2.2,1.914,3.353,2.907C139.284,330.925,149.156,322.689,155.7,319.005Z" transform="translate(-124.131 -306.391)" fill="#263238"/>
            <path id="Trazado_900672" data-name="Trazado 900672" d="M189.838,348.718s-2.006-1.74-4.99-4.359A35.753,35.753,0,0,0,169.5,372.2c1.224.887,2.382,1.695,3.454,2.4.075-14.758,7.683-23.143,14.076-27.587a196.381,196.381,0,0,0-6.674,31.592,32.919,32.919,0,0,0,3.44,1.254,193.016,193.016,0,0,1,6.536-31.386Z" transform="translate(-134.024 -314.46)" fill="#263238"/>
            <path id="Trazado_900673" data-name="Trazado 900673" d="M222,337.783c-1.071.547-2.152,1.1-3.228,1.643a75.279,75.279,0,0,1,9.328,21.257q1.476-1.311,2.963-2.657A78.419,78.419,0,0,0,222,337.783Z" transform="translate(-148.315 -312.553)" fill="#263238"/>
            <path id="Trazado_900674" data-name="Trazado 900674" d="M247.109,344.92q1.321-1.34,2.55-2.647a92.246,92.246,0,0,0-10.234-13.579c-.828.459-1.945,1.056-3.255,1.744A89.518,89.518,0,0,1,247.109,344.92Z" transform="translate(-153.359 -309.917)" fill="#263238"/>
            <path id="Trazado_900675" data-name="Trazado 900675" d="M212.795,372.483c-.949-10.486-2.577-20.522-3.988-28.023l-3.3,1.663a289.394,289.394,0,0,1,3.961,29.122C210.487,374.406,211.6,373.481,212.795,372.483Z" transform="translate(-144.466 -314.489)" fill="#263238"/>
            <path id="Trazado_900676" data-name="Trazado 900676" d="M141.011,304.424a15.66,15.66,0,0,0-3.218-2.177c-6.826,4.014-16.616,12.39-18.261,27.917.64.581,1.8,1.627,3.333,3A32.507,32.507,0,0,1,141.011,304.424Z" transform="translate(-119.532 -302.247)" fill="#263238"/>
          </g>
        </g>
      </g>
    </g>
    <g id="Speech_Bubble" transform="translate(100.105 40.455)">
      <g id="Grupo_1113254" data-name="Grupo 1113254" transform="translate(0 0)">
        <g id="Grupo_1113252" data-name="Grupo 1113252" transform="translate(1.974 1.972)">
          <path id="Trazado_900677" data-name="Trazado 900677" d="M165.231,100.8H119.387a6.184,6.184,0,0,0-6.184,6.184v24.138a6.184,6.184,0,0,0,6.184,6.184h11.781l8.181,13.091.77-13.091h25.112a6.184,6.184,0,0,0,6.184-6.184V106.988A6.184,6.184,0,0,0,165.231,100.8Z" transform="translate(-112.849 -100.449)" fill="#263238"/>
          <path id="Trazado_900678" data-name="Trazado 900678" d="M139.494,151.387l-8.667-13.867H119.243a6.546,6.546,0,0,1-6.538-6.539V106.843a6.546,6.546,0,0,1,6.538-6.539h45.844a6.546,6.546,0,0,1,6.539,6.539v24.138a6.546,6.546,0,0,1-6.539,6.539H140.311Zm-20.251-50.373a5.835,5.835,0,0,0-5.828,5.829v24.138a5.835,5.835,0,0,0,5.828,5.829h11.977l7.7,12.313.725-12.313h25.446a5.836,5.836,0,0,0,5.829-5.829V106.844a5.836,5.836,0,0,0-5.829-5.829Z" transform="translate(-112.705 -100.304)" fill="#263238"/>
        </g>
        <g id="Grupo_1113253" data-name="Grupo 1113253">
          <path id="Trazado_900679" data-name="Trazado 900679" d="M162.452,98.025H116.608a6.184,6.184,0,0,0-6.184,6.184v24.138a6.184,6.184,0,0,0,6.184,6.184h11.781l8.181,13.091.77-13.091h25.112a6.184,6.184,0,0,0,6.184-6.184V104.209A6.184,6.184,0,0,0,162.452,98.025Z" transform="translate(-110.07 -97.671)" fill="#fff"/>
          <path id="Trazado_900680" data-name="Trazado 900680" d="M136.715,148.609l-8.667-13.867H116.464a6.546,6.546,0,0,1-6.539-6.539V104.065a6.546,6.546,0,0,1,6.539-6.539h45.844a6.546,6.546,0,0,1,6.539,6.539V128.2a6.546,6.546,0,0,1-6.539,6.539H137.531ZM116.463,98.235a5.836,5.836,0,0,0-5.829,5.829V128.2a5.836,5.836,0,0,0,5.829,5.829h11.977l7.7,12.313.725-12.313h25.446a5.836,5.836,0,0,0,5.829-5.829V104.064a5.836,5.836,0,0,0-5.829-5.829Z" transform="translate(-109.925 -97.526)" fill="#263238"/>
        </g>
        <ellipse id="Elipse_11656" data-name="Elipse 11656" cx="2.714" cy="2.714" rx="2.714" ry="2.714" transform="translate(16.634 15.418)" fill="#263238"/>
        <ellipse id="Elipse_11657" data-name="Elipse 11657" cx="2.714" cy="2.714" rx="2.714" ry="2.714" transform="translate(28.474 15.418)" fill="#263238"/>
        <path id="Trazado_900681" data-name="Trazado 900681" d="M172.132,121.956a2.714,2.714,0,1,1-2.714-2.714A2.713,2.713,0,0,1,172.132,121.956Z" transform="translate(-126.392 -103.824)" fill="#263238"/>
      </g>
    </g>
    <g id="Clock" transform="translate(45.425 60.665)">
      <g id="Grupo_1113255" data-name="Grupo 1113255" transform="translate(0 0)">
        <path id="Trazado_900682" data-name="Trazado 900682" d="M58.769,177.7A25.855,25.855,0,1,1,84.62,151.843,25.888,25.888,0,0,1,58.769,177.7Zm0-51A25.145,25.145,0,1,0,83.91,151.843,25.173,25.173,0,0,0,58.769,126.7Zm0,48.162a23.021,23.021,0,1,1,23.021-23.02A23.046,23.046,0,0,1,58.769,174.864Zm0-45.332A22.311,22.311,0,1,0,81.08,151.842,22.336,22.336,0,0,0,58.769,129.531Z" transform="translate(-32.91 -125.992)" fill="#263238"/>
        <rect id="Rectángulo_406515" data-name="Rectángulo 406515" width="0.71" height="8.702" transform="translate(28.354 27.035) rotate(-75.226)" fill="#263238"/>
        <rect id="Rectángulo_406516" data-name="Rectángulo 406516" width="0.71" height="17.958" transform="translate(13.871 8.963) rotate(-34.744)" fill="#263238"/>
        <path id="Trazado_900683" data-name="Trazado 900683" d="M68.04,164.27a3.149,3.149,0,1,1,3.149-3.149A3.153,3.153,0,0,1,68.04,164.27Zm0-5.588a2.44,2.44,0,1,0,2.439,2.439A2.442,2.442,0,0,0,68.04,158.682Z" transform="translate(-42.185 -135.266)" fill="#263238"/>
      </g>
    </g>
  </g>
</svg>
